<svg xmlns="http://www.w3.org/2000/svg" viewBox="-100 0 200 120">
  <g fill-rule="evenodd">
    <rect x="-100" width="200" height="120" rx="22.25" ry="22.25" fill="#F0CA00"/>
    <rect x="-95.75" y="4.25" width="191.5" height="111.5" rx="18" ry="18"/>
    <rect x="-88.75" y="11.25" width="177.5" height="97.5" rx="11" ry="11" fill="#F0CA00"/>
    <path d="M-45.494 84.072v-9.096L-22.96 26.77h10.76l-22.767 48.206h17.547V55.582h9.65v19.394h5.4v9.096h-5.4v9.974h-9.65v-9.974h-28.074zM42.88 58.076l-18.104 36.2H13.97l14.22-28.49h-.18q-2.31.878-5.127.878-6.464 0-11.267-4.48-4.848-4.43-4.848-14.313 0-11.59 6.14-16.575Q19.1 26.26 26.67 26.26q7.02 0 12.93 5.542 5.86 5.54 5.86 15.053 0 6.142-2.58 11.22zm-16.76 0q4.01 0 6.83-2.678 2.82-2.586 2.82-8.358 0-11.128-9.65-11.128-3.375 0-6.515 2.54-3.186 2.585-3.186 8.588 0 5.726 2.814 8.358 2.77 2.678 6.885 2.678z"/>
  </g>
</svg>
