<svg xmlns="http://www.w3.org/2000/svg" viewBox="0 0 455.888 566" enable-background="new 0 0 455.888 566"><path fill="#fdcc50" d="m436.77 410.18c0-13.244-27.387-10.594-27.387-10.594v18.974h-22.905c19.763-21.91 35.625-45.751 47.27-71.16 25.822-56.33 21.955-101.43 21.912-101.88l.003-245.52h-455.44v245.59c-.039.383-3.91 45.48 21.911 101.81 11.645 25.407 27.504 49.25 47.27 71.16h-22.896v-18.974c0 0-27.387-2.65-27.387 10.594 0 16.777 0 38.835 0 38.835s-.8 13.255 12.594 13.02c12.803-.2 28.475-.217 28.475-.217l-27.362 32.672c0 0 61.835 71.04 195.12 71.51 133.28-.474 195.12-71.51 195.12-71.51l-27.365-32.672c0 0 15.672.017 28.475.217 13.394.235 12.594-13.02 12.594-13.02s0-22.06 0-38.835m-352.74 55.611c5.416-10.423 7.538-18.547 7.608-24.884 31.66 28.87 71.02 53.688 117.23 73.952-75.1-6.488-124.84-49.07-124.84-49.07m162.97 49.07c46.22-20.268 85.58-45.09 117.25-73.963.069 6.338 2.19 14.465 7.608 24.893.0001 0-49.745 42.587-124.85 49.07"/><g fill="#fff"><path d="m414.25 405.31c0 0 16.02-1.764 16.02 6.632 0 8.379-8.535 6.614-16.02 6.614v-13.246"/><path d="m86.1 438.58c0 0-1.625 17.349-6.917 23.24l-7.08-4.842 13.993-18.398"/><path d="m369.79 438.58l13.993 18.398-7.08 4.842c-5.292-5.892-6.917-23.24-6.917-23.24"/><path d="m41.641 405.31v13.246c-7.483 0-16.02 1.765-16.02-6.614 0-8.396 16.02-6.632 16.02-6.632"/><path d="m35.19 457.54c-13.12.163-11.203-12.925-11.203-12.925v-24.579c1.617 4.03 10.169 3.381 10.169 3.381h36.19c1.535 0 2.828.158 3.936.428 1.889 2 3.815 3.982 5.771 5.949.452 3.208-.876 6.424-.876 6.424l-15.74 21.322c0 0-17.479-.114-28.25 0"/><path d="m414.25 493.6c0 0-63.58 64.43-186.3 64.897.439.002.872.011 1.312.011h-1.312-1.312c.44 0 .873-.009 1.312-.011-122.73-.466-186.3-64.897-186.3-64.897l24.615-29.882c0 0 65.891 58.6 161.69 59.02 95.8-.426 161.69-59.02 161.69-59.02l24.615 29.882"/><path d="m420.7 457.54c-10.77-.113-28.25 0-28.25 0l-15.74-21.322c0 0-1.332-3.224-.874-6.436 1.951-1.962 3.872-3.938 5.758-5.935 1.11-.271 2.407-.431 3.947-.431h36.19c0 0 8.552.651 10.169-3.381v24.579c.0001.0001 1.913 13.09-11.202 12.926"/></g><path fill="#009e4e" d="m23.585 321.07h408.72c-1.408 3.918-2.966 7.928-4.685 12.02h-399.35c-1.719-4.091-3.276-8.101-4.685-12.02"/><g fill="#e12128"><path d="m359.97 427.98c-34.25 31.823-78.11 58.58-130.36 79.52-.249 0-3.097 0-3.345 0-52.25-20.945-96.11-47.701-130.35-79.52-27.407-25.47-48.755-54.23-63.45-85.47-.858-1.825-1.671-3.631-2.465-5.43h395.9c-.795 1.799-1.607 3.604-2.467 5.43-14.698 31.24-36.05 59.998-63.46 85.47"/><path d="m433.7 317.06h-411.52c-10.556-31.07-11.84-55.718-11.84-65.788 0-3.118.122-4.84.128-4.923 0 0 .002-233.09.002-234.5 1.408 0 433.54 0 434.94 0 0 1.407 0 234.44 0 234.44.007.095.13 1.827.13 4.955.0001 10.1-1.286 34.741-11.843 65.813"/><path d="m68.25 473.64l3.638 2.84-9.278 17.23.05.04 14.78-12.93 3.452 2.69-20.742 17.45-4.1-3.19 12.2-24.13"/><path d="m66.55 505.67l15.1-21.82 3.65 2.53-15.1 21.81-3.65-2.52"/><path d="m79.24 498.38c3.719-5.954 7.248-11.622 13.463-7.755 3.833 2.409 3.729 6.02.565 10.744l-3.685-2.295c1.86-2.989 2.138-4.38 1.017-5.085-2.13-1.311-3.946 1-7.544 6.771-3.607 5.755-4.885 8.422-2.772 9.752 1.747 1.087 3.433-1.764 4.588-3.503l3.712 2.313c-3.756 6.01-6.885 6.745-10.396 4.545-6.206-3.867-2.624-9.604 1.052-15.487"/><path d="m110.25 501.06l-2.09 3.87-4.35-2.34-10.5 19.45-3.91-2.11 10.51-19.45-4.34-2.34 2.09-3.89 12.59 6.81"/><path d="m113.89 517.34c2.859-6.154 3.79-8.972 1.521-10.01-2.26-1.044-3.791 1.477-6.641 7.647-2.859 6.173-3.79 8.971-1.521 10.02 2.261 1.053 3.79-1.486 6.641-7.656m-9.205-4.252c2.947-6.36 5.754-12.436 12.395-9.36 6.632 3.068 3.833 9.135.896 15.516-2.92 6.301-5.745 12.429-12.395 9.361-6.64-3.068-3.806-9.214-.896-15.517z"/><path d="m124.44 519.85l1.825.713c1.652.644 2.912-1.226 3.529-2.799.913-2.373.469-3.564-.843-4.077l-1.834-.714-2.677 6.877m-5.475 14.03l-4.128-1.608 9.63-24.711 7.631 2.973c2.824 1.104 3.746 4.068 2.111 8.276-1.234 3.146-3.137 5.127-6.03 4.631l-.035.063c.86.485 3.433 1.807 1.695 6.265-.617 1.565-2.338 6.258-2.355 7.432l-4.05-1.572c.035-1.73.799-3.355 1.426-4.972 1.147-2.946 2.338-5.354-.844-6.589l-1.068-.425-3.982 10.237z"/><path d="m130.24 538.08l8.51-25.11 4.22 1.43-8.52 25.11-4.21-1.43"/><path d="m150.09 521.94l-.061-.018-5.12 10.438 4.059 1.183 1.122-11.603m-14.159 18.19l13.01-23.841 5.614 1.616-1.833 27.08-4.485-1.305.495-5.97-5.814-1.679-2.781 5.311-4.208-1.215z"/><path d="m163.51 533.88c1.383-6.876 2.695-13.429 9.874-11.986 4.433.887 5.615 4.303 4.311 9.856l-4.259-.859c.695-3.452.46-4.85-.834-5.112-2.451-.486-3.346 2.321-4.676 8.988-1.347 6.657-1.599 9.604.843 10.1 2.025.409 2.582-2.851 3.051-4.894l4.293.869c-1.399 6.945-4.059 8.727-8.126 7.909-7.171-1.432-5.841-8.07-4.477-14.87"/><path d="m188.53 538.28c.956-6.728 1.052-9.682-1.425-10.03-2.468-.356-3.199 2.512-4.155 9.229-.956 6.737-1.042 9.684 1.426 10.04 2.476.348 3.206-2.512 4.154-9.238m-10.04-1.425c.991-6.954 1.938-13.575 9.178-12.542 7.241 1.025 6.302 7.648 5.311 14.593-.964 6.874-1.92 13.567-9.162 12.532-7.248-1.016-6.291-7.709-5.327-14.583z"/><path d="m194.41 552.41l2.12-26.43 5.98.48 4.15 18.76h.06l1.47-18.31 4.13.34-2.11 26.43-5.84-.47-4.21-19.79h-.07l-1.55 19.33-4.13-.34"/><path d="m214.31 540.58c.156-7.02.313-13.706 7.623-13.532 4.528.095 6.274 3.26 5.971 8.953l-4.346-.105c.079-3.521-.382-4.858-1.711-4.894-2.495-.043-2.886 2.878-3.042 9.675-.148 6.796.104 9.743 2.598 9.795 2.051.052 2.051-3.26 2.155-5.354l4.381.103c-.166 7.093-2.477 9.318-6.623 9.214-7.319-.166-7.162-6.92-7.01-13.855"/><path d="m240.28 540.58c-.208-6.796-.626-9.725-3.11-9.646-2.505.068-2.739 3.02-2.531 9.812.209 6.798.618 9.727 3.112 9.648 2.502-.088 2.738-3.034 2.529-9.814m-10.125.303c-.217-7.01-.426-13.697 6.883-13.923 7.318-.217 7.518 6.466 7.735 13.48.199 6.936.418 13.698-6.9 13.906-7.311.236-7.519-6.527-7.718-13.463z"/><path d="m251.35 538.12l1.957-.164c1.755-.14 2.077-2.382 1.929-4.067-.198-2.529-1.13-3.399-2.548-3.286l-1.955.165.617 7.352m1.251 15.01l-4.423.365-2.208-26.422 8.169-.687c3.02-.252 5.157 2.01 5.529 6.501.287 3.373-.557 5.987-3.381 6.814l.009.077c.974.062 3.868.113 4.267 4.868.141 1.687.636 6.656 1.147 7.717l-4.337.366c-.72-1.557-.746-3.363-.895-5.086-.261-3.146-.251-5.84-3.65-5.553l-1.139.087.912 10.953z"/><path d="m268.68 547.35l2.112-.296c2.686-.372 2.851-2.963 1.92-9.543-.678-4.831-1.277-9.09-4.337-8.664l-2.268.321 2.573 18.18m-7.536-21.598l7.327-1.035c5.755-.816 7.519 3.843 8.675 12.02.573 4.04 2.373 13.201-5.128 14.262l-7.163 1.018-3.711-26.27z"/><path d="m282.53 549.33l-4.87-26.07 4.36-.82 4.87 26.06-4.36.83"/><path d="m292.47 525.41l-.061.009.634 11.629 4.121-.964-4.694-10.674m-3.451 22.806l-.329-27.17 5.702-1.328 11.654 24.509-4.545 1.061-2.495-5.449-5.894 1.381.176 5.989-4.269 1.01z"/><path d="m309.98 529.29c-2.173-6.666-4.243-13.03 2.721-15.298 4.302-1.39 7 1.01 8.596 6.485l-4.137 1.347c-1.088-3.364-1.974-4.468-3.225-4.05-2.382.764-1.782 3.659.313 10.125 2.104 6.458 3.32 9.161 5.7 8.387 1.956-.643.844-3.762.253-5.762l4.172-1.355c2.181 6.735.738 9.604-3.206 10.891-6.955 2.258-9.04-4.174-11.187-10.77"/><path d="m328.01 521.19l1.825-.713c1.649-.643 1.311-2.877.694-4.451-.922-2.374-2.059-2.938-3.381-2.434l-1.834.721 2.696 6.877m5.483 14.03l-4.138 1.616-9.656-24.701 7.641-2.99c2.808-1.104 5.501.46 7.153 4.659 1.226 3.146 1.164 5.893-1.305 7.493l.035.069c.948-.217 3.746-.991 5.476 3.459.616 1.573 2.512 6.179 3.304 7.07l-4.052 1.582c-1.138-1.294-1.677-3.01-2.312-4.623-1.146-2.929-1.903-5.519-5.084-4.277l-1.069.418 4.01 10.23z"/><path d="m344.25 530.88l-11.04-24.11 10.53-4.83 1.71 3.71-6.5 2.98 2.72 5.94 5.98-2.73 1.71 3.7-5.99 2.74 3.23 7.05 6.7-3.07 1.7 3.7-10.75 4.92"/><path d="m362.55 522.54c-4.85 2.582-7.648-.505-9.595-4.667l3.912-2.087c1.182 2.243 2.259 4.076 4.423 2.939 1.321-.705 1.408-2.121.564-3.713-2.243-4.216-10.272-.286-13.976-7.258-1.938-3.666-2.096-7.336 2.686-9.864 3.824-2.034 6.85-.887 9.188 4.145l-3.816 2.026c-.931-1.756-2.104-3.415-3.686-2.573-1.277.678-1.563 1.947-.704 3.563 2.355 4.451 10.04-.121 13.943 7.25 3.224 6.06.052 8.657-2.939 10.239"/><path d="m364.26 506.06c-3.678-5.98-7.171-11.663-.949-15.507 3.86-2.371 7.05-.668 9.874 4.277l-3.711 2.276c-1.843-2.998-2.955-3.866-4.085-3.172-2.121 1.305-.86 3.98 2.693 9.77 3.564 5.779 5.382 8.127 7.51 6.813 1.757-1.087-.052-3.851-1.095-5.668l3.729-2.284c3.702 6.03 2.973 9.151-.557 11.325-6.231 3.834-9.768-1.92-13.409-7.83"/><path d="m384.75 508.81l-15-21.88 3.67-2.5 14.98 21.89-3.65 2.49"/><path d="m385.9 475.05l2.68 3.51-3.92 3 13.48 17.53-3.52 2.72-13.47-17.54-3.92 2.99-2.67-3.48 11.34-8.73"/><path d="m395.57 440.04c0-5.248 4.284-9.533 9.535-9.533 5.25 0 9.534 4.285 9.534 9.533 0 5.26-4.284 9.545-9.534 9.545-5.251 0-9.535-4.285-9.535-9.545m-4.233 0c0 7.606 6.162 13.777 13.768 13.777 7.596 0 13.767-6.171 13.767-13.777 0-7.586-6.171-13.766-13.767-13.766-7.606.0001-13.768 6.181-13.768 13.766z"/><path d="m60.32 440.04c0-5.248-4.285-9.533-9.536-9.533-5.249 0-9.533 4.285-9.533 9.533 0 5.26 4.284 9.545 9.533 9.545 5.251 0 9.536-4.285 9.536-9.545m4.232 0c0 7.606-6.163 13.777-13.768 13.777-7.595 0-13.766-6.171-13.766-13.777 0-7.586 6.171-13.766 13.766-13.766 7.605.0001 13.768 6.181 13.768 13.766z"/></g><g fill="#fff"><path d="m94.97 166.83c-1.617 0-2.921 1.313-2.921 2.92s1.305 2.912 2.921 2.912c1.607 0 2.911-1.304 2.911-2.912s-1.304-2.92-2.911-2.92m-13.343 0c-1.625 0-2.92 1.313-2.92 2.92s1.295 2.912 2.92 2.912c1.608 0 2.921-1.304 2.921-2.912s-1.313-2.92-2.921-2.92zm9.613-3.215c0 1.607-1.295 2.912-2.902 2.912-1.617 0-2.92-1.305-2.92-2.912 0-1.617 1.303-2.92 2.92-2.92 1.607 0 2.902 1.303 2.902 2.92"/><path d="m367.73 191.69c.087-1.633 2.13-6.379 2.13-6.379.407.903 6.127-.331 6.127-.331s-8.01-6.05-8.093-14.896h-.416c-.086 8.848-8.101 14.896-8.101 14.896s5.728 1.234 6.145.331c0 0 2.043 4.746 2.13 6.379h.078m6.554-24.858c-1.608 0-2.921 1.313-2.921 2.92s1.313 2.912 2.921 2.912c1.606 0 2.919-1.304 2.919-2.912s-1.313-2.92-2.919-2.92zm-13.351 0c-1.616 0-2.902 1.313-2.902 2.92s1.286 2.912 2.902 2.912c1.608 0 2.919-1.304 2.919-2.912s-1.311-2.92-2.919-2.92m9.63-3.215c0 1.607-1.313 2.912-2.911 2.912-1.617 0-2.93-1.305-2.93-2.912 0-1.617 1.313-2.92 2.93-2.92 1.598 0 2.911 1.303 2.911 2.92"/><path d="m41.862 151.84c.087-1.642 2.13-6.379 2.13-6.379.409.896 6.145-.33 6.145-.33s-8.03-6.06-8.117-14.902h-.4c-.079 8.839-8.109 14.902-8.109 14.902s5.728 1.226 6.154.33c0 0 2.034 4.737 2.111 6.379h.086m6.545-24.857c-1.608 0-2.912 1.308-2.912 2.916 0 1.613 1.304 2.92 2.912 2.92 1.608 0 2.92-1.307 2.92-2.92 0-1.608-1.312-2.916-2.92-2.916zm-13.341 0c-1.609 0-2.92 1.308-2.92 2.916 0 1.613 1.312 2.92 2.92 2.92 1.607 0 2.912-1.307 2.912-2.92 0-1.608-1.304-2.916-2.912-2.916"/><path d="m414.29 151.84c.079-1.642 2.103-6.379 2.103-6.379.437.896 6.163-.33 6.163-.33s-8.02-6.06-8.108-14.902h-.409c-.078 8.839-8.111 14.902-8.111 14.902s5.738 1.226 6.147.33c0 0 2.033 4.737 2.12 6.379h.095m6.545-24.857c-1.617 0-2.93 1.308-2.93 2.916 0 1.613 1.313 2.92 2.93 2.92 1.616 0 2.911-1.307 2.911-2.92 0-1.608-1.295-2.916-2.911-2.916zm-13.35 0c-1.608 0-2.913 1.308-2.913 2.916 0 1.613 1.305 2.92 2.913 2.92 1.616 0 2.902-1.307 2.902-2.92 0-1.608-1.286-2.916-2.902-2.916m9.637-3.225c0 1.612-1.32 2.92-2.928 2.92s-2.912-1.308-2.912-2.92c0-1.6 1.305-2.92 2.912-2.92s2.928 1.321 2.928 2.92"/><path d="m134.97 151.84c.069-1.642 2.112-6.379 2.112-6.379.427.896 6.145-.33 6.145-.33s-8.02-6.06-8.109-14.902h-.399c-.078 8.839-8.101 14.902-8.101 14.902s5.728 1.226 6.128.33c0 0 2.051 4.737 2.129 6.379h.095m6.536-24.857c-1.59 0-2.92 1.308-2.92 2.916 0 1.613 1.33 2.92 2.92 2.92 1.617 0 2.929-1.307 2.929-2.92 0-1.608-1.312-2.916-2.929-2.916zm-13.342 0c-1.607 0-2.92 1.308-2.92 2.916 0 1.613 1.313 2.92 2.92 2.92 1.608 0 2.921-1.307 2.921-2.92 0-1.608-1.312-2.916-2.921-2.916m9.631-3.225c0 1.612-1.313 2.92-2.921 2.92s-2.929-1.308-2.929-2.92c0-1.6 1.321-2.92 2.929-2.92s2.921 1.321 2.921 2.92"/><path d="m228.06 151.84c.095-1.642 2.138-6.379 2.138-6.379.4.896 6.146-.33 6.146-.33s-8.04-6.06-8.101-14.902h-.426c-.077 8.839-8.1 14.902-8.1 14.902s5.736 1.226 6.136.33c0 0 2.051 4.737 2.129 6.379h.078m6.553-24.857c-1.601 0-2.911 1.308-2.911 2.916 0 1.613 1.311 2.92 2.911 2.92 1.616 0 2.92-1.307 2.92-2.92 0-1.608-1.303-2.916-2.92-2.916zm-13.341 0c-1.617 0-2.912 1.308-2.912 2.916 0 1.613 1.295 2.92 2.912 2.92 1.607 0 2.92-1.307 2.92-2.92 0-1.608-1.312-2.916-2.92-2.916m9.631-3.225c0 1.612-1.305 2.92-2.921 2.92-1.599 0-2.92-1.308-2.92-2.92 0-1.6 1.321-2.92 2.92-2.92 1.616 0 2.921 1.321 2.921 2.92"/><path d="m321.17 151.84c.096-1.642 2.129-6.379 2.129-6.379.409.896 6.154-.33 6.154-.33s-8.03-6.06-8.109-14.902h-.407c-.087 8.839-8.102 14.902-8.102 14.902s5.711 1.226 6.137.33c0 0 2.033 4.737 2.13 6.379h.068m6.562-24.857c-1.617 0-2.919 1.308-2.919 2.916 0 1.613 1.302 2.92 2.919 2.92 1.608 0 2.921-1.307 2.921-2.92 0-1.608-1.313-2.916-2.921-2.916zm-13.349 0c-1.608 0-2.921 1.308-2.921 2.916 0 1.613 1.313 2.92 2.921 2.92 1.616 0 2.911-1.307 2.911-2.92 0-1.608-1.295-2.916-2.911-2.916m9.638-3.225c0 1.612-1.313 2.92-2.919 2.92-1.616 0-2.921-1.308-2.921-2.92 0-1.6 1.305-2.92 2.921-2.92 1.606 0 2.919 1.321 2.919 2.92"/><path d="m43.46 232.35c.087-1.635 2.121-6.379 2.121-6.379.426.895 6.153-.331 6.153-.331s-8.03-6.06-8.109-14.897h-.408c-.079 8.839-8.109 14.897-8.109 14.897s5.736 1.226 6.145.331c0 0 2.042 4.745 2.129 6.379h.078"/><path d="m414.29 231.55c.079-1.642 2.103-6.379 2.103-6.379.437.895 6.163-.339 6.163-.339s-8.02-6.06-8.108-14.906h-.409c-.078 8.849-8.111 14.906-8.111 14.906s5.738 1.234 6.147.339c0 0 2.033 4.737 2.12 6.379h.095m6.545-24.858c-1.617 0-2.93 1.303-2.93 2.919 0 1.608 1.313 2.904 2.93 2.904 1.616 0 2.911-1.296 2.911-2.904 0-1.616-1.295-2.919-2.911-2.919zm-13.35 0c-1.608 0-2.913 1.303-2.913 2.919 0 1.608 1.305 2.904 2.913 2.904 1.616 0 2.902-1.296 2.902-2.904 0-1.616-1.286-2.919-2.902-2.919m9.637-3.225c0 1.608-1.32 2.921-2.928 2.921s-2.912-1.313-2.912-2.921c0-1.608 1.305-2.92 2.912-2.92s2.928 1.312 2.928 2.92"/><path d="m88.42 269.4c.087-1.643 2.13-6.388 2.13-6.388.408.904 6.135-.322 6.135-.322s-8.01-6.067-8.109-14.896h-.408c-.079 8.83-8.101 14.896-8.101 14.896s5.736 1.226 6.146.322c0 0 2.042 4.745 2.129 6.388h.078m6.554-24.858c-1.617 0-2.921 1.303-2.921 2.92 0 1.608 1.305 2.92 2.921 2.92 1.607 0 2.911-1.313 2.911-2.92 0-1.616-1.304-2.92-2.911-2.92zm-13.343 0c-1.625 0-2.92 1.303-2.92 2.92 0 1.608 1.295 2.92 2.92 2.92 1.608 0 2.921-1.313 2.921-2.92 0-1.616-1.313-2.92-2.921-2.92m9.613-3.224c0 1.608-1.295 2.919-2.902 2.919-1.617 0-2.92-1.311-2.92-2.919 0-1.608 1.303-2.921 2.92-2.921 1.607 0 2.902 1.312 2.902 2.921"/><path d="m367.73 269.4c.087-1.643 2.13-6.388 2.13-6.388.407.904 6.127-.322 6.127-.322s-8.01-6.067-8.093-14.896h-.416c-.086 8.83-8.101 14.896-8.101 14.896s5.728 1.226 6.145.322c0 0 2.043 4.745 2.13 6.388h.078m6.554-24.858c-1.608 0-2.921 1.303-2.921 2.92 0 1.608 1.313 2.92 2.921 2.92 1.606 0 2.919-1.313 2.919-2.92-.0001-1.616-1.313-2.92-2.919-2.92zm-13.351 0c-1.616 0-2.902 1.303-2.902 2.92 0 1.608 1.286 2.92 2.902 2.92 1.608 0 2.919-1.313 2.919-2.92 0-1.616-1.311-2.92-2.919-2.92m9.63-3.224c0 1.608-1.313 2.919-2.911 2.919-1.617 0-2.93-1.311-2.93-2.919 0-1.608 1.313-2.921 2.93-2.921 1.598 0 2.911 1.312 2.911 2.921"/><path d="m41.862 311.26c.087-1.645 2.13-6.398 2.13-6.398.409.913 6.145-.313 6.145-.313s-8.03-6.067-8.117-14.906h-.4c-.079 8.839-8.109 14.906-8.109 14.906s5.728 1.226 6.154.313c0 0 2.034 4.754 2.111 6.398h.086m6.545-24.859c-1.608 0-2.912 1.304-2.912 2.912 0 1.617 1.304 2.911 2.912 2.911 1.608 0 2.92-1.294 2.92-2.911 0-1.608-1.312-2.912-2.92-2.912zm-13.341 0c-1.609 0-2.92 1.304-2.92 2.912 0 1.617 1.312 2.911 2.92 2.911 1.607 0 2.912-1.294 2.912-2.911 0-1.608-1.304-2.912-2.912-2.912m9.63-3.224c0 1.606-1.312 2.92-2.92 2.92-1.607 0-2.911-1.313-2.911-2.92 0-1.608 1.304-2.92 2.911-2.92 1.608 0 2.92 1.312 2.92 2.92"/><path d="m134.97 311.26c.069-1.645 2.112-6.398 2.112-6.398.427.913 6.145-.313 6.145-.313s-8.02-6.067-8.109-14.906h-.399c-.078 8.839-8.101 14.906-8.101 14.906s5.728 1.226 6.128.313c0 0 2.051 4.754 2.129 6.398h.095m6.536-24.859c-1.59 0-2.92 1.304-2.92 2.912 0 1.617 1.33 2.911 2.92 2.911 1.617 0 2.929-1.294 2.929-2.911 0-1.608-1.312-2.912-2.929-2.912zm-13.342 0c-1.607 0-2.92 1.304-2.92 2.912 0 1.617 1.313 2.911 2.92 2.911 1.608 0 2.921-1.294 2.921-2.911 0-1.608-1.312-2.912-2.921-2.912m9.631-3.224c0 1.606-1.313 2.92-2.921 2.92s-2.929-1.313-2.929-2.92c0-1.608 1.321-2.92 2.929-2.92s2.921 1.312 2.921 2.92"/><path d="m321.17 311.26c.096-1.645 2.129-6.398 2.129-6.398.409.913 6.154-.313 6.154-.313s-8.03-6.067-8.109-14.906h-.407c-.087 8.839-8.102 14.906-8.102 14.906s5.711 1.226 6.137.313c0 0 2.033 4.754 2.13 6.398h.068m6.562-24.859c-1.617 0-2.919 1.304-2.919 2.912 0 1.617 1.302 2.911 2.919 2.911 1.608 0 2.921-1.294 2.921-2.911 0-1.608-1.313-2.912-2.921-2.912zm-13.349 0c-1.608 0-2.921 1.304-2.921 2.912 0 1.617 1.313 2.911 2.921 2.911 1.616 0 2.911-1.294 2.911-2.911 0-1.608-1.295-2.912-2.911-2.912"/><path d="m134.97 371.55c.069-1.642 2.112-6.388 2.112-6.388.427.895 6.145-.329 6.145-.329s-8.02-6.05-8.109-14.9h-.399c-.078 8.849-8.101 14.9-8.101 14.9s5.728 1.224 6.128.329c0 0 2.051 4.746 2.129 6.388h.095m6.536-24.866c-1.59 0-2.92 1.313-2.92 2.921 0 1.616 1.33 2.919 2.92 2.919 1.617 0 2.929-1.303 2.929-2.919 0-1.608-1.312-2.921-2.929-2.921zm-13.342 0c-1.607 0-2.92 1.313-2.92 2.921 0 1.616 1.313 2.919 2.92 2.919 1.608 0 2.921-1.303 2.921-2.919 0-1.608-1.312-2.921-2.921-2.921m9.631-3.217c0 1.617-1.313 2.921-2.921 2.921s-2.929-1.304-2.929-2.921c0-1.616 1.321-2.911 2.929-2.911s2.921 1.295 2.921 2.911"/><path d="m321.17 371.55c.096-1.642 2.129-6.388 2.129-6.388.409.895 6.154-.329 6.154-.329s-8.03-6.05-8.109-14.9h-.407c-.087 8.849-8.102 14.9-8.102 14.9s5.711 1.224 6.137.329c0 0 2.033 4.746 2.13 6.388h.068m6.562-24.866c-1.617 0-2.919 1.313-2.919 2.921 0 1.616 1.302 2.919 2.919 2.919 1.608 0 2.921-1.303 2.921-2.919 0-1.608-1.313-2.921-2.921-2.921zm-13.349 0c-1.608 0-2.921 1.313-2.921 2.921 0 1.616 1.313 2.919 2.921 2.919 1.616 0 2.911-1.303 2.911-2.919 0-1.608-1.295-2.921-2.911-2.921m9.638-3.217c0 1.617-1.313 2.921-2.919 2.921-1.616 0-2.921-1.304-2.921-2.921 0-1.616 1.305-2.911 2.921-2.911 1.606 0 2.919 1.295 2.919 2.911"/><path d="m88.42 411.4c.087-1.651 2.13-6.38 2.13-6.38.408.896 6.135-.339 6.135-.339s-8.01-6.06-8.109-14.905h-.408c-.079 8.848-8.101 14.905-8.101 14.905s5.736 1.234 6.146.339c0 0 2.042 4.729 2.129 6.38h.078m6.554-24.858c-1.617 0-2.921 1.294-2.921 2.921 0 1.599 1.305 2.902 2.921 2.902 1.607 0 2.911-1.304 2.911-2.902 0-1.627-1.304-2.921-2.911-2.921zm-13.343 0c-1.625 0-2.92 1.294-2.92 2.921 0 1.599 1.295 2.902 2.92 2.902 1.608 0 2.921-1.304 2.921-2.902 0-1.627-1.313-2.921-2.921-2.921m9.613-3.233c0 1.616-1.295 2.921-2.902 2.921-1.617 0-2.92-1.305-2.92-2.921 0-1.6 1.303-2.921 2.92-2.921 1.607 0 2.902 1.321 2.902 2.921"/><path d="m367.73 411.4c.087-1.651 2.13-6.38 2.13-6.38.407.896 6.127-.339 6.127-.339s-8.01-6.06-8.093-14.905h-.416c-.086 8.848-8.101 14.905-8.101 14.905s5.728 1.234 6.145.339c0 0 2.043 4.729 2.13 6.38h.078m6.554-24.858c-1.608 0-2.921 1.294-2.921 2.921 0 1.599 1.313 2.902 2.921 2.902 1.606 0 2.919-1.304 2.919-2.902-.0001-1.627-1.313-2.921-2.919-2.921zm-13.351 0c-1.616 0-2.902 1.294-2.902 2.921 0 1.599 1.286 2.902 2.902 2.902 1.608 0 2.919-1.304 2.919-2.902 0-1.627-1.311-2.921-2.919-2.921m9.63-3.233c0 1.616-1.313 2.921-2.911 2.921-1.617 0-2.93-1.305-2.93-2.921 0-1.6 1.313-2.921 2.93-2.921 1.598 0 2.911 1.321 2.911 2.921"/><path d="m134.97 451.25c.069-1.635 2.112-6.38 2.112-6.38.427.903 6.145-.331 6.145-.331s-8.02-6.05-8.109-14.896h-.399c-.078 8.848-8.101 14.896-8.101 14.896s5.728 1.234 6.128.331c0 0 2.051 4.745 2.129 6.38h.095m6.536-24.849c-1.59 0-2.92 1.303-2.92 2.919 0 1.601 1.33 2.913 2.92 2.913 1.617 0 2.929-1.313 2.929-2.913 0-1.616-1.312-2.919-2.929-2.919zm-13.342 0c-1.607 0-2.92 1.303-2.92 2.919 0 1.601 1.313 2.913 2.92 2.913 1.608 0 2.921-1.313 2.921-2.913 0-1.616-1.312-2.919-2.921-2.919m9.631-3.225c0 1.616-1.313 2.911-2.921 2.911s-2.929-1.295-2.929-2.911c0-1.608 1.321-2.921 2.929-2.921s2.921 1.313 2.921 2.921"/><path d="m321.17 451.25c.096-1.635 2.129-6.38 2.129-6.38.409.903 6.154-.331 6.154-.331s-8.03-6.05-8.109-14.896h-.407c-.087 8.848-8.102 14.896-8.102 14.896s5.711 1.234 6.137.331c0 0 2.033 4.745 2.13 6.38h.068m6.562-24.849c-1.617 0-2.919 1.303-2.919 2.919 0 1.601 1.302 2.913 2.919 2.913 1.608 0 2.921-1.313 2.921-2.913 0-1.616-1.313-2.919-2.921-2.919zm-13.349 0c-1.608 0-2.921 1.303-2.921 2.919 0 1.601 1.313 2.913 2.921 2.913 1.616 0 2.911-1.313 2.911-2.913 0-1.616-1.295-2.919-2.911-2.919m9.638-3.225c0 1.616-1.313 2.911-2.919 2.911-1.616 0-2.921-1.295-2.921-2.911 0-1.608 1.305-2.921 2.921-2.921 1.606 0 2.919 1.313 2.919 2.921"/><path d="m181.52 53.67c.087-1.63 2.138-6.372 2.138-6.372.391.891 6.119-.33 6.119-.33s-8.01-6.071-8.101-14.906h-.417c-.07 8.835-8.092 14.906-8.092 14.906s5.737 1.221 6.145.33c0 0 2.026 4.742 2.113 6.372h.095m6.554-24.85c-1.625 0-2.92 1.309-2.92 2.912 0 1.621 1.295 2.929 2.92 2.929 1.599 0 2.93-1.308 2.93-2.929-.0001-1.604-1.332-2.912-2.93-2.912zm-13.35 0c-1.617 0-2.921 1.309-2.921 2.912 0 1.621 1.304 2.929 2.921 2.929s2.911-1.308 2.911-2.929c0-1.604-1.294-2.912-2.911-2.912m9.621-3.22c0 1.603-1.295 2.907-2.92 2.907-1.6 0-2.903-1.304-2.903-2.907 0-1.613 1.304-2.92 2.903-2.92 1.625 0 2.92 1.307 2.92 2.92"/><path d="m274.62 53.67c.078-1.63 2.129-6.372 2.129-6.372.409.891 6.138-.33 6.138-.33s-8.02-6.071-8.102-14.906h-.417c-.087 8.835-8.101 14.906-8.101 14.906s5.728 1.221 6.136.33c0 0 2.061 4.742 2.147 6.372h.07m6.553-24.85c-1.616 0-2.911 1.309-2.911 2.912 0 1.621 1.295 2.929 2.911 2.929 1.608 0 2.894-1.308 2.894-2.929 0-1.604-1.286-2.912-2.894-2.912zm-13.349 0c-1.616 0-2.895 1.309-2.895 2.912 0 1.621 1.278 2.929 2.895 2.929s2.928-1.308 2.928-2.929c0-1.604-1.311-2.912-2.928-2.912m9.647-3.22c0 1.603-1.321 2.907-2.92 2.907-1.626 0-2.92-1.304-2.92-2.907 0-1.613 1.294-2.92 2.92-2.92 1.599 0 2.92 1.307 2.92 2.92"/></g><g fill="#fdcc50"><path d="m134.81 54.31l4.08 2.75-3.92 4.35 10.44 7.383 14.34-13.463 13.05 6.95 3.04-3.05 4.35 2.61-15.65 16.08-13.06-6.089-2.61 3.056v26.08l5.53 4.05 4.33-4.34 4.06 2.46-17.38 20.87-4.06-2.61 4.19-4.64-10.14-6.8-3.03 3.18-3.63-2.03 5.36-5.36v-24.35l-10.87-8.11-4.63 3.91-3.05-2.31 19.26-20.58"/><path d="m222.06 61.56c0 17.962-27.666 8.401-27.666 8.401v19.856l12.872-12.894c1.174 5.215 12.769 8.399 12.769 8.399v23.472c-15.941 6.948-15.663 13.05-15.663 13.05-8.979-19.13-26.08-13.333-26.944-6.962-.869 6.384 6.944 7.244 6.944 7.244-13.897.578-12.167-8.683-12.167-8.683 0-17.391 31.3-10.734 31.3-10.734v-15.648l-10.143 10.147c-4.051-4.933-15.933-4.059-15.933-4.059 2.321-6.089.713-19.561.713-19.561l18.705-18.691c3.772 10.43 17.392 8.696 17.392 4.637s-5.51-5.214-5.51-5.214c12.751 0 13.333 7.244 13.333 7.244"/><path d="m325.3 115.1l-12.09-11.81-.57-25.51-7.66-7.64-5.33 5.33v23.4l2.72 3 4.17-3.79 3.27 2.97-16.67 15.21-8.1-8.26-4.15 4.13-3.04-2.61 4.79-4.64v-34.2l-5.81 5.8-3.32-3.34 16.58-16.59 9.28 9.279 12.1-12.09 16.09 14.775 3.91-3.92 2.75 2.76-4.64 5.07v25.66l3.73 4.11 3.98-3.65 3.09 3.08-15.08 13.48"/><path d="m245.83 68.66l10.422 7.966-11.733 11.88 1.311-19.846m11.31 36.37l-13.06-10.439 27.26-27.23-2.764-2.76-3.902 3.916-9.134-9.123-.722-4.789-28.701 23.763 3.477 2.62v23.754l-2.895 2.616 2.329 3.186 4.189-4.211 16.09 11.456 19.695-18.548-3.458-2.902-8.403 8.696z"/><path d="m67.59 83.58l12.168-17.821 10.439 17.821h-22.607m59.12 13.92c-3.476 2.599-8.257 0-8.257 0l-29.12-53.909c-9.126-16.966 12.177-15.658 12.177-15.658-22.607-9.13-26.09 5.653-26.09 5.653-18.687-9.13-26.943 11.738-26.943 11.738 1.294-2.168 5.215-6.088 10.864-6.088 5.65 0 15.654 19.573 15.654 19.573l-21.1 31.434c-14.915-1.965-35.03 1.043-33.819 20.411.869 13.929 16.271 13.16 16.271 13.16 6.083 0 7.831 6.088 7.831 6.088 2.6-5.649-.869-8.257-.869-8.257 4.494-3.046-.443-7.823-.443-7.823 1.312 4.342-4.05 5.359-4.05 5.359-13.837 1.308-13.524-7.232-13.524-7.232 0-10.473 18.687-11.151 18.687-11.151 26.09 0 14.349 17.279 14.349 17.279l3.043 3.042c3.485-6.097 23.483-20.435 23.483-20.435l-3.485-3.915-4.79 2.608c-3.563-3.934-12.03-6.684-14.931-7.54l2.477-2.165h28.699c0 0 11.725 18.691 12.594 21.729.878 3.051-3.476 10.439-3.476 10.439l2.181 2.608 24.553-25-1.955-1.946z"/><path d="m371.6 99.96l-4.885 4.237-7.371-5.332-.018-30.903 12.273 9.09v22.903m24.57-1.961l-4.01 3.846-4.051-3.771v-28.839l3.625-4.206-2.729-2.751-4.215 4.055-20.16-15.07-23.755 22.315 2.599 2.755 3.485-3.337-.147 28.404-5.354 4.776 3.042 2.612 3.903-3.329 13.194 10.135 11.949-11.08 10.301 10.585 15.201-14.05-2.887-3.048z"/><path d="m408.7 24.02c0 0-4.051-9.2-18.834-9.14-10.587.061-24.345 12.329-17.245 17.691 0 0 3.765 2.316 7.389 0 2.911-1.868 9.412-14.636 28.69-8.551m-10.43 7.245c0 0 7.527-4.776 13.63-1.013 0 0 8.526-17.292 21.876-2.325 0 0-13.618-6.084-12.176 6.666v60.14l5.935 5.649 5.146-4.859 3.199 3.042-16.671 16.236-11.09-10.938-4.772 4.341-2.764-2.607 4.65-4.341v-62.75c0 0-.158-6.38-6.963-7.243z"/><path d="m192.44 178.5h-109.79c-4.067 0-7.379 3.312-7.379 7.388h112.99l4.182-7.388"/><path d="m262.16 185.89h12.342c0-4.077-3.303-7.388-7.37-7.388h-21.634c5.919 1.712 11.517 4.224 16.662 7.388"/><path d="m279.04 182.1h-1.904c1.26 1.999 1.147 3.781 1.147 3.781h5.588c-1.467-2.607-3.181-3.781-4.831-3.781"/><path d="m289.33 180.68c-1.505.521-2.313 2.155-1.809 3.667.052.13 4.285 12.986-.043 27.796-.443 1.546.443 3.146 1.981 3.589 1.53.452 3.137-.426 3.58-1.956 4.858-16.652.158-30.707-.034-31.3-.512-1.511-2.164-2.319-3.675-1.798"/><path d="m284.48 208.03c1.521-7.795.755-14.55 0-18.869h-17.443c6.933 5.128 12.862 11.534 17.443 18.869"/><path d="m298.05 179.18c-1.53.479-2.392 2.095-1.904 3.625.044.148 4.329 14.418-.034 30.897-.435 1.548.504 3.13 2.05 3.539 1.549.408 3.13-.504 3.547-2.053 4.808-18.15.156-33.461-.043-34.1-.47-1.521-2.096-2.372-3.616-1.904"/><path d="m306.61 180.68c-1.513.521-2.321 2.155-1.81 3.667.043.13 4.286 12.986-.043 27.796-.443 1.546.434 3.146 1.965 3.589 1.556.452 3.156-.426 3.599-1.956 4.858-16.652.165-30.707-.035-31.3-.513-1.511-2.165-2.319-3.676-1.798"/><path d="m164.93 280.84l2.833-1.616c-.913-1.574-1.739-3.13-2.538-4.642-4.572-9.179-7.154-19.504-7.154-30.438 0-5.954.765-11.724 2.182-17.235h-3.364c-1.364 5.52-2.086 11.299-2.086 17.235 0 1.295.043 2.59.104 3.859-2.729-10.917-2.712-18.47-2.599-21.09h-3.293c-.261 5.137-.043 23.659 13.28 49.12.817 1.633 1.686 3.233 2.634 4.796v.011"/><path d="m125.14 217.89h34.662c.435-1.112.895-2.199 1.391-3.285-6 0-26.892 0-40.816 0 0 .0001.409 3.285 4.763 3.285m36.08 5.746h-36.548c-8.213 0-10.273-4.928-10.273-4.928-9.239 0-11.16-7.379-11.16-7.379h63.23c-2.138 3.884-3.912 8-5.25 12.307z"/><path d="m326.32 198.21c0-2.946-2.398-5.345-5.347-5.345-2.937 0-5.336 2.398-5.336 5.345 0 2.947 2.399 5.329 5.336 5.329 2.949.0001 5.347-2.381 5.347-5.329"/><path d="m224.01 155.08c2.841 0 5.614 0 7.579 0-.721 1.234-1.686 2.946-2.764 4.823l-4.815-4.823m1.868 10.05l-10.05-10.05c1.382 0 3.042 0 4.798 0l6.987 6.97c-.582 1.026-1.165 2.06-1.738 3.077zm-18.348 10.778l-4.468-4.476c.478-.869.964-1.721 1.46-2.582l6.24 6.25c-1.077.242-2.146.503-3.232.808m-8.718 3.02c.913-1.599 1.938-3.424 3.03-5.354l3.077 3.095c-2.069.651-4.101 1.398-6.11 2.259m12.08-26.317l-18.17 32.06c8.909-5.05 19.03-8.17 29.864-8.77l13.201-23.293h-24.892"/><path d="m219.08 232.14l-28.422-28.395c-1.634 1.442-3.172 2.998-4.624 4.623l28.396 28.421c1.165-1.894 2.747-3.493 4.65-4.649"/><path d="m212.36 244.15c0-1.129.13-2.225.392-3.277h-40.18c-.078 1.077-.113 2.181-.113 3.277 0 1.104.035 2.199.113 3.285h40.18c-.262-1.051-.392-2.155-.392-3.285"/><path d="m238.43 236.79l28.422-28.421c-1.452-1.625-3.01-3.18-4.658-4.623l-28.404 28.395c1.884 1.155 3.484 2.754 4.64 4.649"/><path d="m226.44 230.07c1.112 0 2.216.14 3.277.393v-40.17c-1.096-.077-2.191-.112-3.277-.112-1.121 0-2.208.035-3.285.112v40.17c1.042-.253 2.138-.393 3.285-.393"/><path d="m214.43 251.51l-28.396 28.405c1.452 1.642 2.99 3.198 4.624 4.641l28.422-28.405c-1.903-1.164-3.485-2.755-4.65-4.641"/><path d="m280.29 240.87h-40.16c.243 1.052.391 2.147.391 3.277 0 1.13-.147 2.234-.391 3.285h40.16c.078-1.086.104-2.182.104-3.285.0001-1.096-.025-2.2-.104-3.277"/><path d="m226.44 258.22c-1.147 0-2.242-.139-3.285-.383v40.18c1.077.062 2.164.095 3.285.095 1.086 0 2.182-.033 3.277-.095v-40.18c-1.061.244-2.165.383-3.277.383"/><path d="m233.79 256.15l28.404 28.405c1.652-1.443 3.206-3 4.658-4.641l-28.422-28.405c-1.155 1.886-2.755 3.477-4.64 4.641"/><path d="m212.56 249.88h-39.79c1.122 10.603 5.293 20.286 11.656 28.14l28.13-28.14"/><path d="m232.17 190.48v39.791l28.15-28.13c-7.877-6.346-17.542-10.536-28.15-11.657"/><path d="m220.69 190.48c-10.587 1.121-20.269 5.312-28.13 11.656l28.13 28.13v-39.79"/><path d="m212.56 238.4l-28.13-28.13c-6.363 7.866-10.534 17.539-11.656 28.13h39.79"/><path d="m220.69 258.01l-28.13 28.14c7.858 6.344 17.54 10.534 28.13 11.655v-39.798"/><path d="m240.3 238.4h39.789c-1.112-10.595-5.301-20.269-11.654-28.13l-28.13 28.13"/><path d="m240.3 249.88l28.13 28.14c6.354-7.857 10.542-17.54 11.654-28.14h-39.789"/><path d="m232.17 258.01v39.798c10.603-1.121 20.268-5.312 28.15-11.655l-28.15-28.14"/><path d="m226.44 232.68c-6.344 0-11.473 5.136-11.473 11.464 0 6.336 5.128 11.473 11.473 11.473 6.327 0 11.456-5.137 11.456-11.473 0-6.328-5.129-11.464-11.456-11.464m8.613 11.464c0 4.763-3.859 8.604-8.613 8.604-4.771 0-8.639-3.841-8.639-8.604 0-4.755 3.868-8.623 8.639-8.623 4.754 0 8.613 3.868 8.613 8.623z"/><path d="m226.44 238.93c-2.886 0-5.223 2.336-5.223 5.214 0 2.886 2.337 5.215 5.223 5.215 2.868 0 5.206-2.33 5.206-5.215 0-2.878-2.338-5.214-5.206-5.214"/><path d="m226.44 185.9c-32.18 0-58.25 26.07-58.25 58.24 0 32.16 26.07 58.24 58.25 58.24 32.16 0 58.23-26.08 58.23-58.24 0-32.17-26.07-58.24-58.23-58.24m64.16 58.24c0 35.444-28.735 64.18-64.16 64.18-35.461 0-64.19-28.733-64.19-64.18 0-35.436 28.726-64.17 64.19-64.17 35.426 0 64.16 28.733 64.16 64.17z"/><path d="m173.65 195.72h-87.82c-.913 0-1.643-.73-1.643-1.634 0-.904.729-1.651 1.643-1.651 33.03 0 80.988 0 91.05 0-1.112 1.069-2.181 2.165-3.233 3.285m-138.62 16.227c-.834.382-1.808.027-2.191-.798-7.01-15.228-.121-24.902.174-25.302.53-.73 1.547-.887 2.278-.348.738.53.895 1.546.365 2.286-.243.339-6.01 8.597.174 21.989.373.818.017 1.8-.8 2.173zm15.627-22.789v.825h-1.347c-.835 0-1.521.653-1.608 1.487-.739-1.096-1.66-1.747-2.651-1.747-.574 0-1.121.226-1.625.607-1.529-5.466-4.554-9.186-8.02-9.186-5.03 0-9.118 7.813-9.118 17.453 0 9.638 4.085 17.453 9.118 17.453 3.468 0 6.493-3.721 8.02-9.188.504.383 1.052.608 1.625.608.991 0 1.912-.652 2.651-1.747.087.827.773 1.486 1.608 1.486h1.347v.816h117.73c4.59-7.326 10.517-13.741 17.435-18.869h-135.16z"/><path d="m341.04 273.39c0 0 0 0 0 .008-.008.008-1.199 3.868-1.226 3.876 0 0 0 .009.026.009.069.027 21.921 6.762 21.98 6.789 0 0 .02 0 .02-.001.008-.034 1.182-3.85 1.182-3.876 0-.008 0-.008 0-.008-.009-.009-21.964-6.78-21.982-6.788"/><path d="m301.68 261.27c-.008 0-.008 0-.008 0 0 .017-1.19 3.885-1.19 3.894 0 .008 0 .008 0 .008.068.026 21.921 6.771 21.988 6.789.011-.043 1.191-3.868 1.201-3.904v-.008c-.001-.008-21.991-6.779-21.991-6.779"/><path d="m380.4 285.51h-.009c-.008.008-1.174 3.877-1.19 3.895 0 0 0 .009.017.009.054.017 21.895 6.762 21.965 6.778.017-.035 1.208-3.849 1.208-3.885v-.009c-.019-.007-21.973-6.788-21.991-6.788"/><path d="m405.54 293.26l-1.217 3.902c-.521 1.722-2.372 2.703-4.11 2.173l-21.989-6.788c-1.713-.538-2.694-2.389-2.173-4.11l1.208-3.903c.538-1.72 2.381-2.702 4.119-2.163l21.989 6.788c1.74.539 2.695 2.381 2.173 4.101m-39.37-12.12l-1.191 3.91c-.547 1.729-2.399 2.694-4.119 2.172l-21.999-6.787c-1.722-.547-2.704-2.381-2.164-4.111l1.199-3.901c.539-1.73 2.373-2.704 4.102-2.173l22.01 6.787c1.721.539 2.694 2.39 2.164 4.103zm-39.36-12.11l-1.217 3.894c-.531 1.722-2.373 2.712-4.111 2.164l-21.99-6.779c-1.721-.539-2.686-2.381-2.163-4.111l1.199-3.901c.529-1.713 2.382-2.704 4.102-2.173l22.01 6.795c1.722.53 2.695 2.381 2.173 4.111m-2.052-10.977c-8.778-2.694-12.429-3.825-12.429-9.482h-17.696c-.538 8.248-2.52 16.11-5.736 23.311l117.12 36.14 19.01-19.02-100.27-30.95"/><path d="m425.94 292.73l-13.75 13.769 8.258-1.313c1.868-1.869 4.536-4.53 8.969-8.979l-3.477-3.477"/><path d="m183.74 424.5c-.043-.044-.113-.095-.165-.122-1.095-.687-10.855-6.562-15.914-3.937-1.191.625-2.66 2.01-2.851 5.05-.026.792-.226 7.581 3.225 9.987.938.644 2.772 1.32 5.319 2.26 4.824 1.765 13.645 5.01 13.95 8.473-4.311 4.173-13.358-.295-13.445-.328-.443-.218-.974-.209-1.374.051-.434.253-.678.714-.678 1.191 0 6.336 5.606 10.212 9.657 10.212 5.684 0 7.596-5.492 8.535-9.716 1.295-1.079 2.807-3.442 1.764-6.998-.409-1.312-4.03-12.75-8.02-16.12"/></g><path fill="#009e4e" d="m190.4 441.02c0 0-3.782-12.236-7.571-15.444 0 0-16.02-9.917-16.609 0 0 0-.278 6.702 2.616 8.744 2.876 1.999 20.667 5.979 19.877 12.48.0001 0 2.922-1.652 1.687-5.78"/><path fill="#fff" d="m188.66 447.13c-1.46 6.719-3.99 8.797-7.205 8.797-3.19 0-8.249-3.234-8.249-8.797 0 .008 10.561 5.354 15.48-.304l-.026.304"/><path fill="#009e4e" d="m188.43 447.34c0 0-3.547 6.944-12.785 2.276 0 0 .678 3.537 7.222 3.537 0 .0001 4.676-.268 5.563-5.813"/><path fill="#fdcc50" d="m169.93 423.64c0 0 1.66 2.677 4.875 4.111 3.233 1.425 3.407 1.642 4.615 3.085 1.191 1.427-1.625-4.885-2.989-6.084 0 0-2.825-1.799-4.398-4.58 0 0-1.425 2.459-2.338 3.103-.939.652.235.365.235.365"/><path fill="#fff" d="m215.18 371.09l-.443.146c-.592.444-6.832.878-6.832.878-1.104-.008-2.121-.062-3.121-.147-1.711-.747-9.499-4.555-10.142-11.941 0 0-.191-1.427.608-2.409.521-.313 1.01-.679 1.478-.86.243-.052.521-.087.825-.087 3.355 0 3.068 1.599 3.19 2.19 0 0-.122-7.284-6.249-7.284-6.119 0-7.588 4.224-7.588 8.589 0 0-.26 2.668 2.199 5.519-6.519-5.685-9.509-13.784-14.332-18.522-.174-.183-.356-.356-.539-.53-.739-.686-1.356-1.155-1.895-1.469-.034-.025-.104-.043-.147-.078-.017-.009-.069-.034-.096-.052-1.799-1.104-3.894-1.764-6.449-1.764-8.274 0-9.126 6.336-9.04 9.412 0 .974.148 1.659.148 1.659s1.164-2.477 3.068-2.477c1.895 0 3.79 1.156 4.945 1.156.252 0 .661-.469 1.191-1.164 1.226 1.172 2.078 2.658 2.304 3.649.435 1.904 0 5.547 0 10.05 0 4.528 6.275 5.406 6.275 5.406-16.906 4.354-15.455 19.512-15.455 24.317 0 4.815 3.868 13.837 3.781 16.18-.139 4.373-3.042 5.103-5.666 5.252-2.616.13-4.242-3.355-4.242-3.355-3.477 7.57 1.625 13.984 8.465 14.279 6.841.287 10.5-5.832 10.5-5.832 3.189 5.685 7.7 4.659 7.7 4.659 12.968-.721 7.587-15.871 7.587-15.871-.729 3.207-6.127 2.903-6.127 2.903s.453 0 .583 0c-9.839-.078-8.735-14.993-8.735-14.993-.295-17.201 12.524-22.589 19.521-22.729 6.997-.147 17.04 3.199 23.893-2.485l-1.163-2.189"/><g fill="#fdcc50"><path d="m210.37 373.14c0 0-17.331 5.824-34.531-18.505 0 0 4.077 8.597 5.536 9.622 0 0-5.536-1.755-7.579-2.051 0 0 5.658 2.355 6.709 3.503 1.591 1.746 2.616 2.764 4.815 3.789 0 0-27.995-.435-16.05 39.34 0 0-9.448-34.384 18.956-35.696 7.72-.138 16.889 4.512 22.15 0"/><path d="m169.04 419.05c-.678 3.58-4.397 5.875-8.327 5.137-3.902-.74-6.518-4.241-5.832-7.814.0001-.0001 6.64 8.683 14.159 2.677"/><path d="m172.85 419.69c1.208 3.434 5.232 5.153 8.987 3.806 3.763-1.311 5.832-5.179 4.615-8.612.0001-.0001-5.266 9.585-13.602 4.806"/></g><g fill="#009e4e"><path d="m172.55 418.52c1.208 3.432 5.241 5.136 8.996 3.814 3.772-1.321 5.824-5.181 4.624-8.621 0 0-5.285 9.586-13.62 4.807"/><path d="m194.64 360.02c0 0-.148-1.079.347-2.01l-.887.113c-1.329 0-.678-2.625-4.189-2.625-1.435 0-2.243.765-2.712 1.679-.201.955-.296 1.963-.296 2.981 0 0-.113 1.398.73 3.25.174-1.026 1.661-2.363 3.442-2.363 1.26 0 3.077 1.303 4.494 2.547-.477-1.078-.826-2.269-.929-3.572"/><path d="m174.77 347.16c-.539-.451-1.086-.773-1.6-.99-2.867-.773-5.614 3.521-7.213 5.685.808.773 1.435 1.685 1.86 2.493-.443-1.451 2.338-3.059 3.945-3.059 1.843 0 6.188 2.085 8.613 3.328-1.816-2.798-3.537-5.432-5.605-7.457"/><path d="m168.74 420.22c-.669 3.582-4.398 5.875-8.31 5.137-3.911-.738-6.536-4.241-5.849-7.822 0 0 6.649 8.682 14.159 2.685"/></g><path fill="#fdcc50" d="m272.15 424.5c.061-.044.104-.095.174-.122 1.094-.687 10.863-6.562 15.896-3.937 1.209.625 2.685 2.01 2.869 5.05.025.792.217 7.581-3.233 9.987-.93.644-2.772 1.32-5.319 2.26-4.833 1.765-13.638 5.01-13.941 8.473 4.302 4.173 13.342-.295 13.446-.328.434-.218.956-.209 1.382.051.391.253.668.714.668 1.191 0 6.336-5.622 10.212-9.681 10.212-5.667 0-7.579-5.492-8.527-9.716-1.295-1.079-2.799-3.442-1.756-6.998.39-1.312 4.03-12.75 8.02-16.12"/><path fill="#009e4e" d="m265.49 441.02c0 0 3.782-12.236 7.563-15.444 0 0 16.04-9.917 16.609 0 0 0 .295 6.702-2.616 8.744-2.86 1.999-20.66 5.979-19.868 12.48-.0001 0-2.922-1.652-1.688-5.78"/><path fill="#fff" d="m267.23 447.13c1.46 6.719 3.98 8.797 7.18 8.797 3.215 0 8.265-3.234 8.265-8.797 0 .008-10.56 5.354-15.479-.304l.034.304"/><path fill="#009e4e" d="m267.47 447.34c0 0 3.546 6.944 12.776 2.276 0 0-.678 3.537-7.248 3.537 0 .0001-4.659-.268-5.528-5.813"/><path fill="#fdcc50" d="m285.97 423.64c0 0-1.649 2.677-4.883 4.111-3.243 1.425-3.406 1.642-4.607 3.085-1.199 1.427 1.601-4.885 2.991-6.084 0 0 2.807-1.799 4.38-4.58 0 0 1.416 2.459 2.355 3.103.93.652-.236.365-.236.365"/><path fill="#fff" d="m240.72 371.09l.426.146c.583.444 6.849.878 6.849.878 1.086-.008 2.103-.062 3.12-.147 1.704-.747 9.492-4.555 10.152-11.941 0 0 .174-1.427-.617-2.409-.53-.313-1.01-.679-1.486-.86-.252-.052-.521-.087-.834-.087-3.338 0-3.051 1.599-3.188 2.19 0 0 .138-7.284 6.265-7.284 6.119 0 7.57 4.224 7.57 8.589 0 0 .27 2.668-2.207 5.519 6.528-5.685 9.534-13.784 14.35-18.522.174-.183.348-.356.538-.53.749-.686 1.349-1.155 1.896-1.469.044-.025.096-.043.14-.078.017-.009.06-.034.112-.052 1.8-1.104 3.885-1.764 6.449-1.764 8.274 0 9.108 6.336 9.03 9.412 0 .974-.139 1.659-.139 1.659s-1.182-2.477-3.076-2.477c-1.887 0-3.78 1.156-4.937 1.156-.261 0-.67-.469-1.182-1.164-1.252 1.172-2.095 2.658-2.33 3.649-.435 1.904 0 5.547 0 10.05 0 4.528-6.249 5.406-6.249 5.406 16.887 4.354 15.427 19.512 15.427 24.317 0 4.815-3.858 13.837-3.78 16.18.148 4.373 3.051 5.103 5.685 5.252 2.616.13 4.224-3.355 4.224-3.355 3.504 7.57-1.607 13.984-8.438 14.279-6.867.287-10.5-5.832-10.5-5.832-3.208 5.685-7.727 4.659-7.727 4.659-12.958-.721-7.57-15.871-7.57-15.871.729 3.207 6.119 2.903 6.119 2.903s-.453 0-.592 0c9.839-.078 8.736-14.993 8.736-14.993.304-17.201-12.518-22.589-19.513-22.729-7.01-.147-17.06 3.199-23.895-2.485l1.173-2.189"/><g fill="#fdcc50"><path d="m245.53 373.14c0 0 17.33 5.824 34.514-18.505 0 0-4.058 8.597-5.527 9.622 0 0 5.527-1.755 7.578-2.051 0 0-5.666 2.355-6.692 3.503-1.616 1.746-2.642 2.764-4.832 3.789 0 0 27.979-.435 16.04 39.34 0 0 9.466-34.384-18.919-35.696-7.737-.138-16.908 4.512-22.16 0"/><path d="m286.85 419.05c.662 3.58 4.39 5.875 8.31 5.137 3.911-.74 6.536-4.241 5.857-7.814 0-.0001-6.656 8.683-14.167 2.677"/><path d="m283.04 419.69c-1.21 3.434-5.242 5.153-8.997 3.806-3.762-1.311-5.823-5.179-4.605-8.612 0-.0001 5.266 9.585 13.602 4.806"/></g><g fill="#009e4e"><path d="m283.33 418.52c-1.215 3.432-5.24 5.136-8.986 3.814-3.78-1.321-5.84-5.181-4.614-8.621 0 0 5.267 9.586 13.6 4.807"/><path d="m261.27 360.02c0 0 .131-1.079-.365-2.01l.888.113c1.339 0 .66-2.625 4.18-2.625 1.442 0 2.251.765 2.721 1.679.208.955.286 1.963.286 2.981 0 0 .131 1.398-.729 3.25-.182-1.026-1.659-2.363-3.434-2.363-1.251 0-3.067 1.303-4.502 2.547.486-1.078.825-2.269.955-3.572"/><path d="m281.12 347.16c.538-.451 1.078-.773 1.599-.99 2.868-.773 5.615 3.521 7.232 5.685-.809.773-1.452 1.685-1.878 2.493.435-1.451-2.346-3.059-3.946-3.059-1.842 0-6.197 2.085-8.604 3.328 1.807-2.798 3.546-5.432 5.597-7.457"/><path d="m287.14 420.22c.678 3.582 4.406 5.875 8.316 5.137 3.922-.738 6.528-4.241 5.859-7.822.0001 0-6.675 8.682-14.175 2.685"/></g><g fill="#e12128"><path d="m220.95 382.72c-1.953-.195-3.094-1.324-4.511-2.74-.585-.581-1.429-.798-2.124-.869h-24.855v38.07h31.49v-34.46"/><path d="m234.95 417.18h31.473v-38.07h-23.615c-3.31-.134-5.414 3.096-7.857 3.785v34.28"/></g><path fill="#fdcc50" d="m267.99 423.28v-46.14h-26.401c-.791-.288-1.746-.745-2.143-1.373-.722-1.182-1.407-2.755-3.303-2.607 2.6-2.146 4.242-5.345 4.242-8.908 0-6.494-5.154-11.456-11.855-11.456-6.727 0-13.611 4.823-13.611 11.308 0 .957-.182 1.879.044 2.773l10.786 1.01c0 0 2.338.147 2.338-1.739 0-1.894-2.199-.885-2.199 0 0 0-.278-1.746 1.33-1.746 1.599 0 1.895.722 1.895 2.182 0 1.451-1.164 2.624-3.224 2.624-2.034 0-8.726-.868-8.726-.868l.417.287c-.052 1.912 1.216 3.215 2.434 4.275 0 0-2.139 1.112-3.138 2.268-.743.857-1.485 1.617-2.504 1.974h-26.474v40.04 6.101c0 0-2.964 33.706 39.703 51.968l.348.155.322-.155c42.657-18.264 39.719-51.97 39.719-51.97m-25.19-44.17h23.615v38.07h-31.473v-34.28c2.444-.689 4.548-3.919 7.858-3.785m-53.35 0h24.855c.694.071 1.539.288 2.124.869 1.417 1.416 2.558 2.545 4.511 2.74v34.46h-31.49v-38.07m-.014 46.08h31.504v44.4c-28.559-15.14-31.32-37.923-31.504-44.4m45.506 44.4v-44.4h31.487c-.183 6.474-2.936 29.25-31.487 44.4"/><path fill="#009e4e" d="m232.95 382.8c-1.337-.541-2.463-1.85-4.719-1.803-2.647.067-3.436 1.221-5.293 1.621v36.562h-33.48v4.242c0 0-2.09 28.366 31.49 46.17v-44.4h14v44.4c33.57-17.806 31.473-46.17 31.473-46.17v-4.242h-33.472v-36.38"/><g fill="#fdcc50"><path d="m201.59 394.34c0 .653-.53 1.191-1.182 1.191l-3.425-.018v-2.826h-5.093v11.17h5.093v-2.234l3.346-.009c.66 0 1.19.531 1.19 1.183l-.017 3.39h-2.233v5.093h11.16v-5.093h-2.807l-.018-3.354c0-.651.53-1.19 1.182-1.19l3.459-.019v2.234h5.085v-11.17h-5.085v2.826l-3.39-.027c-.661 0-1.182-.521-1.182-1.182l.018-3.38h2.816v-5.103h-11.177v5.103h2.243l.017 3.415"/><path d="m252.02 384.32c.365 0 .661-.113.661-.271 0-.131-.296-.252-.661-.252-.383 0-.676.121-.676.252 0 .157.293.271.676.271m2.209 8.221c.035.521-.713 1.459-.635 3.285.061 1.816 1.73 3.634 2.252 4.807.495 1.165 2.172 1.931 3.485 1.895 2.555-.078-.286-4.232-.286-6.563 0-.869-.809-1.086-.809-1.086-.436-1.033-.931.288-.931.288-.165-1.384.931-1.321.931-1.321-.365-2.104-1.174-1.436-1.174-1.436.738-1.911 2.347 3.112 1.46.356-1.173-3.719-.131-4.075-.356-5.701-.217-1.59 2.268-2.391 1.964-2.313-.295.061-.442 1.018-.442 1.452s-.278.435 1.095.374c1.391-.078 1.043.355.522 1.521-.522 1.164-.809 1.312-1.175 2.26-.373.946.304 1.163.304 1.163 1.452-.659 1.965 1.965 1.965 1.965-1.094-1.234-1.902 0-1.902 1.017 0 1.026 1.329 5.103 1.329 6.562 0 1.461-.461 2.921-2.068 3.122-1.591.226-3.12-1-3.633-1-.504 0-.8.574-.8.574s0 1.017.452 1.747c.426.729 1.573.582 2.39 1.018.801.442.443 1.017-.365 1.389-.799.357-.218.505-.582 1.018-.356.505-.356.583-2.172 2.625-1.836 2.044-1.531 4.225-1.531 4.225-.965-.816-.668-2.624-.668-2.624-1.827 1.528-1.827 2.182-1.827 2.182-.286-1.825 1.112-3.938 1.112-3.938-.965.078-1.99.729-1.99.729.157-1.814 4.451-3.197 4.451-4.074 0-.87 1.183-1.087-1.896-1.087-3.05 0-.217-5.102-.938-5.102-.739 0-1.617 1.155-1.234 1.599.365.443 0 1.174 0 1.965 0 .808-1.025 1.677-2.277 1.755-1.226.07-1.809-.364-2.242-.442-.452-.063.355-.366-1.096-.296-1.468.079-2.702 2.051-2.702 2.051-.435-1.174 1.32-2.693 1.32-2.693-1.755-.296-2.267.208-2.267.208.512-1.965 2.91-1.738 2.91-1.738.079-1.32-1.738-1.974-1.738-1.974 1.47-1.381 4.798 2.617 5.745 2.617.957 0-.139-2.617-.853-3.556-.746-.955.558-2.485 2.174-2.711 1.599-.209 2.547 1.173 2.547 1.173-.287-.73-.147-2.043-1.382-2.182-1.252-.148-1.383-1.024-1.966-1.321-.581-.286-1.373.661-2.042.739-.651.069-1.895-.139-2.181.069-.305.226-.644.651-1.373.729-1.921.201-1.904 1.678-1.904 1.678-.738-.886.87-2.182.87-2.182-2.034-.521-3.051.729-3.051.729-.296-1.824 2.894-2.259 2.894-2.259-.139-.947-2.321-.947-2.321-.947 1.452-1.677 4.01.217 4.66.217.659 0 .8-.878 1.668-.878.887 0 1.251-.582 1.104-1.312-.146-.722-.295-.14-1.164-.436-.878-.286-1.461-1.164-1.521-2.043-.086-.868.687-1.868-.635-2.01-1.304-.139-.478-.46-1.494-1.486-1.01-1.017-2.173-.068-2.173-.068.06-1.687 2.764-1.391 2.764-1.391s.218.868.218 0c0-.879-1.451-2.694-1.451-2.694 1.451 0 2.771 1.746 2.771 1.746.861-.869-.373-2.399-.373-2.399 1.746 0 1.59 4.451 1.59 5.382 0 .955 1.772 3.076 2.564 3.076.79 0 .722.06 1.747-.817 1.025-.87.435.659 1.66-.574 1.244-1.233-.427-.66-.427-.66-1.895.078-2.033-1.529-2.033-1.529 0 .505 1.955.434 1.955-1.018 0-1.46-2.98-.217-2.98-.217 0-.878 1.46-1.521 1.46-1.521 1.643-.442 1.304-1.877 3.711-1.617l.799-.295.297-.573c0 0 .287-1.025.74.939.426 1.972.494.599.799 2.477.278 1.886.582 2.693.199 3.512 0 0-.199-1.539-.572-.73 0 0 .373 1.156 0 2.32 0 0-.661-2.112-.731-.722-.068 1.382.522 1.817.365 2.398-.149.581-1.019-2.547-.88.581z"/><path d="m214.6 436.71c3.346-1.598 4.138-5.03 4.138-5.03-2.399 1.392-9.317 2.406-10.196 2.268 0 0-.104-.052-.503-.226-1.035-.425.99-2.042 1.016-3.347.078-3.05-2.616-2.902-2.616-2.902-3.354 0-1.755 1.816-4.598 2.321l1.817.868-1.469 1.313 2.138-.296c0 0 .2.738.487.877.313.148.166 1.244-.713 1.391-.869.139-7.788-.876-10.204-2.268 0 0 .799 3.434 4.155 5.03 0 0-2.33.139-3.355-.434 0 0 2.13 3.128 4.746 3.789 0 0-.6.651-2.842.07 0 0 2.764 3.215 5.762 3.648 0 0-2.703.357-3.521 0 0 0 2.503 1.931 4.694 2.635-.817.878-1.756 1.886-1.904 2.042-.321-.156-2.433-1.085-2.433-1.085l-1.208-.027v.574h1.078c0 .017.131.078.331.155l-.748.818.417.391c0 0 .322-.321.6-.643.061.503.14 1.077.14 1.077l.582-.079-.147-1.163c.661.295 1.331.591 1.331.591l.191.095 2.094-2.233c-.156.938-.625 3.625-1.791 6.675 0 0 5.084-1.303 8.361.07-1.01-2.65-1.434-5.067-1.599-6.285l1.93 2.052 1.556-.679-.166 1.166.565.087c0 0 .087-.592.157-1.069.295.313.6.635.6.635l.426-.392-.747-.799.425-.201.983.026v-.573h-1.087c-.13.026-2.095.895-2.547 1.087-.173-.149-1.251-1.304-2.103-2.199 2.243-.635 4.972-2.748 4.972-2.748-.817.357-3.494 0-3.494 0 2.981-.434 5.754-3.648 5.754-3.648-2.26.581-2.842-.07-2.842-.07 2.617-.661 4.737-3.789 4.737-3.789-1.029.573-3.35.434-3.35.434"/><path d="m243.48 443.89l-2.104-9.813 4.73-.243c0 .842.643 1.504 1.494 1.504.825 0 1.504-.678 1.504-1.513 0-.044-.027-.087-.027-.131l5.03-.252-.826 8.196-9.796 2.252m12-1.391c-.34 0-.661.07-.956.183l1.286-10.596h-16.827l3.449 13.12c-.372-.148-.772-.235-1.199-.235-1.703 0-3.103 1.383-3.103 3.086s1.399 3.095 3.103 3.095c1.713 0 3.095-1.392 3.095-3.095 0-.156-.034-.295-.052-.442h.018l-.026-.122c-.009-.054-.025-.087-.025-.13l-.314-1.443 9.198-2.895-.148 1.487c-.045.182-.07.355-.07.564 0 1.416 1.156 2.581 2.573 2.581s2.59-1.165 2.59-2.581c-.003-1.426-1.175-2.582-2.592-2.582z"/><path d="m219.64 348.81h16.61v3.929h-16.61z"/><path d="m232.93 342.31h-3.48v-4.08h-3v4.08h-3.51v2.55h3.51v4.84h3v-4.84h3.48v-2.55"/></g><path fill="#fff" d="m219.64 352.44h16.606v2.626h-16.606z"/><g fill="#009e4e"><path d="m219.64 352.44h4.52v2.626h-4.52z"/><path d="m228.37 352.44h4.094v2.626h-4.094z"/></g><g fill="#fdcc50"><path d="m194.13 457.62c0 0-16.228-.295-16.566 6.634v12.308c0 0 6.389-3.485 16.566-3.485v-15.457"/><path d="m261.74 457.62c0 0 16.252-.295 16.592 6.634v12.308c0 0-6.406-3.485-16.592-3.485v-15.457"/></g><path fill="#fff" d="m228.25 472.48c46.596 0 50.08-7.274 50.08-7.274v13.975c0 0-3.485 7.294-50.08 7.294h-.608c-46.604 0-50.09-7.294-50.09-7.294l.008-13.975c0 0 3.477 7.274 50.08 7.274h.608"/><g fill="#fdcc50"><path d="m189.3 481.48l1.42-9.08 4.95.77-.22 1.4-3.05-.48-.34 2.24 2.8.43-.21 1.4-2.82-.44-.41 2.65 3.16.49-.22 1.4-5.06-.78"/><path d="m183.55 478.9l.904.183c1.138.243 1.547-.557 2.033-2.809.348-1.659.661-3.12-.651-3.389l-.965-.21-1.321 6.225m-.269-8.01l3.137.67c2.46.521 2.574 2.259 1.982 5.066-.296 1.373-.756 4.572-3.972 3.895l-3.051-.652 1.904-8.979z"/><path d="m203.05 474.02l-.712 6.466c-.157 1.373-1.078 2.721-3.416 2.469-2.086-.235-2.981-1.435-2.79-3.155l.722-6.467 1.903.209-.704 6.345c-.122 1.121.313 1.625 1.01 1.704.825.087 1.269-.427 1.381-1.436l.705-6.345 1.903.21"/><path d="m206.31 483.64c-2.364-.183-2.704-1.608-2.495-3.182l1.921.13c-.061.887-.078 1.626.965 1.695.651.052 1-.339 1.043-.974.121-1.634-3.72-2.024-3.521-4.753.104-1.427.878-2.522 3.208-2.349 1.859.141 2.729 1.045 2.46 2.948l-1.861-.14c.044-.679-.017-1.391-.782-1.444-.625-.043-1.016.271-1.068.897-.122 1.737 3.737 1.867 3.52 4.753-.165 2.366-1.93 2.525-3.39 2.419"/><path d="m216.16 478.88l1.069.035c.565.017.982-.591.999-1.198.036-.749-.156-1.392-1.016-1.427l-.965-.035-.087 2.625m-1.782-4.101l3.452.121c1.755.061 2.408 1.147 2.355 2.824-.034 1.034-.399 2.687-2.65 2.607l-1.417-.052-.139 3.746-1.913-.078.312-9.168z"/><path d="m221.39 484.18l.1-9.19 5 .05-.001 1.42-3.09-.03-.03 2.26 2.85.03-.001 1.41-2.86-.03-.02 2.68 3.2.04-.02 1.4-5.11-.04"/><path d="m229.59 479l.853-.008c.756 0 .974-.766.965-1.356 0-.87-.374-1.199-.99-1.199l-.844.009.016 2.554m.035 5.215l-1.911.009-.079-9.18 3.546-.026c1.313-.017 2.154.827 2.172 2.392.009 1.173-.443 2.051-1.686 2.268v.018c.417.053 1.668.14 1.678 1.8.008.573.052 2.312.242 2.686l-1.885.017c-.261-.556-.218-1.183-.218-1.782-.008-1.095.079-2.02-1.392-2.01l-.493.008.026 3.797z"/><path d="m241.94 479.34c-.087-2.347-.261-3.354-1.348-3.32-1.077.044-1.182 1.069-1.095 3.416.086 2.356.278 3.354 1.347 3.319 1.078-.043 1.182-1.06 1.096-3.415m-4.389.166c-.089-2.426-.176-4.729 2.989-4.859 3.163-.112 3.241 2.199 3.345 4.623.089 2.4.176 4.747-2.98 4.858-3.171.123-3.258-2.215-3.354-4.622z"/><path d="m245.74 483.79l-.66-9.15 3.08-.22 1.88 6.11h.02l1.08-6.34 2.98-.21.66 9.16-1.86.14-.51-7.07h-.03l-1.25 7.19-1.82.13-2.19-6.94-.03.001.52 7.06-1.87.13"/><path d="m256.61 482.95l-1.11-9.11 2.58-.32 3.19 6.03h.001l-.74-6.33 1.76-.21 1.1 9.11-2.5.3-3.29-6.36-.03.001.81 6.67-1.78.21"/><path d="m265.22 481.82l-1.48-9.06 1.9-.31 1.48 9.06-1.9.31"/><path d="m270.34 473.34h-.017l-.019 4.068 1.791-.392-1.755-3.676m-2.034 8.02l.53-9.501 2.478-.548 4.381 8.44-1.965.426-.938-1.878-2.556.564-.07 2.095-1.86.402z"/></g></svg>
