<svg xmlns="http://www.w3.org/2000/svg" xmlns:xlink="http://www.w3.org/1999/xlink" viewBox="0 0 336 337">
  <defs>
    <path id="a" d="M0 0h336.01v337.2H0z"/>
    <clipPath id="b">
      <use xlink:href="#a"/>
    </clipPath>
  </defs>
  <path clip-path="url(#b)" fill="#fff" d="M327.83 40.99c4.51 0 8.182 3.67 8.182 8.177 0 .733-.25 1.968-.477 2.792-.004 0-.248.23-63.56 238.51l-.046.13c-2.2 6.45-7.04 11.66-13.3 14.27l-.29.12S172 335.76 168 337.19c-4.01-1.424-90.35-32.2-90.35-32.2l-.287-.123c-6.255-2.617-11.1-7.82-13.29-14.277l-.05-.13C.72 52.2.48 51.97.48 51.96.247 51.134 0 49.9 0 49.166c0-4.506 3.67-8.176 8.18-8.176h319.64"/>
  <path clip-path="url(#b)" fill="#000043" d="M8.182 43.38c-3.19 0-5.792 2.586-5.792 5.79 0 .523.076 1.026.202 1.505l63.48 238.43c1.842 6.146 6.293 11.09 12.216 13.57l.22.088 89.5 31.9 89.5-31.9.218-.09c5.918-2.478 10.37-7.422 12.216-13.568l63.48-238.43c.13-.48.203-.982.203-1.505 0-3.204-2.602-5.79-5.788-5.79H8.187"/>
  <g fill="#fff">
    <path clip-path="url(#b)" d="M314.21 52.26c3.887 0 7.04 3.147 7.04 7.04 0 .622-.076 1.227-.23 1.795l-59.59 225.46c-1.076 3.583-3.723 6.5-7.137 7.925l-86.29 30.763-86.29-30.763c-3.415-1.425-6.06-4.342-7.137-7.925l-59.59-225.46c-.156-.57-.236-1.174-.236-1.795 0-3.89 3.153-7.04 7.04-7.04h292.42"/>
    <path clip-path="url(#b)" d="M111.41.73s-5.298 6.23-5.737 6.748c-.464-.49-5.598-5.93-5.598-5.93C99.56.994 98.78.77 98.048.958c-.73.184-1.298.753-1.492 1.486 0 .004-.57 2.207-.637 2.458l-1.69-2.24c-.66-.812-1.82-1.01-2.7-.475-.61.375-.99 1.056-.99 1.777l.16.834c.85 1.928 3.71 8.695 4.82 14.795 0-.025.04.078.08.168-.45.24-2.11 1.1-2.11 1.1-.4.27-.66.69-.79 1.15l-.81-.16c-2.52-.16-4.4.84-5.65 2.97-.64 1.08-1.06 2.62-1.06 3.91l.11 1.1c.2 1.02.68 1.57 1.13 1.89-2.06 2.55-3.13 6.63-4.06 10.27l-.54 2.09c-1.19 4.45-3.78 8.19-6.61 9.52-.81.38-1.31 1.16-1.31 2.03l.09.63c.49 1.62 3.09 2.69 5.51 3.22-2.64 3.72-4.01 8.4-4.01 13.95 0 1.87.15 3.85.44 5.88l.06.39c.22 2.44 1.8 2.75 2.29 2.78.25.02.93-.03 1.57-.58l-.15 1.75c0 6.97 2.1 13.04 3.41 15.24.46.76 1.26 1.17 2.11 1.07.34-.04.63-.16.89-.33 0 .02.01.1.01.1 0 2.76-.67 6.27-2.55 7.81-.53.44-.84 1.07-.84 1.73l.08.58c.11.39.56 1.49 2.11 1.64 1.09.1 4.1-.48 6.86-2.68l.06.98c0 6.93-3.29 12.8-5.36 14.86-.43.44-.66 1-.66 1.59l.09.62c.3.99 1.11 1.58 2.41 1.82 1.92.36 4.97.04 7.67-1.37 1.1 10.95 3.76 15.63 5.2 18.15l.53.96c.91 1.84 1 3.18 1.11 4.87l.02.33c.62 9.51 2.36 14.78 3.41 17.92l.61 1.96c.38 1.48.57 2.72.57 3.67l-.13 1.04c-.04.1-.06.17-1.01.26l-.31.03-1.86.03c-1.37-.03-2.79-.08-4.67.7-4.83 2.03-6.71 8.23-6.44 10.44.23 1.88 1.52 3.05 3.36 3.05h27.21c.91 0 1.72-.61 1.99-1.48l.09-.55c0-.75-.35-1.4-.94-1.78-5.92-3.86-9.75-11.75-9.75-20.08 0-8.08 3.95-15.21 11.12-20.1.95.4 2.21.6 3.81.56.07.04.12.07.24.12.57.26 1.54.69 3.28.69l1.29.04 2.86.06c1.55 0 2.37-.39 3.05-1 .33.29.74.6 1.35.82 1.98.7 8.11-.01 8.17-.02 1.47-.23 2.7-1.24 3.49-2.82 1.56-.11 4.17-.34 5.48-.63 1.38-.31 2.02-.37 2.31-.37l1.08 2.69c0 .01.13.25.13.25 1.42 2.63 4.71 7.44 7.17 9.6 4.66 4.1 9.71 8.1 11.1 8.94.19.12.45.34.45 1.01l-.1.82c-.2.99-1.51 5.46-3.09 7.52-1.24 1.61-1.86 2.1-3.37 2.04-2.11-.1-5.94.01-7.9 1.74-4 3.5-4.2 7.55-4.2 8.32l.02.42c.07 1.27 1.05 3.14 3.39 3.14h15.34c1.96 0 2.85-.73 3.52-1.52l.09-.12.57-.7 1.17-1.43-.05.03c.15-.11.44-.37 1.18-1.04.77-.64 1.74-1.45 2.37-2.3.66-.92 1.02-2 1.33-2.94l-.07.05c.12-.2.29-.65.71-1.77.6-1.28 3.81-6 6.68-10 1-1.4 1.88-3.01 1.88-4.95 0-1.46-.5-3.1-1.83-4.99l-.96-1.23c-1.72-2.12-5.28-6.53-5.77-9.99-.01-.02-.03-.19-.03-.19l-.21-1.9c0-.81.2-1.51.77-2.79 0 .01.25-.52.25-.52.35-.78.62-1.2.76-1.26.62-.02 3.04 3.17 4.21 4.7 1.68 2.23 3.77 4.98 6.47 7.76 2.39 2.48 4.47 4.78 6.91 7.69 1.74 2.06 5.69 10.35 6.43 12.48.57 1.61.62 3.14.49 3.54-.22.7-.57 1.28-.99 1.96l-.82 1.4c-1.23 2.3-1.2 5.35-.62 7.37.81 2.88 3.09 2.8 4.32 2.75l.68-.02 13.91.01c2.91 0 3.39-2.21 3.545-2.93l.03-.15c0-.01.16-1.48.16-1.48 0-2.1-.76-4.35-2.03-6-.01-.02-1.09-1.18-1.09-1.18-1.01-.99-2.254-2.21-3.09-4.82-1.39-4.33-1.744-7.95-2.09-11.44.01.03-.03-.32-.03-.32l-.71-5.61c-.41-2.24-1.12-3.45-1.88-4.73-.49-.84-.995-1.7-1.52-3.08-.354-1-.92-10.38-.92-14.32l.05-3.43c0-6.87-.85-12.47-2.484-16.74 9.09-3.15 15.186-9.83 15.186-16.73l-.02-.63c-.8-14.95-24.33-15.44-31.52-15.24l-.56.02c-12.86.43-16.14-1.42-16.96-2.24-.26-.26-.31-.45-.31-.65.02-.76 2.3-2.15 3.8-2.53 1.36 1.09 3.59 2.77 7.594 2.17 3.93-.6 7.32-3.66 9.48-6.13 1.29-1.48 3.33-3.5 6.09-3.98 1.94-.34 2.36-1.48 2.45-2.14.06-.53.01-1.83-1.84-2.64-3.69-1.61-9.35-2.76-14.31-1.36-.05-.16-.116-.31-.116-.31-.52-.72-1.3-1.03-2.11-.93-7.01.97-9.22 5.29-10.07 7.05-6.55 2.43-10.31 6.5-10.31 11.18l.01.34c.42 12.04 19.49 11.78 26.68 11.68l.23-.01c7.74-.11 19.58 1.41 20.44 6.04.01.01.05.5.05.5 0 .66-.29 1.39-.87 2.13-1.6 2.05-5.08 3.69-8.7 4.12-2.41-2.33-5.36-4.62-13.79-7.04l-3.78-.76c-5.57-.97-14.9-2.6-21.57-7.27-10.09-7.09-14.53-9.5-20.15-12.55l-1.18-.64c-3.354-1.82-6.225-4.05-8.64-6.57 1.15-.12 2.15-.36 2.92-.8.6-.34.99-.96 1.04-1.66v-.01c0-.77-.29-1.39-.82-1.79-2.98-2.26-4.23-4.47-5.6-8-.85-2.17-1.65-3.79-2.55-5.23.14-.052.29-.1.29-.1.55-.39.89-1.02.89-1.71-.02-5.46-3.18-9.39-5.07-11.74l-.71-.92c-.67-.85-1.216-2.27-1.216-3.17l.12-.58c.08-.15.17-.31.17-.31l.46-.913.2-.81v-.04c0-.34-.16-.62-.32-.9.532-.36.9-.86.94-1.45l.022-.68-.11-1.47c-.31-1.98-1.95-5.33-5.05-5.97-1.37-.29-2.24-.05-2.86.22l-.94-.77c.24-.28.5-.55.56-.89 1.08-6.08 3.95-12.85 4.81-14.79l.18-.84c0-.71-.38-1.39-1-1.77-.88-.53-2.04-.34-2.69.46L129.946 5c-.22-.82-.64-2.46-.64-2.46-.19-.73-.76-1.293-1.5-1.483-.73-.18-1.51.04-2.02.59l-2.53 2.69s-2.61 2.76-3.04 3.22L114.57.73c-.396-.46-.97-.73-1.59-.73-.6.01-1.172.277-1.57.74"/>
  </g>
  <g fill="#000043">
    <path clip-path="url(#b)" d="M128.07 10.378l-.856-6.7-7.558 7.558-6.76-8.448-6.762 8.448-7.554-7.558-.86 6.7s-3.903-4.01-5.07-5.457c1.874 4.26 4.062 10.45 4.948 14.84 4.616-1.46 10.378-1.88 15.297-1.88 4.92 0 10.682.42 15.302 1.89.89-4.4 3.073-10.58 4.944-14.84-1.16 1.45-5.07 5.46-5.07 5.46m-27.68 6.59l.14-4.78 4.67 3.97c-1.81.2-3.46.5-4.8.82m12.51-1.2c-1.42 0-2.81.04-4.14.12l4.14-4.78 4.15 4.78c-1.32-.07-2.71-.11-4.14-.11m7.72.38l4.67-3.96.13 4.79c-1.34-.32-2.99-.62-4.8-.82"/>
    <path clip-path="url(#b)" d="M234.34 180.66c-.948-1.256-3.157-2.487-4.472-6.58-2.234-6.964-1.884-12.1-2.88-17.52-.59-3.22-1.925-3.843-3.266-7.365-.6-1.562-1.185-9.955-1.04-15.64.13-4.828.134-14.238-3.108-20.58 10.03-2.64 16.1-8.926 15.736-15.816-.57-10.69-14.64-13.6-29.15-13.2-4.35.11-20.263.86-19.812-5.03.194-2.56 4.236-4.38 5.927-4.47 1.416 1.07 3.617 2.8 7.25 2.16 7.693-1.33 8.33-9.5 16.296-10.16-3.2-2.65-12.07-3.71-16.9-.66 0-.93.35-1.81.73-2.42-6.45.89-7.78 4.75-8.66 6.49-6.95 2.32-9.9 6.03-9.77 9.79.35 10.08 18.3 9.64 24.62 9.61 6.6-.02 21.04.8 22.34 7.67.88 4.64-5.39 8.88-12.23 9.25-9.52-10.67-25.35-5.54-40.17-16.1-17.14-12.2-26.13-13.23-32.51-23.2 1.54.67 4.8 1.11 6.73 0-3.36-2.54-4.78-5.09-6.24-8.84-1.77-4.53-3.09-6.52-5.58-8.73 1.5-.06 3.08.62 4.08 1-.01-5.43-3.81-9.25-5.32-11.31-1.29-1.78-2.57-4.46-.68-7.06-1.97-2.18-3.82-.87-4.6-.2-.67.58-1.21.47-.81-.85.41-1.39 1.79-3.31 3.47-3.24 1.5.06 2.26 1.35 2.57 1.83.33-3.2-.86-5.51-2.98-5.92-1.25-.24-2.43.16-3.34.76-.74-1.24-1.37-2.15-3.61-2.91-.93-.33-4.24-1.07-6.8-1.35-1.8 1.4-3.73 3.48-5.34 5.99-.17-1.2.18-3.85.92-6.32-6.4-.22-16.09.39-20.62 3.36.92.86 1.45 2.02 1.53 2.74.09.99-.28.83-.67.42-.42-.41-1.65-1.91-3.62-2.05-4.15-.32-4.79 4.77-3.86 6.44.39-1.23 1.23-2.23 2.54-2.3 2.04-.09 3.48 2.47 3.73 3.8.18.97-.31 1.04-.94.45-.84-.8-1.7-1.07-2.78-.87-3.86.69-5.28 7.37-6.61 13.19-1.27 5.53-4.25 9.34-7.89 10.89.81 1.13 4.22 2.52 7.78 2.16-7.8 6.83-6.46 18.86-5.43 22.39.41-1.43 2.47-6.95 6.17-8.6-5.06 10.29-1.57 22.64.44 25.93.33-1.44 1.15-3.09 2.04-4.03 1.93 3.1 1.95 11.95-2.19 15.46 2.5.12 6.21-.75 8.39-5.23 2.46 9.49-2.1 18.78-5.21 21.88.89.48 6.49 1.41 9.72-2.74.87 15.07 4.62 19.59 5.79 21.93s1.26 3.99 1.35 5.97c.67 14.45 5.59 20.25 4.35 25.08-.41 1.6-2.12 1.69-3.07 1.8-2.18.23-2.78-.13-5.1.59-4.39 1.35-5.35 6.68-5.17 8.16.11.93.58 1.21 1.31 1.21H118c1.47 0 1.96-.8 2.43-2.65-4.52-4.81-7.396-11.27-7.396-18.4 0-9.98 5.45-18.83 13.53-23.46 0 0 .5 1.33 3.45 1.23 1.21-.04 1.32-.78 2.05-.71 1.097.09.57 1.07 2.404 1.4 1.08.19 2.106.24 3.337.23 1.43-.02 1.93-.52 2.25-.92.48-.59 1.233-.5 1.59.02.28.4.638.77 1.346.98 1.11.33 5.32.35 6.97-.03 1.2-.28 1.58-1 2-1.88.23-.49.4-1.06 1.28-1.05 2.78.03 5.51-.53 7.1-.87 2.24-.49 2.84.44 3.24 1.64 3.14 9.41 13.67 16.41 18.28 19.85 1.36 1.01 1.66 2.22 1.29 3.96-.23 1.14-1.58 5.93-3.45 8.32-1.63 2.1-2.41 2.62-5.11 2.87-1.3.12-4.92.07-6.66 1.56-2.81 2.41-3.18 6.2-3.12 6.77 0 0 .06 1.16 1.31 1.16h14.67c1.37 0 2.05-.25 2.57-.9.37-.45 1.02-1.27 1.73-2.11.7-.82 2.4-1.74 3.4-3.19.75-1.1 1.08-2.84 1.75-4.41 1.18-2.718 4.18-6.57 6.83-10.268 1.73-2.423 1.94-4.34.05-7.48-1.36-2.26-10.77-11.06-5.86-19.1 1.01-1.64 2.73-2.7 4.16-1.33 1.52 1.46 2 4.73 16.16 18.897 1.79 1.78 2.33 2.68 2.95 3.85 1.91 3.64 4.26 8.81 4.94 10.465.96 2.29.79 3.89.5 4.82-.45 1.4-1.22 2.33-1.94 3.69-.93 1.733-.95 4.3-.44 5.83.39 1.19 1.32 1.22 2.98 1.22h13.81c1.33 0 1.37-.7 1.53-1.43.3-1.3-.01-3.91-1.49-5.82M97.37 36.38c.4-.254 1.483-.9 2.967-1.416 1.953-.69 2.17-1.26 1.82-3.27-.15-.91.48-1.3 1.494-1.68.72-.25 2.98-.88 4.49-1.21.73.46 3.35 3.96 4.77 6 1.43-2.04 4.03-5.53 4.76-5.99 2.17.44 4.33 1.09 6.13 1.7 1.64.57 2.39 1.22 3.17 3.38.6 1.68.84 3.61.84 3.61s-1.09.23-2.7.05c-1.83-.22-2.86-.8-3.77-.605-1.56.31-3.51 2.28-3.68 3.09-.33 1.68.28 3.03.39 3.45.5-1.83 1.47-3.09 2.68-3.16.51-.04 1.17.31 2.1.43.55.06 1.1.04 1.58-.29 1.15-.77 1.88-1.69 2.63-2.08 0 0 1.07 1.93 1.58 3.63.36 1.22-.22 2.18-2.26 3.15-1.17.57-2.77 1.55-3.78 2.45-.99.89-.78 1.97-.28 2.78.93 1.51 1.73 3.61 1.85 5.32.05.78-.24 1.37-.84 1.71-.77.45-2.06.75-3.71.67-1.76-.08-4.03-2.25-5.82-2.83l.35-2.83s2.77-1.73 4.38-3.18c.38-.33.21-1.02.16-1.48-1.44-.48-3.78-.83-5.69-.83-1.48 0-3.22.25-4.6.54.41-1.88.85-5.41.18-7.51-.24-.8-2.89-2.76-4.45-3.09-.91-.17-1.94.41-3.78.62-1.6.18-3.07-.23-3.07-.23s.06-.82.17-.9m14.69 29.32c.12.62.22 2.8-.6 4.03-.15.24-.33.28-.6 0-.59-.58-1.89-1.93-3.53-2.54-.73-.29-3.69-.64-2.76-5.05.1-.43.24-.75.95-.96.89-.25 2.07-.86 3.61-2.47.38-.41 1.18-.71 2.05-.43.69.21 1.16.33 1.76.33.59 0 1.07-.12 1.75-.34.87-.28 1.67.02 2.06.43 1.53 1.61 2.71 2.17 3.75 2.52.65.21.72.79.5 1.19-.24.43-.6 1.27-.76 1.98-.15.7-.38 1.96-1.7 2.9-.56.4-2.13 1.2-3.29 2.48-.23.25-.49.32-.52-.06-.03-.38-.11-3.13-1.93-4.5-.48-.36-.82-.17-.69.47m-9.52-8.29c-.59-.34-.89-.93-.83-1.72.15-2.26 1.5-5.21 2.76-6.57.19-.2 1.93-.72 2.8.05 1.63 1.46 4.45 3.24 4.45 3.24l.35 2.83c-1.79.58-4.04 2.74-5.81 2.83-1.65.08-2.94-.23-3.71-.67M97.1 44.34c-.74-.5-1.26-2.2.576-6.19.75.385 2.26 1.514 3.41 2.275.5.33 1.04.35 1.58.29.94-.11 1.6-.47 2.11-.43 1.39.09 1.41 3.17 1.43 3.55.02.39-.16.4-.41.19-.63-.504-1.2-.5-1.65-.5-.615 0-2.07.588-2.68.75-.62.17-3.076.93-4.36.06m5.08 53.3c-5.26-10.373 6.12-12.77 10.02-17.51-.72 5.19-8.51 7.55-10.02 17.51m15.24 18.08c1.3-2.46 4.6-9.18 1.61-18.24-3.15 1.72-6.2 6.378-7.297 11.04-3.43-13.34 6.82-17.98 9.16-29.59 3.01 5.35-4.22 12.547 1.51 18.79 3.59-14.772 17.52-9.5 16.73-27.56 6.29 14.55-2.9 18.44-4.91 29.41-1.9-3.29-2.05-7.38-.24-11.94-9.15 4.45-4.17 23.69-16.56 28.08m100.48 14.33c-.41 1.87-2.06 2.36-2.94 1.12-1.62-2.27-2.3-14.01-15.01-19.99-1.92-.91-2.54.17-2.05 1.29 1.99 4.427 2.84 8.587 2.27 12.735-.19 1.35-1.07 2.03-1.86.578-.7-1.302-2.17-3.81-3.33-4.923-2.19-2.095-5.11-2.074-7.68-1.74-2.57.34-13.38 3.637-15.75.69-1.46-1.806-3.53-5.596-2.37-10.19.31-1.216-.78-1.625-2.04-.763-3.85 2.62-2.35 11.65-2.09 13.35.29 1.95.41 3.54-1.32 5.19-2.64 2.525-6.89 7.1-8.61 8.29-1.71 1.2-3.48.975-4.67 2.12-.91.89-.87 3.23-2.39 3.675-.75.22-2.42.325-3.62.15-1.19-.17-1.79-.33-1.94-2.24-.06-.71-.55-.96-1.18-.03-.48.71-.94 1.46-1.99 1.746-1.21.33-2.84.46-4.31.14-1.07-.23-1.52-.53-1.52-1.55 0-.45.02-.85-.01-1.13-.04-.364-.37-.4-.78-.12-.72.474-1.03 1.65-2.52 1.7-.85.035-3.25.03-2.53-2.65.4-1.5 1.38-5.84 6.63-6.87 2.07-.41 7.75.22 9.64-.136 2.08-.382 3.63-1.62 3.63-2.98s-4.27-1.05-4.53-2.33c-.49-2.424 7.13-4.26 6.73-6.73-.3-1.88-2.42-1.92-2.75-3.29-.35-1.37 2.33-5.09 2.33-8.21 0-4.15-2.33-6.505-2.98-9.74-.62-3.103.07-7.263 1.44-9.35.96-1.49 1.67-1.92 3.85-2.156 7.59-.82 17.21 6.95 19.77 8.54 8.4 5.21 13.1 6.27 23.56 8.15 6.26 1.15 13.29 1.75 18.57 9.16 2.75 3.89 5.53 13.04 4.32 18.5"/>
  </g>
  <g fill="#ed1a3b">
    <path clip-path="url(#b)" d="M148.35 152.53c-3.84-.205-8.772.742-11.575 2.4-.017 3.98-.426 8.03-1.18 11.525 2.604 1.916 8.03 4.203 11.1 4.864 2.402-1.76 5.483-5.39 7.136-8.16-.96-3.96-2.83-8.1-5.48-10.63m-1.94 4.32c-3.15-.83-8-.84-8-.84 2.71-.93 6.13-1.7 9.15-1.63 1.9 2.05 3.17 4.89 4.31 8.11 0 0-2.77-3.59-5.45-5.65"/>
    <path clip-path="url(#b)" d="M152.15 146.43c-.02-.02-.586.953-3.3 1.083.33.417.847 1.355.99 1.903 0 0 3.175.22 5.24.75 2.234 1.998 3.912 4.353 5.105 7.236-.004.017-1.383 2.904-3.03 5.745 1.378 2.822 2.938 6.43 3.204 9.72-1.55 3.972-4.28 7.356-7.76 9.72.47-1.133.99-2.676 1.32-4.286-1.97-.16-5.4-.87-7.19-1.45-2.11 2.62-4.68 4.39-7.93 6.01.47 1.06 1.46 2.57 2.13 3.3-5.32 0-10.17-1.99-13.85-5.27 0 0 2.65.36 5.02-.09-.55-2.94-.76-8.05-.51-10.66-3.72-1.05-7.07-2.49-9.75-4.16-.5.98-1.05 2.31-1.39 3.11-.84-4.78-.1-9.69 2.4-14.02.34.54.68 1.11.96 1.6 2.48-1.7 5.88-3.46 9.53-4.62.16-1.47.53-3.59.84-4.96 0 0-1.38-.13-1.97-.74-.3-.29-.65-.27-.91-.15-1.25.59-3.07.2-3.43.03-6.99 4.13-11.81 11.84-11.81 20.56 0 13.11 10.62 23.74 23.73 23.74 13.11 0 23.73-10.62 23.73-23.73 0-8.61-4.58-16.14-11.44-20.29m-1.95 38.07c-.14-1.24-.33-2.74-.4-3.54-1.11-.99-2.09-1.85-2.91-2.5 1.34.39 3.63.93 5.15 1.24-.25 1.06-1.35 3.94-1.86 4.8m9.4-21.83l1.25-2.8s1.81 6 .08 11.03c0 0 0-4.2-1.34-8.22"/>
  </g>
  <path clip-path="url(#b)" d="M81.932 196.64H71.116c1.31.767 1.964 3.422 1.964 5.273v26.468c0 2.37-1.083 4.66-1.9 5.35h9.02V220.9s.766.042 1.424.042c8.958 0 14.42-5.7 14.42-12.85 0-7.22-5.05-11.297-14.11-11.45m-.636 18.33c-.658 0-1.096-.026-1.096-.026V202.44s.662.016 1.534.016c4.806 0 6.935 2.352 6.935 6.07 0 3.984-3.01 6.387-7.37 6.445m36.59 4.52c-.97-1.74-1.86-2.21-1.86-2.21 3.65-1.18 6.82-4.82 6.82-10.28 0-7.54-5.24-10.38-13.38-10.38l-11.67.01c1.32.77 1.98 3.43 1.98 5.28v26.47c0 2.38-1.09 4.66-1.9 5.35h9.03v-15.2l.96.01c1.76 0 2.09 1.25 2.41 1.85l6.26 13.34h8.8l-7.41-14.21m-9.36-6.15h-1.66V202.4h1.88c4.57 0 6.66 1.77 6.66 5.33 0 3.44-2.61 5.63-6.88 5.63M258 219.51c-.98-1.74-1.867-2.21-1.867-2.21 3.647-1.18 6.82-4.825 6.82-10.283 0-7.545-5.243-10.387-13.387-10.387l-11.674.01c1.31.77 1.964 3.423 1.964 5.273v26.47c0 2.375-1.087 4.66-1.897 5.347h9.03v-15.2l.95.007c1.76 0 2.09 1.246 2.42 1.85l6.26 13.336h8.78L258 219.51m-9.36-6.15h-1.66V202.4h1.87c4.566 0 6.674 1.77 6.674 5.33 0 3.44-2.625 5.63-6.882 5.63M163 196.64l8.22 14.13c1.085 1.85 1.717 2.93 2.177 4.17h.05c.486-1.274 1.156-2.303 2.28-4.18l8.25-14.1h7.08v37.09H183.9s.01-24.934 0-24.913h-.084c-.476 1.567-1.457 3.21-2.01 4.13l-6.676 10.917h-3.368l-6.686-10.912c-.456-.7-1.244-2.26-1.86-4.13l-.125.016v24.86h-8.95c.82-.69 1.91-2.97 1.91-5.346v-26.47c0-1.85-.66-4.48-1.97-5.26H163zm42.8 37.07h-9.03c.815-.68 1.9-2.964 1.9-5.34V201.9c0-1.85-.655-4.49-1.965-5.27l9.09-.01.004 37.09m-77.5.014c.82-.68 1.9-2.97 1.9-5.343V201.9c0-1.85-.67-4.504-1.98-5.275l21.14.03v6.02h-12.03v8.944h10.6v5.94h-10.61v10.08h12.89l-2.53 6.1-19.41-.03m83.92 0c.81-.68 1.9-2.97 1.9-5.35V201.9c0-1.85-.66-4.507-1.97-5.278l21.14.03v6.02h-12.03v8.944h10.62v5.94h-10.62v10.08h12.9l-2.53 6.1-19.41-.03M104.3 278.13c.818-.678 1.9-2.972 1.9-5.34v-26.472c0-1.85-.656-4.498-1.963-5.273l21.14.017v6.02h-12.04v8.958h10.614v5.94h-10.61v10.09h12.9l-2.54 6.094-19.4-.034m129.65 0c.82-.678 1.91-2.972 1.91-5.34v-26.472c0-1.85-.66-4.498-1.97-5.273l21.15.017v6.02H243v8.958h10.61v5.94H243v10.09h12.89l-2.53 6.094-19.41-.034m-152.997 0c.822-.678 1.905-2.972 1.905-5.34v-26.472c0-1.85-.658-4.498-1.973-5.273l9.113-.008v31.03h12.334l-2.53 6.095-18.85-.035m105.72-6.537v-6.424c0-2.37-1.064-4.68-1.886-5.37h8.902l.042 15.823c-3.094 1.72-8.19 3-12.616 3-11.69 0-18.483-7.52-18.483-18.77 0-11.59 7.43-19.2 20.5-19.2 3.45 0 6.74.8 8.86 1.7l.01 7.03c-2.16-1.28-5.85-2.4-9.3-2.4-7.26 0-12.37 4.21-12.37 12.84 0 7.8 4.12 12.39 11.6 12.39 1.76 0 3.57-.23 4.75-.64m-27.09 1.34c-.5-1.4-10.8-31.82-10.8-31.82h-7.24s-10.31 30.43-10.81 31.82c-.82 2.27-1.82 4.46-2.86 5.19h8.41l2.39-7.54h12.96l2.44 7.52h8.42c-1.05-.73-2.05-2.93-2.87-5.19m-19.25-7.96l3.1-9.39c.66-2.13 1.23-3.99 1.63-6.17h.04c.43 2.18.93 4.03 1.58 6.05l3.2 9.51h-9.54zm59.61-18.51c0-2.38-1.07-4.68-1.88-5.37l8.83.02v23.65c0 4.86 1.73 7.93 7.51 7.93 5.37 0 7.63-3.05 7.63-7.88v-23.7H229v24.03c0 7.59-4.43 13.44-15.02 13.44-11.01 0-14-5.94-14-13.38l.02-18.75" fill="#000043"/>
</svg>
