<svg xmlns="http://www.w3.org/2000/svg" width="340.16" height="340.16" viewBox="0 0 340.157 340.157" overflow="visible" enable-background="new 0 0 340.157 340.157"><switch><g><path fill="#d90000" d="M340.157,340.157H0V0h340.157V340.157z"/><path fill="#fff" d="m171.16 326.48l11.06-4.951c35.09-15.702 63.14-39.656 83.38-71.19 15.84-24.682 26.756-53.838 32.444-86.66 9.273-53.51 1.758-97.91.872-102.79l-3.457-18.998-7.972-5.21c-7.402.867-18.15 2.124-18.271 2.139-.792.083-51.24 5.02-82.47-18.949l-11.588-8.89h-8.01l-11.587 8.89c-31.23 23.968-81.68 19.03-82.47 18.949-.125-.015-10.869-1.272-18.271-2.139l-7.972 5.21-3.457 18.998c-.886 4.885-8.402 49.28.872 102.79 5.688 32.823 16.604 61.979 32.444 86.66 20.239 31.539 48.29 55.49 83.38 71.19l11.06 4.951"/><g><path d="m124.64 158.14c0 0 13.94-5.743 34.545 1.436l-34.545-1.436"/><path d="m145.83 164.13c0 0 9.479-5.743 23.49 1.436l-23.49-1.436"/><path d="m175.77 161.82c0 0 9.479-5.743 23.491 1.436l-23.491-1.436"/><path d="m206.63 160.44c0 0 9.479-5.743 23.49 1.436l-23.49-1.436"/><path d="m89.63 154.46c0 0 9.479-5.743 23.491 1.436l-23.491-1.436"/><path d="m103.45 160.9c0 0 9.479-5.743 23.491 1.436l-23.491-1.436"/></g><g><path d="m174.85 120.35h-79.53l12.282 4.912 59.27 2.15 7.983-7.06"/><g><path d="m199.05 119.21l-108.03-.007v-12.896l107.97-.008c.709 2.325 1.613 6.988.07 12.911"/><path d="m200.03 122.27h9.212v-.002c3.966 0 7.181-4.124 7.181-9.21 0-5.089-3.215-9.212-7.181-9.212h-9.212c0 0 3.878 7.637 0 18.424"/><path d="m217.02 118.63c.783-1.637 1.236-3.539 1.236-5.568 0-2-.457-3.875-1.22-5.497 3.241 0 5.851 2.483 5.851 5.535.0001 3.052-2.624 5.53-5.867 5.53"/></g><path d="m194.87 146.11l19.562 7.634c32.901 14.352 41.14-3.874 41.14-3.874s-18.742 3.868-34.475-3.938l-33.35-13.68-10.823-11.746-9.1 8.291-18.19-.346 40.01 15.618 3.398 14.552h1.382l.446-12.511"/><path fill="none" stroke="#000" stroke-width="1.842" d="m176.11 106.57c0-3.498 4.229-6.333 9.443-6.333 5.214 0 9.442 2.835 9.442 6.333"/><path fill="none" stroke="#000" stroke-width="1.842" d="m129.63 113.83l-9.212-9.212c-4.324-4.324.144-7.831 9.98-7.831 9.836 0 21.315 3.507 25.64 7.831l9.212 9.212"/><path fill="none" stroke="#000" stroke-width="2.043" d="m138.74 108.31l1.943-17.211c.913-8.08 6.499-12.421 12.478-12.421s10.09 4.341 9.174 12.421l-1.944 17.211"/></g><g><path fill="none" stroke="#fff" stroke-width="2.764" d="m185.91 127.18c0 14.422-11.691 26.11-26.11 26.11-14.423 0-26.11-11.691-26.11-26.11 0-14.421 11.691-26.11 26.11-26.11 14.421 0 26.11 11.691 26.11 26.11zm-26.11-32.641c-18.03 0-32.642 14.614-32.642 32.641 0 18.03 14.614 32.641 32.642 32.641 18.03 0 32.639-14.613 32.639-32.641-.0001-18.03-14.613-32.641-32.639-32.641z"/><g><path d="m145.7 150.45l2.398 1.371 27.02-47.29-2.4-1.371-27.02 47.29"/><path d="m140 103.79l37.769 46.674 2.148-1.738-37.769-46.674-2.148 1.738"/><path d="m131.67 136.33l.984 2.582 55.58-21.19-.983-2.583-55.58 21.19"/><path d="m131.14 119.29l55.887 17.196.812-2.641-55.885-17.196-.814 2.641"/><path d="m157.8 98.37l2.149 56.5 2.762-.104-2.149-56.5-2.762.104"/></g><path d="m166.33 127.18c0 3.606-2.923 6.528-6.527 6.528-3.606 0-6.529-2.922-6.529-6.528 0-3.605 2.923-6.528 6.529-6.528 3.604 0 6.527 2.923 6.527 6.528"/><path d="m185.91 127.18c0 14.422-11.691 26.11-26.11 26.11-14.423 0-26.11-11.691-26.11-26.11 0-14.421 11.691-26.11 26.11-26.11 14.421 0 26.11 11.691 26.11 26.11m-26.11-32.641c-18.03 0-32.642 14.614-32.642 32.641 0 18.03 14.614 32.641 32.642 32.641 18.03 0 32.639-14.613 32.639-32.641-.0001-18.03-14.613-32.641-32.639-32.641"/></g><g><path fill="#d90000" stroke="#f00" stroke-width=".138" d="m158.85 241.81c0 2.492-2.02 4.514-4.514 4.514-2.494 0-4.514-2.02-4.514-4.514 0-2.493 2.02-4.514 4.514-4.514 2.492.0001 4.514 2.02 4.514 4.514zm-5.527 19.16h1.012c4.091 0 7.559-2.666 8.762-6.355 0 0 2.99-7.121.181-15.04-1.381-3.895-4.624-6.979-8.943-6.979-5.09 0-9.215 4.126-9.215 9.214 0 5.089 4.125 9.214 9.215 9.214 1.972 0 3.8-.616 5.299-1.671-.184 3.047-1.139 4.162-1.139 4.162-.686 1.621-2.29 2.758-4.16 2.758h-1.012c-1.774 0-3.333-.83-4.223-2.086l-3.124 3.979c1.86 1.728 4.463 2.806 7.347 2.806z"/><path fill="#d90000" stroke="#f00" stroke-width=".143" d="m169.72 233.02h16.375v4.975l-5.902 6.392c3.989.942 6.388 4.3 6.388 8.302 0 4.732-4.125 8.568-9.214 8.568h-.69c-3.041 0-5.764-1.182-7.58-3.045l2.832-4.02c.748 1.481 2.57 2.528 4.701 2.528h.737c2.391 0 4.329-1.804 4.329-4.03 0-2.225-1.938-4.03-4.329-4.03h-.737c-.354 0-.702.029-1.037.084v-2.391-3.842l4.38-4.518h-10.252v-4.975z"/><path fill="#d90000" stroke="#f00" stroke-width=".138" d="m202.6 237.3c3.409 0 6.173 4.311 6.173 9.627s-2.764 9.627-6.173 9.627c-3.408 0-6.172-4.311-6.172-9.627s2.764-9.627 6.172-9.627zm-10.907 9.722c0 8.01 4.751 14.505 10.613 14.505 5.859 0 10.995-6.463 10.995-14.474 0-8.01-5.136-14.535-10.995-14.535-5.862.0001-10.613 6.494-10.613 14.504z"/><path fill="#d90000" stroke="#f00" stroke-width=".138" d="m139.59 260.52v-27.358h-4.975v27.358h4.975z"/><path fill="#d90000" stroke="#f00" stroke-width=".246" d="m116.74 203.53l5.509-17.906 5.509 17.906h-11.02zm.427-30.14l-15.07 48.983h8.847l3.375-10.977h15.865l3.375 10.977h8.846l-15.07-48.983h-10.165z"/><path fill="#d90000" stroke="#f00" stroke-width=".246" d="m243.02 210.81c-3.341 7.689-9.59 12.863-16.749 12.863-10.677 0-19.331-11.518-19.331-25.719 0-14.207 8.654-25.722 19.331-25.722 7.157 0 13.398 5.18 16.739 12.871l-7.649 2.467c-2.031-4.185-5.274-6.901-8.926-6.901-6.152 0-11.141 7.682-11.141 17.16 0 9.477 4.988 17.16 11.141 17.16 3.708 0 7-2.787 9.02-7.079l7.561 2.9z"/><path fill="#d90000" stroke="#f00" stroke-width=".246" d="m202.19 219.5c0 2.398-1.944 4.342-4.342 4.342-2.398 0-4.341-1.943-4.341-4.342 0-2.396 1.942-4.342 4.341-4.342 2.398 0 4.342 1.946 4.342 4.342z"/><path fill="#d90000" stroke="#f00" stroke-width=".246" d="m157.96 219.5c0 2.398-1.943 4.342-4.341 4.342-2.396 0-4.341-1.943-4.341-4.342 0-2.396 1.944-4.342 4.341-4.342 2.399 0 4.341 1.946 4.341 4.342z"/><path fill="#d90000" stroke="#f00" stroke-width=".246" d="m164.02 222.2v-48.818h30.469v8.847h-21.624v11.467h15.728v8.847h-15.728v19.658h-8.845z"/></g><path fill="#d90000" stroke="#f00" stroke-width=".921" d="m168.36 35.09c-39.838 30.573-99.24 24.02-99.83 23.952l-4.294-.503-.776 4.252c-.333 1.823-8.02 45.23.921 96.84 5.277 30.448 15.301 57.34 29.795 79.924 18.19 28.349 43.46 49.903 75.11 64.06l1.882.842 1.882-.842c31.645-14.162 56.914-35.717 75.11-64.06 14.494-22.585 24.52-49.48 29.797-79.924 8.943-51.606 1.252-95.02.921-96.84l-.773-4.252-4.297.503c-.596.07-59.994 6.621-99.83-23.952l-2.805-2.152-2.803 2.152zm2.804 9.314c36.485 26.12 84.52 25.19 99.27 24.18.931 6.702 2.559 21.1 2.559 39.732 0 14.653-1.01 31.898-4.169 50.01-5.089 29.18-14.678 54.878-28.507 76.38-16.832 26.18-40.12 46.19-69.15 59.59-29.04-13.4-52.32-33.409-69.15-59.59-13.828-21.505-23.419-47.2-28.507-76.38-3.158-18.11-4.169-35.36-4.169-50.01 0-18.631 1.63-33.03 2.558-39.731 14.746 1.017 62.787 1.939 99.27-24.18z"/></g></switch></svg>