<svg enable-background="new 0 0 322.793 379.84" viewBox="0 0 322.793 379.84" xmlns="http://www.w3.org/2000/svg"><g stroke-width=".793" stroke-miterlimit="282"><path d="m161.4.396c-38.436 0-109.31 9.944-145.4 30.932-47.52 168.47 17.11 283.04 145.4 348.07 128.3-65.03 192.92-180.16 145.4-348.07-36.13-20.989-106.97-30.933-145.4-30.933z" fill="#9c824a" stroke="#9c824a"/><path d="m161.4 11.228c-37.761 0-80.28 4.83-135.96 27.558-41.452 147.06 6.637 264.93 135.96 329.17 129.33-64.24 177.38-182.11 135.93-329.17-55.684-22.728-98.16-27.558-135.93-27.558z" fill="#023474" stroke="#023474"/><path d="m161.22 11.09c-37.584 0-77.936 5.575-114.35 19.355-37.761 150.58-9.901 260.53 114.56 337.41l-.213-356.77zm.213 356.77c124.46-76.887 152.29-186.84 114.53-337.41-36.412-13.78-76.73-19.355-114.31-19.355l-.213 356.77z" fill="#fff" stroke="#fff"/><path d="m161.43 11.05c-37.797 0-76.06 5.717-107.14 16.548-39.11 157.82-7.702 264.4 107.18 337.24l-.035-353.78z" fill="#ef0107" stroke="#ef0107"/><path d="m161.5 11.05c37.796 0 76.06 5.717 107.18 16.548 39.11 157.82 7.701 264.4-107.21 337.24l.035-353.78z" fill="#db0007" stroke="#db0007"/></g><path d="m112.6 249.2c-16.68 11.437-29.953 15.556-45.36 19.64l-9.298-14.454c14.161-7.173 28.818-17.15 43.582-31.606 1.242 14.03 7.771 23.969 11.07 26.42" fill="#fff"/><path d="m110.33 248.6c-15.828 10.866-37.868 18.431-63.1 22.12l-5.146-7.812c21.613-8.099 42.481-20.17 58.665-37.15 2.449 10.866 6.175 18.08 9.582 22.835" fill="#9c824a"/><g fill="#fff"><path d="m68.17 182.22c0 6.073-4.897 10.974-10.966 10.974s-11-4.901-11-10.974c0-6.073 4.933-10.973 11-10.973s10.966 4.9 10.966 10.973"/><path d="m66.993 160.6v41.41h32.615c2.129-13.886 10.01-28.624 27.859-41.41h-60.47"/><path d="m68.31 202.01c-7.276.106-13.273-9.02-13.38-20.456-.071-11.436 5.75-20.811 13.06-20.953.071 0 .142 0 .249 0"/></g><g fill="#9c824a"><path d="m63.55 182.22c0 4.688-3.407 8.453-7.595 8.453-4.188 0-7.595-3.764-7.595-8.453 0-4.688 3.407-8.452 7.595-8.452 4.188-.0001 7.595 3.764 7.595 8.452"/><path d="m67.881 162.76v37.22h32.367c2.555-12.358 8.837-25.498 24.523-37.22h-56.89"/><path d="m69.09 199.98c-6.85.143-12.457-8.096-12.563-18.36-.071-10.263 5.43-18.716 12.279-18.857.071 0 .142 0 .213 0"/></g><path d="m223.32 211.7c0 34.556-27.965 62.54-62.5 62.54-34.496 0-62.5-27.983-62.5-62.54 0-34.554 28-62.54 62.5-62.54 34.532 0 62.5 27.985 62.5 62.54" fill="#fff"/><path d="m220.06 211.7c0 32.744-26.512 59.27-59.23 59.27-32.686 0-59.2-26.527-59.2-59.27 0-32.707 26.511-59.27 59.2-59.27 32.721-.0001 59.23 26.528 59.23 59.27" fill="#9c824a"/><path d="m210.23 211.7c0 27.31-22.11 49.44-49.4 49.44-27.26 0-49.37-22.13-49.37-49.44 0-27.31 22.11-49.44 49.37-49.44 27.29 0 49.4 22.12 49.4 49.44" fill="#fff"/><path d="m206.97 211.7c0 25.498-20.656 46.13-46.14 46.13-25.446 0-46.1-20.634-46.1-46.13 0-25.498 20.655-46.13 46.1-46.13 25.482-.0001 46.14 20.633 46.14 46.13" fill="#9c824a"/><path d="m180.06 211.7c.036 10.619-8.588 19.249-19.2 19.284-10.646 0-19.271-8.629-19.271-19.248v-.036c0-10.619 8.589-19.248 19.235-19.248 10.611-.035 19.235 8.595 19.235 19.213.0001.035.0001.035.0001.035" fill="#fff"/><path d="m177.79 211.7c0 9.377-7.561 16.976-16.929 16.976-9.369 0-16.964-7.563-17-16.939v-.036c0-9.375 7.595-16.976 16.964-16.976s16.965 7.565 16.965 16.94v.035" fill="#9c824a"/><path d="m169.56 211.7c0 4.794-3.904 8.7-8.73 8.735-4.791 0-8.695-3.905-8.695-8.735 0-4.829 3.904-8.7 8.695-8.735 4.825-.0001 8.73 3.906 8.73 8.735" fill="#fff"/><path d="m167.15 211.7c0 3.48-2.804 6.321-6.317 6.321-3.478 0-6.317-2.806-6.317-6.321 0-3.479 2.839-6.32 6.317-6.32 3.477-.0001 6.317 2.804 6.317 6.32" fill="#9c824a"/><path fill="#fff" d="m154.19 164.5h13.13v30.647h-13.13z"/><path fill="#9c824a" d="m156.25 160.1h9.05v38.958h-9.05z"/><path fill="#fff" d="m197.42 181.8l7.17 11.01-25.7 16.69-7.13-11.01z"/><path fill="#9c824a" d="m202.21 181.12l4.93 7.6-32.65 21.24-4.93-7.63z"/><path fill="#fff" d="m142.41 214.19l7.03 11.08-25.88 16.41-7.02-11.12z"/><path fill="#9c824a" d="m146.81 213.55l4.86 7.67-32.86 20.84-4.86-7.67z"/><path fill="#fff" d="m154.19 229.28h13.13v30.646h-13.13z"/><path fill="#9c824a" d="m156.25 224.91h9.05v38.922h-9.05z"/><g stroke-width=".311" stroke-miterlimit="282"><path d="m148.02 226.01c1.775 1.491 3.726 2.841 6.175 3.871l-.071 27.345c-12.386-1.598-21.755-7.706-28.853-16.406l22.785-14.81" fill="#ef0107" stroke="#ef0107"/><path d="m173.6 226.12c-1.81 1.456-3.727 2.841-6.175 3.835l.035 27.346c12.386-1.598 21.756-7.706 28.854-16.407l-22.749-14.773" fill="#db0007" stroke="#db0007"/></g><path d="m179.81 214.65l27.11-3.268c.213 6.782-1.42 12.749-3.727 18.467l-23.459-15.199" fill="#db0007"/><g fill="#fff"><path d="m179.85 214.54c.106-.426.071-.816.249-2.059l26.76-3.48c.106 1.243.035 1.704 0 2.272l-27.01 3.267z" stroke-miterlimit="282" stroke-width=".311" stroke="#fff"/><path d="m219.46 191.99h35.1c-1.101 4.154-2.166 8.38-7.206 10.263-8.06 3.02-24.771 5.931-24.771 5.931-.32-4.582-1.349-10.798-3.123-16.194"/><path d="m195.01 159.99l91.71.106-3.229 33.524-62.64 3.268c-3.372-14.987-14.765-29.3-25.836-36.898"/></g><g fill="#9c824a"><path d="m198.27 162.37l117.08.106-4.472 27.311-90.85 4.475c-3.585-13.567-11.782-23.475-21.755-31.892"/><path d="m219.46 191.99h32.33c-1.064 3.692-1.81 7.07-6.565 8.735-7.559 2.699-22.784 4.83-22.784 4.83-.639-4.438-1.562-8.949-2.981-13.565"/><path d="m183.97 111.31c0 1.492-.319 5.576-.496 6.712h18.17c-1.102-4.831-1.599-11.542-1.74-16.727 0 .355-.319-10.406-.319-10.406 0-.746.319-1.882.78-2.237.64-.746 1.279-.746 2.06-.746.78-.355 2.2-.355 2.377 2.593l.462 11.151c.177 5.22.177 12.288-.462 16.372h17.497c-.143-1.492-.639-5.221-.781-6.322 2.2 4.83 6.956 7.422 13.273 7.422 3.762 0 6.636-1.457 8.837-2.948 0 .355.923 1.848.923 1.848h32.509c-1.42-4.831-2.343-11.542-2.839-16.727l-4.579-36.437-16.716-2.983c1.421 4.83 2.379 11.897 2.981 16.727l2.555 23.439c.462 4.084.782 8.559.782 13.388v.355l-.64-1.492c-1.277-2.983-1.881-6.676-2.378-12.252l-.603-7.458c-.958-11.897-7.417-17.08-21.649-17.08-2.342 0-8.34.355-11.995 1.492l.958 13.353 3.798-2.202c3.159-1.882 5.501-2.628 8.339-2.628 2.237 0 3.656.747 4.295 2.238-2.696.39-5.679 1.136-9.01 2.592-5.04 2.237-8.199 5.61-9.618 9.304v-.355l-.497-12.288c-.283-7.813-5.358-12.998-13.1-12.998-3.442 0-6.602 1.101-9.44 2.983-.177-.391-.319-.747-.497-1.137l-.639-1.492-14.516-.746c.639 2.628 1.598 10.05 1.74 12.644-.782-3.694-2.84-7.778-6.638-10.761-2.98-1.882-6.778-2.983-10.717-2.983-5.36 0-10.896 2.237-14.516 5.966-3.797 3.693-5.679 8.914-5.856 14.845-1.419-1.492-3.3-2.948-5.501-3.693l-6.637-3.374h-.319c-1.561-.747-1.739-1.102-1.739-1.457.178-.746 1.739-1.492 3.798-1.492 2.839 0 6.779 1.492 9.937 3.339l.319-11.897c-2.378-1.137-5.678-1.847-10.434-1.847-2.52 0-7.24.355-11.357 2.592-1.101.746-2.059 1.492-2.981 2.238l.142-3.375c-3.797-.71-7.879-.71-12.919 4.12-.177-.391-.497-2.238-.816-2.983l-15.615.746c1.1 4.44 1.277 10.761.958 16.337l-.319 5.966v.746c-.178 2.983-.319 6.321-.639 9.304-1.278-4.12-2.662-9.695-3.798-14.13l-7.736-34.945-22.08 3.338c.142.355.461 1.492.639 2.592.143 1.492.143 4.475-1.916 10.796-3.62 10.02-8.66 25.286-13.557 36.05-.639 1.492-1.916 3.729-1.916 3.729h17.212c.32-2.593 1.42-7.07 2.52-10.406 2.378 0 8.518 0 11.356-.391.639 2.628 1.278 5.966 1.456 8.203l.284 2.593h34.425c-.781-5.576-.462-12.999-.177-17.12.319-4.83 1.277-8.168 3.336-10.02 1.561-1.882 3.3-2.237 4.578-2.237-.177 6.676 4.082 9.66 7.879 11.506l6.778 3.373c2.378 1.492 2.378 1.847 2.378 2.593-.142 1.101-2.059 1.492-3.797 1.492-3.62 0-8.518-2.238-13.877-8.168l-.319 15.59c4.259 2.237 9.618 3.338 14.374 3.338 7.879 0 16.254-3.694 18.455-10.761 3.939 7.422 11.676 10.761 19.271 10.761 6.777.006 11.816-2.197 16.253-7.06m-118.54-15.236c.958-2.592 1.738-4.83 3.158-8.914.958 4.084 1.419 6.677 1.881 8.559-1.881.355-2.839.355-5.04.355m96.6-4.084c0-5.185 1.881-7.422 3.763-7.422.639 0 2.058-.391 2.696 2.237.319 1.101.461 1.847.461 2.202 0 1.492-.78 1.882-1.738 1.882v.355c0 0-2.662.746-5.182 1.882 0-.39 0-.745 0-1.136m17.993 10.796c-3.337 2.948-5.714 4.83-9.653 4.83-3.158-.391-5.04-2.238-6.14-4.83 3.301-1.136 16.08-5.966 19.732-7.458 0 2.983.143 6.321.143 6.321v6.322l-4.082-5.185m58.842 5.186c-2.98 0-3.62-2.238-3.762-3.694.142-1.492.603-3.729 5.358-5.22.143 1.847.319 3.338.319 3.338v1.491c.143 1.136.143 2.237.284 3.338-.602.391-1.382.391-2.199.747"/></g><g fill="#fff"><path d="m143.22 78.6c-1.561-.355-3.939-1.101-7.736-1.101-2.981 0-6.921.746-9.938 2.238-3.478 2.237-5.998 5.185-6.14 8.559-.319 5.185 2.378 7.422 6.317 9.269 2.662 1.492 5.217 2.983 6.779 3.729 2.058 1.101 3.939 2.237 3.797 4.83-.177 2.593-2.555 4.475-6.494 4.475-3.301 0-8.02-2.237-11.357-5.221l-.142 7.813c2.839 1.492 7.417 2.237 11.676 2.237 7.24 0 16.254-3.338 16.396-11.542.177-6.321-4.258-8.559-6.92-10.02-2.697-1.136-5.395-2.627-6.636-2.983-1.278-.746-3.798-1.491-3.62-4.475.284-2.592 3.301-3.729 6.459-3.729 2.662 0 5.359.746 7.417 1.882"/><path d="m78.39 64.853l-16.751 2.237c.32 2.238-.319 6.677-2.058 11.897-3.442 10.02-9.121 26.741-13.558 36.436h10.435c.603-3.373 1.384-6.321 2.981-10.405l15.474-.391c.603 2.983 1.739 7.813 1.881 10.796h14.05c-1.739-4.119-3.939-12.643-5.358-18.609l-7.1-31.961m-16.751 33.809l7.595-21.912 4.579 21.557"/><path d="m118.45 78.6l-.319 7.458c-2.52-.39-5.678.355-8.198 2.948-2.201 2.237-3.62 5.576-3.939 11.542-.32 4.83-.462 10.406-.178 14.88h-11.819c.781-4.474 1.101-9.66 1.242-14.524l.319-5.931c.319-4.83.319-9.66-.461-14.13l10.434-.355c.462 1.492.781 4.084.604 6.676 4.578-7.07 9.01-8.56 12.315-8.56"/><path d="m267.3 67.09l-10.754-1.882c1.101 4.866 1.42 8.204 2.059 13.03l2.521 23.404c.496 4.83.958 9.305.815 13.779h11.677c-1.136-4.474-1.597-8.949-2.059-13.779"/><path d="m219.14 115.42c-.604-4.474-.924-8.949-1.102-13.779l-.461-12.252c-.319-6.712-4.116-10.405-10.434-10.405-3.442 0-7.56 1.101-11.04 5.575-.142-1.136-.639-4.084-1.277-5.575l-9.44-.391c.78 4.475 1.1 8.914 1.241 13.744l.178 9.304c.142 4.83 0 9.305-.319 13.779h11.818c-.604-4.474-.923-8.949-1.101-13.779l-.319-10.405c-.142-3.729 2.697-6.322 5.537-6.322 3.3 0 4.897 2.237 5.04 5.576l.496 11.151c.143 4.83.143 9.305-.177 13.779"/><path d="m256.08 115.42c-1.419-3.729-2.2-8.203-2.52-13.03l-.64-7.423c-.639-8.914-4.399-14.88-18.951-14.88-2.52 0-6.14.391-9.12 1.101l.461 6.712c2.98-1.847 5.998-3.338 9.795-3.338 3.939 0 7.24 1.847 7.56 7.422-3.798.391-7.276 1.101-11.215 2.983-4.4 1.847-8.979 5.576-8.518 11.506.461 6.712 5.536 9.695 11.854 9.695 4.897 0 8.198-2.237 10.08-4.474.319 1.491.816 2.592 1.277 3.729h9.938m-17.213-4.83c-3.479 0-6.316-1.882-6.459-5.966 0-4.084 2.52-7.422 10.576-8.559l.462 6.322c.177 2.237.177 3.729.496 5.576-1.134 1.491-3.02 2.237-5.075 2.627"/><path d="m175.59 79.73c-2.696-1.882-5.855-2.628-9.155-2.628-7.737 0-17.994 5.576-17.675 19.71.142 14.49 11.215 18.964 18.952 18.964 6.778 0 10.896-2.593 14.195-5.931l-2.378-3.374c-1.738 1.492-4.578 3.729-9.156 3.729-4.898-.355-8.02-3.729-9.76-8.914l21.436-7.813c-.639-7.07-3.158-11.15-6.459-13.743m-7.417 13.744l-8.518 3.338c-.177-1.491-.319-2.983-.319-4.83 0-8.559 4.72-10.05 6.316-10.05 2.521-.355 4.721 1.136 5.536 4.119.924 3.339.605 6.322-3.02 7.423"/><path d="m117.67 190.29l7.21-10.98 25.62 16.76-7.2 11.01z"/></g><path fill="#9c824a" d="m115.3 186.52l4.96-7.6 32.55 21.34-4.97 7.61z"/><path fill="#fff" d="m172.36 225.23l7.21-11.01 25.62 16.8-7.2 11.01z"/><path fill="#9c824a" d="m169.98 221.47l4.97-7.6 32.55 21.34-4.97 7.57z"/></svg>