<?xml version="1.0" encoding="utf-8"?>
<!-- Generator: Adobe Illustrator 13.0.2, SVG Export Plug-In . SVG Version: 6.00 Build 14948)  -->
<!DOCTYPE svg PUBLIC "-//W3C//DTD SVG 1.0//EN" "http://www.w3.org/TR/2001/REC-SVG-20010904/DTD/svg10.dtd">
<svg version="1.0" id="Ebene_1" xmlns="http://www.w3.org/2000/svg" xmlns:xlink="http://www.w3.org/1999/xlink" x="0px" y="0px"
	 width="455.888px" height="566px" viewBox="0 0 455.888 566" enable-background="new 0 0 455.888 566" xml:space="preserve">
<path fill="#FDCC50" d="M436.769,410.178c0-13.244-27.387-10.594-27.387-10.594v18.974h-22.905
	c19.763-21.91,35.625-45.751,47.271-71.158c25.822-56.335,21.955-101.429,21.912-101.878L455.663,0H0.227v245.587
	c-0.039,0.383-3.91,45.478,21.911,101.813c11.645,25.407,27.504,49.248,47.267,71.158H46.509v-18.974c0,0-27.387-2.65-27.387,10.594
	c0,16.777,0,38.835,0,38.835s-0.8,13.255,12.594,13.02c12.803-0.2,28.475-0.217,28.475-0.217l-27.362,32.672
	c0,0,61.835,71.038,195.118,71.512c133.283-0.474,195.118-71.512,195.118-71.512L395.7,461.816c0,0,15.672,0.017,28.475,0.217
	c13.394,0.235,12.594-13.02,12.594-13.02S436.769,426.956,436.769,410.178z M84.031,465.789c5.416-10.423,7.538-18.547,7.608-24.884
	c31.66,28.87,71.017,53.688,117.227,73.952C133.768,508.369,84.031,465.789,84.031,465.789z M247.004,514.859
	c46.218-20.268,85.581-45.088,117.247-73.963c0.069,6.338,2.19,14.465,7.608,24.893C371.86,465.789,322.114,508.376,247.004,514.859
	z"/>
<path fill="#FFFFFF" d="M414.249,405.312c0,0,16.018-1.764,16.018,6.632c0,8.379-8.535,6.614-16.018,6.614V405.312z"/>
<path fill="#FFFFFF" d="M86.098,438.576c0,0-1.625,17.349-6.917,23.24l-7.076-4.842L86.098,438.576z"/>
<path fill="#FFFFFF" d="M369.792,438.576l13.993,18.398l-7.076,4.842C371.417,455.924,369.792,438.576,369.792,438.576z"/>
<path fill="#FFFFFF" d="M41.641,405.312v13.246c-7.483,0-16.018,1.765-16.018-6.614C25.623,403.548,41.641,405.312,41.641,405.312z"
	/>
<path fill="#FFFFFF" d="M35.192,457.541c-13.115,0.163-11.203-12.925-11.203-12.925v-24.579c1.617,4.032,10.169,3.381,10.169,3.381
	H70.35c1.535,0,2.828,0.158,3.936,0.428c1.889,2.001,3.815,3.982,5.771,5.949c0.452,3.208-0.876,6.424-0.876,6.424l-15.74,21.322
	C63.441,457.541,45.962,457.427,35.192,457.541z"/>
<path fill="#FFFFFF" d="M414.249,493.601c0,0-63.576,64.432-186.304,64.897c0.439,0.002,0.872,0.011,1.312,0.011h-1.312h-1.312
	c0.44,0,0.873-0.009,1.312-0.011c-122.729-0.466-186.304-64.897-186.304-64.897l24.615-29.882c0,0,65.891,58.6,161.689,59.025
	c95.798-0.426,161.689-59.025,161.689-59.025L414.249,493.601z"/>
<path fill="#FFFFFF" d="M420.698,457.541c-10.77-0.113-28.249,0-28.249,0l-15.74-21.322c0,0-1.332-3.224-0.874-6.436
	c1.951-1.962,3.872-3.938,5.758-5.935c1.11-0.271,2.407-0.431,3.947-0.431h36.191c0,0,8.552,0.651,10.169-3.381v24.579
	C431.901,444.616,433.813,457.704,420.698,457.541z"/>
<path fill="#009E4E" d="M23.585,321.066h408.717c-1.408,3.918-2.966,7.928-4.685,12.019H28.27
	C26.551,328.994,24.994,324.984,23.585,321.066z"/>
<path fill="#E12128" d="M359.971,427.98c-34.249,31.823-78.109,58.579-130.361,79.524c-0.249,0-3.097,0-3.345,0
	c-52.251-20.945-96.109-47.701-130.354-79.524c-27.407-25.47-48.755-54.225-63.453-85.468c-0.858-1.825-1.671-3.631-2.465-5.43
	h395.902c-0.795,1.799-1.607,3.604-2.467,5.43C408.73,373.755,387.378,402.51,359.971,427.98z"/>
<path fill="#E12128" d="M433.704,317.059H22.183c-10.556-31.075-11.84-55.718-11.84-65.788c0-3.118,0.122-4.84,0.128-4.923
	c0,0,0.002-233.087,0.002-234.495c1.408,0,433.535,0,434.944,0c0,1.407,0,234.438,0,234.438c0.007,0.095,0.13,1.827,0.13,4.955
	C445.548,261.343,444.261,285.987,433.704,317.059z"/>
<polyline fill="#E12128" points="68.246,473.645 71.888,476.48 62.614,493.714 62.657,493.75 77.442,480.817 80.892,483.51 
	60.154,500.962 56.052,497.773 68.246,473.645 "/>
<polyline fill="#E12128" points="66.552,505.666 81.649,483.849 85.299,486.378 70.202,508.194 66.552,505.666 "/>
<path fill="#E12128" d="M79.241,498.382c3.719-5.954,7.248-11.622,13.463-7.755c3.833,2.409,3.729,6.017,0.565,10.744l-3.685-2.295
	c1.86-2.989,2.138-4.38,1.017-5.085c-2.13-1.311-3.946,1-7.544,6.771c-3.607,5.755-4.885,8.422-2.772,9.752
	c1.747,1.087,3.433-1.764,4.588-3.503l3.712,2.313c-3.756,6.014-6.885,6.745-10.396,4.545
	C71.983,510.002,75.565,504.265,79.241,498.382"/>
<polyline fill="#E12128" points="110.252,501.058 108.157,504.926 103.812,502.587 93.313,522.042 89.402,519.928 99.909,500.477 
	95.573,498.138 97.658,494.252 110.252,501.058 "/>
<path fill="#E12128" d="M113.885,517.338c2.859-6.154,3.79-8.972,1.521-10.013c-2.26-1.044-3.791,1.477-6.641,7.647
	c-2.859,6.173-3.79,8.971-1.521,10.022C109.505,526.047,111.034,523.508,113.885,517.338 M104.68,513.086
	c2.947-6.36,5.754-12.436,12.395-9.36c6.632,3.068,3.833,9.135,0.896,15.516c-2.92,6.301-5.745,12.429-12.395,9.361
	C98.936,525.535,101.77,519.389,104.68,513.086z"/>
<path fill="#E12128" d="M124.437,519.85l1.825,0.713c1.652,0.644,2.912-1.226,3.529-2.799c0.913-2.373,0.469-3.564-0.843-4.077
	l-1.834-0.714L124.437,519.85 M118.962,533.878l-4.128-1.608l9.63-24.711l7.631,2.973c2.824,1.104,3.746,4.068,2.111,8.276
	c-1.234,3.146-3.137,5.127-6.031,4.631l-0.035,0.063c0.86,0.485,3.433,1.807,1.695,6.265c-0.617,1.565-2.338,6.258-2.355,7.432
	l-4.05-1.572c0.035-1.73,0.799-3.355,1.426-4.972c1.147-2.946,2.338-5.354-0.844-6.589l-1.068-0.425L118.962,533.878z"/>
<polyline fill="#E12128" points="130.243,538.084 138.752,512.973 142.968,514.399 134.45,539.509 130.243,538.084 "/>
<path fill="#E12128" d="M150.086,521.936l-0.061-0.018l-5.12,10.438l4.059,1.183L150.086,521.936 M135.927,540.127l13.012-23.841
	l5.614,1.616l-1.833,27.083l-4.485-1.305l0.495-5.97l-5.814-1.679l-2.781,5.311L135.927,540.127z"/>
<path fill="#E12128" d="M163.514,533.878c1.383-6.876,2.695-13.429,9.874-11.986c4.433,0.887,5.615,4.303,4.311,9.856l-4.259-0.859
	c0.695-3.452,0.46-4.85-0.834-5.112c-2.451-0.486-3.346,2.321-4.676,8.988c-1.347,6.657-1.599,9.604,0.843,10.099
	c2.025,0.409,2.582-2.851,3.051-4.894l4.293,0.869c-1.399,6.945-4.059,8.727-8.126,7.909
	C160.82,547.316,162.15,540.683,163.514,533.878"/>
<path fill="#E12128" d="M188.529,538.276c0.956-6.728,1.052-9.682-1.425-10.03c-2.468-0.356-3.199,2.512-4.155,9.229
	c-0.956,6.737-1.042,9.684,1.426,10.039C186.851,547.862,187.581,545.002,188.529,538.276 M178.49,536.851
	c0.991-6.954,1.938-13.575,9.178-12.542c7.241,1.025,6.302,7.648,5.311,14.593c-0.964,6.874-1.92,13.567-9.162,12.532
	C176.569,550.418,177.526,543.725,178.49,536.851z"/>
<polyline fill="#E12128" points="194.413,552.408 196.533,525.977 202.513,526.456 206.659,545.219 206.72,545.219 208.189,526.908 
	212.325,527.247 210.205,553.676 204.374,553.208 200.158,533.417 200.088,533.417 198.541,552.747 194.413,552.408 "/>
<path fill="#E12128" d="M214.308,540.579c0.156-7.022,0.313-13.706,7.623-13.532c4.528,0.095,6.274,3.26,5.971,8.953l-4.346-0.105
	c0.079-3.521-0.382-4.858-1.711-4.894c-2.495-0.043-2.886,2.878-3.042,9.675c-0.148,6.796,0.104,9.743,2.598,9.795
	c2.051,0.052,2.051-3.26,2.155-5.354l4.381,0.103c-0.166,7.093-2.477,9.318-6.623,9.214
	C213.995,554.268,214.152,547.514,214.308,540.579"/>
<path fill="#E12128" d="M240.279,540.579c-0.208-6.796-0.626-9.725-3.11-9.646c-2.505,0.068-2.739,3.024-2.531,9.812
	c0.209,6.798,0.618,9.727,3.112,9.648C240.252,550.305,240.488,547.359,240.279,540.579 M230.154,540.882
	c-0.217-7.013-0.426-13.697,6.883-13.923c7.318-0.217,7.518,6.466,7.735,13.48c0.199,6.936,0.418,13.698-6.9,13.906
	C230.561,554.581,230.353,547.818,230.154,540.882z"/>
<path fill="#E12128" d="M251.351,538.119l1.957-0.164c1.755-0.14,2.077-2.382,1.929-4.067c-0.198-2.529-1.13-3.399-2.548-3.286
	l-1.955,0.165L251.351,538.119 M252.602,553.129l-4.423,0.365l-2.208-26.422l8.169-0.687c3.018-0.252,5.157,2.007,5.529,6.501
	c0.287,3.373-0.557,5.987-3.381,6.814l0.009,0.077c0.974,0.062,3.868,0.113,4.267,4.868c0.141,1.687,0.636,6.656,1.147,7.717
	l-4.337,0.366c-0.72-1.557-0.746-3.363-0.895-5.086c-0.261-3.146-0.251-5.84-3.65-5.553l-1.139,0.087L252.602,553.129z"/>
<path fill="#E12128" d="M268.683,547.349l2.112-0.296c2.686-0.372,2.851-2.963,1.92-9.543c-0.678-4.831-1.277-9.09-4.337-8.664
	l-2.268,0.321L268.683,547.349 M261.147,525.751l7.327-1.035c5.755-0.816,7.519,3.843,8.675,12.021
	c0.573,4.041,2.373,13.201-5.128,14.262l-7.163,1.018L261.147,525.751z"/>
<polyline fill="#E12128" points="282.529,549.332 277.66,523.256 282.016,522.44 286.891,548.505 282.529,549.332 "/>
<path fill="#E12128" d="M292.471,525.413l-0.061,0.009l0.634,11.629l4.121-0.964L292.471,525.413 M289.02,548.219l-0.329-27.171
	l5.702-1.328l11.654,24.509l-4.545,1.061l-2.495-5.449l-5.894,1.381l0.176,5.989L289.02,548.219z"/>
<path fill="#E12128" d="M309.977,529.289c-2.173-6.666-4.243-13.027,2.721-15.298c4.302-1.39,7.004,1.01,8.596,6.485l-4.137,1.347
	c-1.088-3.364-1.974-4.468-3.225-4.05c-2.382,0.764-1.782,3.659,0.313,10.125c2.104,6.458,3.32,9.161,5.7,8.387
	c1.956-0.643,0.844-3.762,0.253-5.762l4.172-1.355c2.181,6.735,0.738,9.604-3.206,10.891
	C314.209,542.317,312.122,535.885,309.977,529.289"/>
<path fill="#E12128" d="M328.012,521.189l1.825-0.713c1.649-0.643,1.311-2.877,0.694-4.451c-0.922-2.374-2.059-2.938-3.381-2.434
	l-1.834,0.721L328.012,521.189 M333.495,535.216l-4.138,1.616l-9.656-24.701l7.641-2.99c2.808-1.104,5.501,0.46,7.153,4.659
	c1.226,3.146,1.164,5.893-1.305,7.493l0.035,0.069c0.948-0.217,3.746-0.991,5.476,3.459c0.616,1.573,2.512,6.179,3.304,7.065
	l-4.052,1.582c-1.138-1.294-1.677-3.007-2.312-4.623c-1.146-2.929-1.903-5.519-5.084-4.277l-1.069,0.418L333.495,535.216z"/>
<polyline fill="#E12128" points="344.254,530.878 333.209,506.769 343.742,501.944 345.446,505.655 338.946,508.628 
	341.666,514.573 347.654,511.836 349.357,515.54 343.369,518.285 346.603,525.326 353.303,522.258 354.998,525.96 344.254,530.878 
	"/>
<path fill="#E12128" d="M362.551,522.536c-4.85,2.582-7.648-0.505-9.595-4.667l3.912-2.087c1.182,2.243,2.259,4.076,4.423,2.939
	c1.321-0.705,1.408-2.121,0.564-3.713c-2.243-4.216-10.272-0.286-13.976-7.258c-1.938-3.666-2.096-7.336,2.686-9.864
	c3.824-2.034,6.85-0.887,9.188,4.145l-3.816,2.026c-0.931-1.756-2.104-3.415-3.686-2.573c-1.277,0.678-1.563,1.947-0.704,3.563
	c2.355,4.451,10.04-0.121,13.943,7.25C368.714,518.356,365.542,520.954,362.551,522.536"/>
<path fill="#E12128" d="M364.256,506.056c-3.678-5.98-7.171-11.663-0.949-15.507c3.86-2.371,7.05-0.668,9.874,4.277l-3.711,2.276
	c-1.843-2.998-2.955-3.866-4.085-3.172c-2.121,1.305-0.86,3.98,2.693,9.77c3.564,5.779,5.382,8.127,7.51,6.813
	c1.757-1.087-0.052-3.851-1.095-5.668l3.729-2.284c3.702,6.032,2.973,9.151-0.557,11.325
	C371.434,517.72,367.897,511.966,364.256,506.056"/>
<polyline fill="#E12128" points="384.749,508.811 369.748,486.926 373.416,484.432 388.4,506.317 384.749,508.811 "/>
<polyline fill="#E12128" points="385.905,475.053 388.581,478.556 384.662,481.563 398.143,499.093 394.622,501.805 
	381.152,484.267 377.233,487.265 374.555,483.78 385.905,475.053 "/>
<path fill="#E12128" d="M395.571,440.042c0-5.248,4.284-9.533,9.535-9.533c5.25,0,9.534,4.285,9.534,9.533
	c0,5.26-4.284,9.545-9.534,9.545C399.855,449.587,395.571,445.302,395.571,440.042 M391.338,440.042
	c0,7.606,6.162,13.777,13.768,13.777c7.596,0,13.767-6.171,13.767-13.777c0-7.586-6.171-13.766-13.767-13.766
	C397.5,426.277,391.338,432.457,391.338,440.042z"/>
<path fill="#E12128" d="M60.32,440.042c0-5.248-4.285-9.533-9.536-9.533c-5.249,0-9.533,4.285-9.533,9.533
	c0,5.26,4.284,9.545,9.533,9.545C56.035,449.587,60.32,445.302,60.32,440.042 M64.552,440.042c0,7.606-6.163,13.777-13.768,13.777
	c-7.595,0-13.766-6.171-13.766-13.777c0-7.586,6.171-13.766,13.766-13.766C58.389,426.277,64.552,432.457,64.552,440.042z"/>
<path fill="#FFFFFF" d="M94.969,166.833c-1.617,0-2.921,1.313-2.921,2.92s1.305,2.912,2.921,2.912c1.607,0,2.911-1.304,2.911-2.912
	S96.576,166.833,94.969,166.833 M81.626,166.833c-1.625,0-2.92,1.313-2.92,2.92s1.295,2.912,2.92,2.912
	c1.608,0,2.921-1.304,2.921-2.912S83.234,166.833,81.626,166.833z M91.239,163.618c0,1.607-1.295,2.912-2.902,2.912
	c-1.617,0-2.92-1.305-2.92-2.912c0-1.617,1.303-2.92,2.92-2.92C89.944,160.698,91.239,162.001,91.239,163.618z"/>
<path fill="#FFFFFF" d="M367.727,191.691c0.087-1.633,2.13-6.379,2.13-6.379c0.407,0.903,6.127-0.331,6.127-0.331
	s-8.014-6.049-8.093-14.896h-0.416c-0.086,8.848-8.101,14.896-8.101,14.896s5.728,1.234,6.145,0.331c0,0,2.043,4.746,2.13,6.379
	H367.727 M374.281,166.833c-1.608,0-2.921,1.313-2.921,2.92s1.313,2.912,2.921,2.912c1.606,0,2.919-1.304,2.919-2.912
	S375.887,166.833,374.281,166.833z M360.93,166.833c-1.616,0-2.902,1.313-2.902,2.92s1.286,2.912,2.902,2.912
	c1.608,0,2.919-1.304,2.919-2.912S362.538,166.833,360.93,166.833z M370.56,163.618c0,1.607-1.313,2.912-2.911,2.912
	c-1.617,0-2.93-1.305-2.93-2.912c0-1.617,1.313-2.92,2.93-2.92C369.247,160.698,370.56,162.001,370.56,163.618z"/>
<path fill="#FFFFFF" d="M41.862,151.84c0.087-1.642,2.13-6.379,2.13-6.379c0.409,0.896,6.145-0.33,6.145-0.33
	s-8.03-6.063-8.117-14.902h-0.4c-0.079,8.839-8.109,14.902-8.109,14.902s5.728,1.226,6.154,0.33c0,0,2.034,4.737,2.111,6.379H41.862
	 M48.407,126.983c-1.608,0-2.912,1.308-2.912,2.916c0,1.613,1.304,2.92,2.912,2.92c1.608,0,2.92-1.307,2.92-2.92
	C51.327,128.291,50.015,126.983,48.407,126.983z M35.066,126.983c-1.609,0-2.92,1.308-2.92,2.916c0,1.613,1.312,2.92,2.92,2.92
	c1.607,0,2.912-1.307,2.912-2.92C37.978,128.291,36.674,126.983,35.066,126.983z"/>
<path fill="#FFFFFF" d="M414.287,151.84c0.079-1.642,2.103-6.379,2.103-6.379c0.437,0.896,6.163-0.33,6.163-0.33
	s-8.021-6.063-8.108-14.902h-0.409c-0.078,8.839-8.111,14.902-8.111,14.902s5.738,1.226,6.147,0.33c0,0,2.033,4.737,2.12,6.379
	H414.287 M420.832,126.983c-1.617,0-2.93,1.308-2.93,2.916c0,1.613,1.313,2.92,2.93,2.92c1.616,0,2.911-1.307,2.911-2.92
	C423.743,128.291,422.448,126.983,420.832,126.983z M407.482,126.983c-1.608,0-2.913,1.308-2.913,2.916
	c0,1.613,1.305,2.92,2.913,2.92c1.616,0,2.902-1.307,2.902-2.92C410.384,128.291,409.098,126.983,407.482,126.983z M417.119,123.758
	c0,1.612-1.32,2.92-2.928,2.92s-2.912-1.308-2.912-2.92c0-1.6,1.305-2.92,2.912-2.92S417.119,122.159,417.119,123.758z"/>
<path fill="#FFFFFF" d="M134.975,151.84c0.069-1.642,2.112-6.379,2.112-6.379c0.427,0.896,6.145-0.33,6.145-0.33
	s-8.022-6.063-8.109-14.902h-0.399c-0.078,8.839-8.101,14.902-8.101,14.902s5.728,1.226,6.128,0.33c0,0,2.051,4.737,2.129,6.379
	H134.975 M141.511,126.983c-1.59,0-2.92,1.308-2.92,2.916c0,1.613,1.33,2.92,2.92,2.92c1.617,0,2.929-1.307,2.929-2.92
	C144.44,128.291,143.128,126.983,141.511,126.983z M128.169,126.983c-1.607,0-2.92,1.308-2.92,2.916c0,1.613,1.313,2.92,2.92,2.92
	c1.608,0,2.921-1.307,2.921-2.92C131.09,128.291,129.778,126.983,128.169,126.983z M137.8,123.758c0,1.612-1.313,2.92-2.921,2.92
	s-2.929-1.308-2.929-2.92c0-1.6,1.321-2.92,2.929-2.92S137.8,122.159,137.8,123.758z"/>
<path fill="#FFFFFF" d="M228.062,151.84c0.095-1.642,2.138-6.379,2.138-6.379c0.4,0.896,6.146-0.33,6.146-0.33
	s-8.041-6.063-8.101-14.902h-0.426c-0.077,8.839-8.1,14.902-8.1,14.902s5.736,1.226,6.136,0.33c0,0,2.051,4.737,2.129,6.379H228.062
	 M234.615,126.983c-1.601,0-2.911,1.308-2.911,2.916c0,1.613,1.311,2.92,2.911,2.92c1.616,0,2.92-1.307,2.92-2.92
	C237.535,128.291,236.232,126.983,234.615,126.983z M221.274,126.983c-1.617,0-2.912,1.308-2.912,2.916
	c0,1.613,1.295,2.92,2.912,2.92c1.607,0,2.92-1.307,2.92-2.92C224.194,128.291,222.882,126.983,221.274,126.983z M230.905,123.758
	c0,1.612-1.305,2.92-2.921,2.92c-1.599,0-2.92-1.308-2.92-2.92c0-1.6,1.321-2.92,2.92-2.92
	C229.6,120.838,230.905,122.159,230.905,123.758z"/>
<path fill="#FFFFFF" d="M321.165,151.84c0.096-1.642,2.129-6.379,2.129-6.379c0.409,0.896,6.154-0.33,6.154-0.33
	s-8.031-6.063-8.109-14.902h-0.407c-0.087,8.839-8.102,14.902-8.102,14.902s5.711,1.226,6.137,0.33c0,0,2.033,4.737,2.13,6.379
	H321.165 M327.727,126.983c-1.617,0-2.919,1.308-2.919,2.916c0,1.613,1.302,2.92,2.919,2.92c1.608,0,2.921-1.307,2.921-2.92
	C330.648,128.291,329.335,126.983,327.727,126.983z M314.378,126.983c-1.608,0-2.921,1.308-2.921,2.916
	c0,1.613,1.313,2.92,2.921,2.92c1.616,0,2.911-1.307,2.911-2.92C317.289,128.291,315.994,126.983,314.378,126.983z M324.016,123.758
	c0,1.612-1.313,2.92-2.919,2.92c-1.616,0-2.921-1.308-2.921-2.92c0-1.6,1.305-2.92,2.921-2.92
	C322.703,120.838,324.016,122.159,324.016,123.758z"/>
<path fill="#FFFFFF" d="M43.462,232.351c0.087-1.635,2.121-6.379,2.121-6.379c0.426,0.895,6.153-0.331,6.153-0.331
	s-8.03-6.058-8.109-14.897h-0.408c-0.079,8.839-8.109,14.897-8.109,14.897s5.736,1.226,6.145,0.331c0,0,2.042,4.745,2.129,6.379
	H43.462"/>
<path fill="#FFFFFF" d="M414.287,231.551c0.079-1.642,2.103-6.379,2.103-6.379c0.437,0.895,6.163-0.339,6.163-0.339
	s-8.021-6.057-8.108-14.906h-0.409c-0.078,8.849-8.111,14.906-8.111,14.906s5.738,1.234,6.147,0.339c0,0,2.033,4.737,2.12,6.379
	H414.287 M420.832,206.693c-1.617,0-2.93,1.303-2.93,2.919c0,1.608,1.313,2.904,2.93,2.904c1.616,0,2.911-1.296,2.911-2.904
	C423.743,207.996,422.448,206.693,420.832,206.693z M407.482,206.693c-1.608,0-2.913,1.303-2.913,2.919
	c0,1.608,1.305,2.904,2.913,2.904c1.616,0,2.902-1.296,2.902-2.904C410.384,207.996,409.098,206.693,407.482,206.693z
	 M417.119,203.468c0,1.608-1.32,2.921-2.928,2.921s-2.912-1.313-2.912-2.921c0-1.608,1.305-2.92,2.912-2.92
	S417.119,201.86,417.119,203.468z"/>
<path fill="#FFFFFF" d="M88.415,269.403c0.087-1.643,2.13-6.388,2.13-6.388c0.408,0.904,6.135-0.322,6.135-0.322
	s-8.014-6.067-8.109-14.896h-0.408c-0.079,8.83-8.101,14.896-8.101,14.896s5.736,1.226,6.146,0.322c0,0,2.042,4.745,2.129,6.388
	H88.415 M94.969,244.545c-1.617,0-2.921,1.303-2.921,2.92c0,1.608,1.305,2.92,2.921,2.92c1.607,0,2.911-1.313,2.911-2.92
	C97.88,245.849,96.576,244.545,94.969,244.545z M81.626,244.545c-1.625,0-2.92,1.303-2.92,2.92c0,1.608,1.295,2.92,2.92,2.92
	c1.608,0,2.921-1.313,2.921-2.92C84.547,245.849,83.234,244.545,81.626,244.545z M91.239,241.321c0,1.608-1.295,2.919-2.902,2.919
	c-1.617,0-2.92-1.311-2.92-2.919c0-1.608,1.303-2.921,2.92-2.921C89.944,238.4,91.239,239.712,91.239,241.321z"/>
<path fill="#FFFFFF" d="M367.727,269.403c0.087-1.643,2.13-6.388,2.13-6.388c0.407,0.904,6.127-0.322,6.127-0.322
	s-8.014-6.067-8.093-14.896h-0.416c-0.086,8.83-8.101,14.896-8.101,14.896s5.728,1.226,6.145,0.322c0,0,2.043,4.745,2.13,6.388
	H367.727 M374.281,244.545c-1.608,0-2.921,1.303-2.921,2.92c0,1.608,1.313,2.92,2.921,2.92c1.606,0,2.919-1.313,2.919-2.92
	C377.199,245.849,375.887,244.545,374.281,244.545z M360.93,244.545c-1.616,0-2.902,1.303-2.902,2.92c0,1.608,1.286,2.92,2.902,2.92
	c1.608,0,2.919-1.313,2.919-2.92C363.849,245.849,362.538,244.545,360.93,244.545z M370.56,241.321c0,1.608-1.313,2.919-2.911,2.919
	c-1.617,0-2.93-1.311-2.93-2.919c0-1.608,1.313-2.921,2.93-2.921C369.247,238.4,370.56,239.712,370.56,241.321z"/>
<path fill="#FFFFFF" d="M41.862,311.262c0.087-1.645,2.13-6.398,2.13-6.398c0.409,0.913,6.145-0.313,6.145-0.313
	s-8.03-6.067-8.117-14.906h-0.4c-0.079,8.839-8.109,14.906-8.109,14.906s5.728,1.226,6.154,0.313c0,0,2.034,4.754,2.111,6.398
	H41.862 M48.407,286.403c-1.608,0-2.912,1.304-2.912,2.912c0,1.617,1.304,2.911,2.912,2.911c1.608,0,2.92-1.294,2.92-2.911
	C51.327,287.707,50.015,286.403,48.407,286.403z M35.066,286.403c-1.609,0-2.92,1.304-2.92,2.912c0,1.617,1.312,2.911,2.92,2.911
	c1.607,0,2.912-1.294,2.912-2.911C37.978,287.707,36.674,286.403,35.066,286.403z M44.696,283.179c0,1.606-1.312,2.92-2.92,2.92
	c-1.607,0-2.911-1.313-2.911-2.92c0-1.608,1.304-2.92,2.911-2.92C43.384,280.259,44.696,281.571,44.696,283.179z"/>
<path fill="#FFFFFF" d="M134.975,311.262c0.069-1.645,2.112-6.398,2.112-6.398c0.427,0.913,6.145-0.313,6.145-0.313
	s-8.022-6.067-8.109-14.906h-0.399c-0.078,8.839-8.101,14.906-8.101,14.906s5.728,1.226,6.128,0.313c0,0,2.051,4.754,2.129,6.398
	H134.975 M141.511,286.403c-1.59,0-2.92,1.304-2.92,2.912c0,1.617,1.33,2.911,2.92,2.911c1.617,0,2.929-1.294,2.929-2.911
	C144.44,287.707,143.128,286.403,141.511,286.403z M128.169,286.403c-1.607,0-2.92,1.304-2.92,2.912c0,1.617,1.313,2.911,2.92,2.911
	c1.608,0,2.921-1.294,2.921-2.911C131.09,287.707,129.778,286.403,128.169,286.403z M137.8,283.179c0,1.606-1.313,2.92-2.921,2.92
	s-2.929-1.313-2.929-2.92c0-1.608,1.321-2.92,2.929-2.92S137.8,281.571,137.8,283.179z"/>
<path fill="#FFFFFF" d="M321.165,311.262c0.096-1.645,2.129-6.398,2.129-6.398c0.409,0.913,6.154-0.313,6.154-0.313
	s-8.031-6.067-8.109-14.906h-0.407c-0.087,8.839-8.102,14.906-8.102,14.906s5.711,1.226,6.137,0.313c0,0,2.033,4.754,2.13,6.398
	H321.165 M327.727,286.403c-1.617,0-2.919,1.304-2.919,2.912c0,1.617,1.302,2.911,2.919,2.911c1.608,0,2.921-1.294,2.921-2.911
	C330.648,287.707,329.335,286.403,327.727,286.403z M314.378,286.403c-1.608,0-2.921,1.304-2.921,2.912
	c0,1.617,1.313,2.911,2.921,2.911c1.616,0,2.911-1.294,2.911-2.911C317.289,287.707,315.994,286.403,314.378,286.403z"/>
<path fill="#FFFFFF" d="M134.975,371.545c0.069-1.642,2.112-6.388,2.112-6.388c0.427,0.895,6.145-0.329,6.145-0.329
	s-8.022-6.052-8.109-14.9h-0.399c-0.078,8.849-8.101,14.9-8.101,14.9s5.728,1.224,6.128,0.329c0,0,2.051,4.746,2.129,6.388H134.975
	 M141.511,346.679c-1.59,0-2.92,1.313-2.92,2.921c0,1.616,1.33,2.919,2.92,2.919c1.617,0,2.929-1.303,2.929-2.919
	C144.44,347.992,143.128,346.679,141.511,346.679z M128.169,346.679c-1.607,0-2.92,1.313-2.92,2.921c0,1.616,1.313,2.919,2.92,2.919
	c1.608,0,2.921-1.303,2.921-2.919C131.09,347.992,129.778,346.679,128.169,346.679z M137.8,343.462c0,1.617-1.313,2.921-2.921,2.921
	s-2.929-1.304-2.929-2.921c0-1.616,1.321-2.911,2.929-2.911S137.8,341.846,137.8,343.462z"/>
<path fill="#FFFFFF" d="M321.165,371.545c0.096-1.642,2.129-6.388,2.129-6.388c0.409,0.895,6.154-0.329,6.154-0.329
	s-8.031-6.052-8.109-14.9h-0.407c-0.087,8.849-8.102,14.9-8.102,14.9s5.711,1.224,6.137,0.329c0,0,2.033,4.746,2.13,6.388H321.165
	 M327.727,346.679c-1.617,0-2.919,1.313-2.919,2.921c0,1.616,1.302,2.919,2.919,2.919c1.608,0,2.921-1.303,2.921-2.919
	C330.648,347.992,329.335,346.679,327.727,346.679z M314.378,346.679c-1.608,0-2.921,1.313-2.921,2.921
	c0,1.616,1.313,2.919,2.921,2.919c1.616,0,2.911-1.303,2.911-2.919C317.289,347.992,315.994,346.679,314.378,346.679z
	 M324.016,343.462c0,1.617-1.313,2.921-2.919,2.921c-1.616,0-2.921-1.304-2.921-2.921c0-1.616,1.305-2.911,2.921-2.911
	C322.703,340.551,324.016,341.846,324.016,343.462z"/>
<path fill="#FFFFFF" d="M88.415,411.405c0.087-1.651,2.13-6.38,2.13-6.38c0.408,0.896,6.135-0.339,6.135-0.339
	s-8.014-6.058-8.109-14.905h-0.408c-0.079,8.848-8.101,14.905-8.101,14.905s5.736,1.234,6.146,0.339c0,0,2.042,4.729,2.129,6.38
	H88.415 M94.969,386.547c-1.617,0-2.921,1.294-2.921,2.921c0,1.599,1.305,2.902,2.921,2.902c1.607,0,2.911-1.304,2.911-2.902
	C97.88,387.841,96.576,386.547,94.969,386.547z M81.626,386.547c-1.625,0-2.92,1.294-2.92,2.921c0,1.599,1.295,2.902,2.92,2.902
	c1.608,0,2.921-1.304,2.921-2.902C84.547,387.841,83.234,386.547,81.626,386.547z M91.239,383.314c0,1.616-1.295,2.921-2.902,2.921
	c-1.617,0-2.92-1.305-2.92-2.921c0-1.6,1.303-2.921,2.92-2.921C89.944,380.393,91.239,381.714,91.239,383.314z"/>
<path fill="#FFFFFF" d="M367.727,411.405c0.087-1.651,2.13-6.38,2.13-6.38c0.407,0.896,6.127-0.339,6.127-0.339
	s-8.014-6.058-8.093-14.905h-0.416c-0.086,8.848-8.101,14.905-8.101,14.905s5.728,1.234,6.145,0.339c0,0,2.043,4.729,2.13,6.38
	H367.727 M374.281,386.547c-1.608,0-2.921,1.294-2.921,2.921c0,1.599,1.313,2.902,2.921,2.902c1.606,0,2.919-1.304,2.919-2.902
	C377.199,387.841,375.887,386.547,374.281,386.547z M360.93,386.547c-1.616,0-2.902,1.294-2.902,2.921
	c0,1.599,1.286,2.902,2.902,2.902c1.608,0,2.919-1.304,2.919-2.902C363.849,387.841,362.538,386.547,360.93,386.547z
	 M370.56,383.314c0,1.616-1.313,2.921-2.911,2.921c-1.617,0-2.93-1.305-2.93-2.921c0-1.6,1.313-2.921,2.93-2.921
	C369.247,380.393,370.56,381.714,370.56,383.314z"/>
<path fill="#FFFFFF" d="M134.975,451.248c0.069-1.635,2.112-6.38,2.112-6.38c0.427,0.903,6.145-0.331,6.145-0.331
	s-8.022-6.048-8.109-14.896h-0.399c-0.078,8.848-8.101,14.896-8.101,14.896s5.728,1.234,6.128,0.331c0,0,2.051,4.745,2.129,6.38
	H134.975 M141.511,426.399c-1.59,0-2.92,1.303-2.92,2.919c0,1.601,1.33,2.913,2.92,2.913c1.617,0,2.929-1.313,2.929-2.913
	C144.44,427.702,143.128,426.399,141.511,426.399z M128.169,426.399c-1.607,0-2.92,1.303-2.92,2.919c0,1.601,1.313,2.913,2.92,2.913
	c1.608,0,2.921-1.313,2.921-2.913C131.09,427.702,129.778,426.399,128.169,426.399z M137.8,423.174c0,1.616-1.313,2.911-2.921,2.911
	s-2.929-1.295-2.929-2.911c0-1.608,1.321-2.921,2.929-2.921S137.8,421.566,137.8,423.174z"/>
<path fill="#FFFFFF" d="M321.165,451.248c0.096-1.635,2.129-6.38,2.129-6.38c0.409,0.903,6.154-0.331,6.154-0.331
	s-8.031-6.048-8.109-14.896h-0.407c-0.087,8.848-8.102,14.896-8.102,14.896s5.711,1.234,6.137,0.331c0,0,2.033,4.745,2.13,6.38
	H321.165 M327.727,426.399c-1.617,0-2.919,1.303-2.919,2.919c0,1.601,1.302,2.913,2.919,2.913c1.608,0,2.921-1.313,2.921-2.913
	C330.648,427.702,329.335,426.399,327.727,426.399z M314.378,426.399c-1.608,0-2.921,1.303-2.921,2.919
	c0,1.601,1.313,2.913,2.921,2.913c1.616,0,2.911-1.313,2.911-2.913C317.289,427.702,315.994,426.399,314.378,426.399z
	 M324.016,423.174c0,1.616-1.313,2.911-2.919,2.911c-1.616,0-2.921-1.295-2.921-2.911c0-1.608,1.305-2.921,2.921-2.921
	C322.703,420.253,324.016,421.566,324.016,423.174z"/>
<path fill="#FFFFFF" d="M181.518,53.67c0.087-1.63,2.138-6.372,2.138-6.372c0.391,0.891,6.119-0.33,6.119-0.33
	s-8.014-6.071-8.101-14.906h-0.417c-0.07,8.835-8.092,14.906-8.092,14.906s5.737,1.221,6.145,0.33c0,0,2.026,4.742,2.113,6.372
	H181.518 M188.072,28.82c-1.625,0-2.92,1.309-2.92,2.912c0,1.621,1.295,2.929,2.92,2.929c1.599,0,2.93-1.308,2.93-2.929
	C191.001,30.128,189.67,28.82,188.072,28.82z M174.722,28.82c-1.617,0-2.921,1.309-2.921,2.912c0,1.621,1.304,2.929,2.921,2.929
	s2.911-1.308,2.911-2.929C177.633,30.128,176.339,28.82,174.722,28.82z M184.343,25.6c0,1.603-1.295,2.907-2.92,2.907
	c-1.6,0-2.903-1.304-2.903-2.907c0-1.613,1.304-2.92,2.903-2.92C183.048,22.68,184.343,23.987,184.343,25.6z"/>
<path fill="#FFFFFF" d="M274.622,53.67c0.078-1.63,2.129-6.372,2.129-6.372c0.409,0.891,6.138-0.33,6.138-0.33
	s-8.023-6.071-8.102-14.906h-0.417c-0.087,8.835-8.101,14.906-8.101,14.906s5.728,1.221,6.136,0.33c0,0,2.061,4.742,2.147,6.372
	H274.622 M281.175,28.82c-1.616,0-2.911,1.309-2.911,2.912c0,1.621,1.295,2.929,2.911,2.929c1.608,0,2.894-1.308,2.894-2.929
	C284.069,30.128,282.783,28.82,281.175,28.82z M267.826,28.82c-1.616,0-2.895,1.309-2.895,2.912c0,1.621,1.278,2.929,2.895,2.929
	s2.928-1.308,2.928-2.929C270.754,30.128,269.443,28.82,267.826,28.82z M277.473,25.6c0,1.603-1.321,2.907-2.92,2.907
	c-1.626,0-2.92-1.304-2.92-2.907c0-1.613,1.294-2.92,2.92-2.92C276.152,22.68,277.473,23.987,277.473,25.6z"/>
<polyline fill="#FDCC50" points="134.81,54.313 138.887,57.059 134.967,61.405 145.406,68.793 159.755,55.325 172.801,62.278 
	175.843,59.232 180.188,61.84 164.544,77.923 151.481,71.834 148.873,74.89 148.873,100.965 154.401,105.024 158.73,100.682 
	162.788,103.138 145.406,124.01 141.347,121.403 145.545,116.761 135.401,109.956 132.367,113.141 128.735,111.112 134.097,105.754 
	134.097,81.404 123.233,73.287 118.6,77.202 115.55,74.89 134.81,54.313 "/>
<path fill="#FDCC50" d="M222.065,61.557c0,17.962-27.666,8.401-27.666,8.401v19.856l12.872-12.894
	c1.174,5.215,12.769,8.399,12.769,8.399v23.472c-15.941,6.948-15.663,13.046-15.663,13.046
	c-8.979-19.134-26.083-13.333-26.944-6.962c-0.869,6.384,6.944,7.244,6.944,7.244c-13.897,0.578-12.167-8.683-12.167-8.683
	c0-17.391,31.298-10.734,31.298-10.734V87.054l-10.143,10.147c-4.051-4.933-15.933-4.059-15.933-4.059
	c2.321-6.089,0.713-19.561,0.713-19.561l18.705-18.691c3.772,10.43,17.392,8.696,17.392,4.637s-5.51-5.214-5.51-5.214
	C221.483,54.313,222.065,61.557,222.065,61.557"/>
<polyline fill="#FDCC50" points="325.302,115.101 313.213,103.29 312.64,77.78 304.984,70.136 299.655,75.468 299.655,98.866 
	302.373,101.873 306.538,98.075 309.806,101.048 293.144,116.257 285.035,107.996 280.888,112.129 277.847,109.517 282.637,104.88 
	282.637,70.679 276.83,76.481 273.51,73.143 290.094,56.555 299.367,65.829 311.466,53.735 327.562,68.506 331.473,64.59 
	334.221,67.35 329.579,72.421 329.579,98.075 333.308,102.186 337.288,98.536 340.383,101.625 325.302,115.101 "/>
<path fill="#FDCC50" d="M245.826,68.658l10.422,7.966l-11.733,11.88L245.826,68.658 M257.136,105.024l-13.057-10.439l27.258-27.235
	l-2.764-2.76l-3.902,3.916l-9.134-9.123l-0.722-4.789l-28.701,23.763l3.477,2.62v23.754l-2.895,2.616l2.329,3.186l4.189-4.211
	l16.088,11.456l19.695-18.548l-3.458-2.902L257.136,105.024z"/>
<path fill="#FDCC50" d="M67.59,83.577l12.168-17.821l10.439,17.821H67.59 M126.709,97.497c-3.476,2.599-8.257,0-8.257,0
	L89.327,43.588c-9.126-16.966,12.177-15.658,12.177-15.658c-22.607-9.13-26.093,5.653-26.093,5.653
	c-18.687-9.13-26.943,11.738-26.943,11.738c1.294-2.168,5.215-6.088,10.864-6.088c5.65,0,15.654,19.573,15.654,19.573L53.883,90.24
	c-14.915-1.965-35.026,1.043-33.819,20.411c0.869,13.929,16.271,13.16,16.271,13.16c6.083,0,7.831,6.088,7.831,6.088
	c2.6-5.649-0.869-8.257-0.869-8.257c4.494-3.046-0.443-7.823-0.443-7.823c1.312,4.342-4.05,5.359-4.05,5.359
	c-13.837,1.308-13.524-7.232-13.524-7.232c0-10.473,18.687-11.151,18.687-11.151c26.092,0,14.349,17.279,14.349,17.279l3.043,3.042
	c3.485-6.097,23.483-20.435,23.483-20.435l-3.485-3.915l-4.79,2.608c-3.563-3.934-12.028-6.684-14.931-7.54l2.477-2.165h28.699
	c0,0,11.725,18.691,12.594,21.729c0.878,3.051-3.476,10.439-3.476,10.439l2.181,2.608l24.553-25.002L126.709,97.497z"/>
<path fill="#FDCC50" d="M371.604,99.961l-4.885,4.237l-7.371-5.332l-0.018-30.903l12.273,9.095V99.961 M396.173,98l-4.006,3.846
	l-4.051-3.771V69.236l3.625-4.206l-2.729-2.751l-4.215,4.055l-20.155-15.067l-23.755,22.315l2.599,2.755L346.971,73l-0.147,28.404
	l-5.354,4.776l3.042,2.612l3.903-3.329l13.194,10.135l11.949-11.082l10.301,10.585l15.201-14.053L396.173,98z"/>
<path fill="#FDCC50" d="M408.698,24.023c0,0-4.051-9.2-18.834-9.14c-10.587,0.061-24.345,12.329-17.245,17.691
	c0,0,3.765,2.316,7.389,0C382.919,30.706,389.42,17.938,408.698,24.023 M398.268,31.268c0,0,7.527-4.776,13.63-1.013
	c0,0,8.526-17.292,21.876-2.325c0,0-13.618-6.084-12.176,6.666v60.142l5.935,5.649l5.146-4.859l3.199,3.042l-16.671,16.236
	l-11.09-10.938l-4.772,4.341l-2.764-2.607l4.65-4.341v-62.75C405.231,38.511,405.073,32.131,398.268,31.268z"/>
<path fill="#FDCC50" d="M227.859,319.075"/>
<path fill="#FDCC50" d="M192.441,178.498H82.649c-4.067,0-7.379,3.312-7.379,7.388h112.989L192.441,178.498"/>
<path fill="#FDCC50" d="M262.164,185.886h12.342c0-4.077-3.303-7.388-7.37-7.388h-21.634
	C251.421,180.21,257.019,182.722,262.164,185.886"/>
<path fill="#FDCC50" d="M279.035,182.104h-1.904c1.26,1.999,1.147,3.781,1.147,3.781h5.588
	C282.399,183.278,280.685,182.104,279.035,182.104"/>
<path fill="#FDCC50" d="M289.334,180.679c-1.505,0.521-2.313,2.155-1.809,3.667c0.052,0.13,4.285,12.986-0.043,27.796
	c-0.443,1.546,0.443,3.146,1.981,3.589c1.53,0.452,3.137-0.426,3.58-1.956c4.858-16.652,0.158-30.707-0.034-31.298
	C292.497,180.966,290.845,180.158,289.334,180.679"/>
<path fill="#FDCC50" d="M284.476,208.031c1.521-7.795,0.755-14.55,0-18.869h-17.443C273.966,194.29,279.895,200.696,284.476,208.031
	"/>
<path fill="#FDCC50" d="M298.052,179.175c-1.53,0.479-2.392,2.095-1.904,3.625c0.044,0.148,4.329,14.418-0.034,30.897
	c-0.435,1.548,0.504,3.13,2.05,3.539c1.549,0.408,3.13-0.504,3.547-2.053c4.808-18.146,0.156-33.461-0.043-34.104
	C301.198,179.558,299.572,178.707,298.052,179.175"/>
<path fill="#FDCC50" d="M306.614,180.679c-1.513,0.521-2.321,2.155-1.81,3.667c0.043,0.13,4.286,12.986-0.043,27.796
	c-0.443,1.546,0.434,3.146,1.965,3.589c1.556,0.452,3.156-0.426,3.599-1.956c4.858-16.652,0.165-30.707-0.035-31.298
	C309.777,180.966,308.125,180.158,306.614,180.679"/>
<path fill="#FDCC50" d="M164.932,280.841l2.833-1.616c-0.913-1.574-1.739-3.13-2.538-4.642c-4.572-9.179-7.154-19.504-7.154-30.438
	c0-5.954,0.765-11.724,2.182-17.235h-3.364c-1.364,5.52-2.086,11.299-2.086,17.235c0,1.295,0.043,2.59,0.104,3.859
	c-2.729-10.917-2.712-18.47-2.599-21.095h-3.293c-0.261,5.137-0.043,23.659,13.28,49.125c0.817,1.633,1.686,3.233,2.634,4.796
	V280.841"/>
<path fill="#FDCC50" d="M125.141,217.887h34.662c0.435-1.112,0.895-2.199,1.391-3.285c-6.005,0-26.892,0-40.816,0
	C120.378,214.603,120.787,217.887,125.141,217.887 M161.22,223.633h-36.548c-8.213,0-10.273-4.928-10.273-4.928
	c-9.239,0-11.16-7.379-11.16-7.379h63.231C164.332,215.21,162.558,219.331,161.22,223.633z"/>
<path fill="#FDCC50" d="M326.325,198.209c0-2.946-2.398-5.345-5.347-5.345c-2.937,0-5.336,2.398-5.336,5.345
	c0,2.947,2.399,5.329,5.336,5.329C323.927,203.539,326.325,201.157,326.325,198.209"/>
<path fill="#FDCC50" d="M224.009,155.083c2.841,0,5.614,0,7.579,0c-0.721,1.234-1.686,2.946-2.764,4.823L224.009,155.083
	 M225.877,165.13l-10.047-10.047c1.382,0,3.042,0,4.798,0l6.987,6.97C227.033,163.079,226.45,164.113,225.877,165.13z
	 M207.529,175.908l-4.468-4.476c0.478-0.869,0.964-1.721,1.46-2.582l6.24,6.25C209.684,175.342,208.615,175.603,207.529,175.908z
	 M198.811,178.932c0.913-1.599,1.938-3.424,3.033-5.354l3.077,3.095C202.852,177.324,200.82,178.071,198.811,178.932z
	 M210.892,152.615l-18.173,32.063c8.909-5.05,19.034-8.17,29.864-8.77l13.201-23.293H210.892z"/>
<path fill="#FDCC50" d="M219.08,232.142l-28.422-28.395c-1.634,1.442-3.172,2.998-4.624,4.623l28.396,28.421
	C215.595,234.897,217.177,233.298,219.08,232.142"/>
<path fill="#FDCC50" d="M212.361,244.145c0-1.129,0.13-2.225,0.392-3.277h-40.181c-0.078,1.077-0.113,2.181-0.113,3.277
	c0,1.104,0.035,2.199,0.113,3.285h40.181C212.491,246.379,212.361,245.275,212.361,244.145"/>
<path fill="#FDCC50" d="M238.427,236.792l28.422-28.421c-1.452-1.625-3.006-3.18-4.658-4.623l-28.404,28.395
	C235.671,233.298,237.271,234.897,238.427,236.792"/>
<path fill="#FDCC50" d="M226.442,230.073c1.112,0,2.216,0.14,3.277,0.393v-40.174c-1.096-0.077-2.191-0.112-3.277-0.112
	c-1.121,0-2.208,0.035-3.285,0.112v40.174C224.199,230.213,225.295,230.073,226.442,230.073"/>
<path fill="#FDCC50" d="M214.43,251.506l-28.396,28.405c1.452,1.642,2.99,3.198,4.624,4.641l28.422-28.405
	C217.177,254.983,215.595,253.392,214.43,251.506"/>
<path fill="#FDCC50" d="M280.285,240.868h-40.163c0.243,1.052,0.391,2.147,0.391,3.277c0,1.13-0.147,2.234-0.391,3.285h40.163
	c0.078-1.086,0.104-2.182,0.104-3.285C280.39,243.049,280.364,241.945,280.285,240.868"/>
<path fill="#FDCC50" d="M226.442,258.217c-1.147,0-2.242-0.139-3.285-0.383v40.18c1.077,0.062,2.164,0.095,3.285,0.095
	c1.086,0,2.182-0.033,3.277-0.095v-40.18C228.658,258.078,227.554,258.217,226.442,258.217"/>
<path fill="#FDCC50" d="M233.786,256.147l28.404,28.405c1.652-1.443,3.206-3,4.658-4.641l-28.422-28.405
	C237.271,253.392,235.671,254.983,233.786,256.147"/>
<path fill="#FDCC50" d="M212.561,249.882h-39.79c1.122,10.603,5.293,20.286,11.656,28.143L212.561,249.882"/>
<path fill="#FDCC50" d="M232.169,190.483v39.791l28.145-28.134C252.437,195.794,242.772,191.604,232.169,190.483"/>
<path fill="#FDCC50" d="M220.688,190.483c-10.587,1.121-20.269,5.312-28.126,11.656l28.126,28.134V190.483"/>
<path fill="#FDCC50" d="M212.561,238.4l-28.134-28.134c-6.363,7.866-10.534,17.539-11.656,28.134H212.561"/>
<path fill="#FDCC50" d="M220.688,258.008l-28.126,28.143c7.858,6.344,17.54,10.534,28.126,11.655V258.008"/>
<path fill="#FDCC50" d="M240.296,238.4h39.789c-1.112-10.595-5.301-20.269-11.654-28.134L240.296,238.4"/>
<path fill="#FDCC50" d="M240.296,249.882l28.135,28.143c6.354-7.857,10.542-17.54,11.654-28.143H240.296"/>
<path fill="#FDCC50" d="M232.169,258.008v39.798c10.603-1.121,20.268-5.312,28.145-11.655L232.169,258.008"/>
<path fill="#FDCC50" d="M226.442,232.681c-6.344,0-11.473,5.136-11.473,11.464c0,6.336,5.128,11.473,11.473,11.473
	c6.327,0,11.456-5.137,11.456-11.473C237.898,237.817,232.769,232.681,226.442,232.681 M235.055,244.145
	c0,4.763-3.859,8.604-8.613,8.604c-4.771,0-8.639-3.841-8.639-8.604c0-4.755,3.868-8.623,8.639-8.623
	C231.196,235.522,235.055,239.39,235.055,244.145z"/>
<path fill="#FDCC50" d="M226.442,238.931c-2.886,0-5.223,2.336-5.223,5.214c0,2.886,2.337,5.215,5.223,5.215
	c2.868,0,5.206-2.33,5.206-5.215C231.648,241.267,229.31,238.931,226.442,238.931"/>
<path fill="#FDCC50" d="M226.442,185.903c-32.176,0-58.25,26.075-58.25,58.242c0,32.159,26.074,58.242,58.25,58.242
	c32.159,0,58.233-26.083,58.233-58.242C284.675,211.978,258.601,185.903,226.442,185.903 M290.604,244.145
	c0,35.444-28.735,64.177-64.162,64.177c-35.461,0-64.187-28.733-64.187-64.177c0-35.436,28.726-64.169,64.187-64.169
	C261.868,179.976,290.604,208.709,290.604,244.145z"/>
<path fill="#FDCC50" d="M173.649,195.724H85.829c-0.913,0-1.643-0.73-1.643-1.634c0-0.904,0.729-1.651,1.643-1.651
	c33.028,0,80.988,0,91.053,0C175.77,193.508,174.701,194.604,173.649,195.724 M35.028,211.951c-0.834,0.382-1.808,0.027-2.191-0.798
	c-7.013-15.228-0.121-24.902,0.174-25.302c0.53-0.73,1.547-0.887,2.278-0.348c0.738,0.53,0.895,1.546,0.365,2.286
	c-0.243,0.339-6.006,8.597,0.174,21.989C36.201,210.596,35.845,211.578,35.028,211.951z M50.655,189.162v0.825h-1.347
	c-0.835,0-1.521,0.653-1.608,1.487c-0.739-1.096-1.66-1.747-2.651-1.747c-0.574,0-1.121,0.226-1.625,0.607
	c-1.529-5.466-4.554-9.186-8.022-9.186c-5.033,0-9.118,7.813-9.118,17.453c0,9.638,4.085,17.453,9.118,17.453
	c3.468,0,6.493-3.721,8.022-9.188c0.504,0.383,1.052,0.608,1.625,0.608c0.991,0,1.912-0.652,2.651-1.747
	c0.087,0.827,0.773,1.486,1.608,1.486h1.347v0.816h117.727c4.59-7.326,10.517-13.741,17.435-18.869H50.655z"/>
<path fill="#FDCC50" d="M341.039,273.393c0,0,0,0,0,0.008c-0.008,0.008-1.199,3.868-1.226,3.876c0,0,0,0.009,0.026,0.009
	c0.069,0.027,21.921,6.762,21.98,6.789c0,0,0.02,0,0.02-0.01c0.008-0.034,1.182-3.85,1.182-3.876c0-0.008,0-0.008,0-0.008
	C363.012,280.172,341.057,273.401,341.039,273.393"/>
<path fill="#FDCC50" d="M301.675,261.268c-0.008,0-0.008,0-0.008,0c0,0.017-1.19,3.885-1.19,3.894c0,0.008,0,0.008,0,0.008
	c0.068,0.026,21.921,6.771,21.988,6.789c0.011-0.043,1.191-3.868,1.201-3.904v-0.008
	C323.656,268.039,301.675,261.268,301.675,261.268"/>
<path fill="#FDCC50" d="M380.404,285.507h-0.009c-0.008,0.008-1.174,3.877-1.19,3.895c0,0,0,0.009,0.017,0.009
	c0.054,0.017,21.895,6.762,21.965,6.778l0,0c0.017-0.035,1.208-3.849,1.208-3.885v-0.009
	C402.376,292.288,380.422,285.507,380.404,285.507"/>
<path fill="#FDCC50" d="M405.539,293.26l-1.217,3.902c-0.521,1.722-2.372,2.703-4.11,2.173l-21.989-6.788
	c-1.713-0.538-2.694-2.389-2.173-4.11l1.208-3.903c0.538-1.72,2.381-2.702,4.119-2.163l21.989,6.788
	C405.106,289.698,406.061,291.54,405.539,293.26 M366.168,281.137l-1.191,3.91c-0.547,1.729-2.399,2.694-4.119,2.172l-21.999-6.787
	c-1.722-0.547-2.704-2.381-2.164-4.111l1.199-3.901c0.539-1.73,2.373-2.704,4.102-2.173l22.008,6.787
	C365.725,277.573,366.698,279.424,366.168,281.137z M326.812,269.029l-1.217,3.894c-0.531,1.722-2.373,2.712-4.111,2.164
	l-21.99-6.779c-1.721-0.539-2.686-2.381-2.163-4.111l1.199-3.901c0.529-1.713,2.382-2.704,4.102-2.173l22.007,6.795
	C326.361,265.448,327.334,267.299,326.812,269.029z M324.76,258.052c-8.778-2.694-12.429-3.825-12.429-9.482h-17.696
	c-0.538,8.248-2.52,16.114-5.736,23.311l117.118,36.139l19.01-19.018L324.76,258.052z"/>
<path fill="#FDCC50" d="M425.939,292.73l-13.75,13.769l8.258-1.313c1.868-1.869,4.536-4.53,8.969-8.979L425.939,292.73"/>
<path fill="#FDCC50" d="M183.737,424.503c-0.043-0.044-0.113-0.095-0.165-0.122c-1.095-0.687-10.855-6.562-15.914-3.937
	c-1.191,0.625-2.66,2.008-2.851,5.049c-0.026,0.792-0.226,7.581,3.225,9.987c0.938,0.644,2.772,1.32,5.319,2.26
	c4.824,1.765,13.645,5.006,13.95,8.473c-4.311,4.173-13.358-0.295-13.445-0.328c-0.443-0.218-0.974-0.209-1.374,0.051
	c-0.434,0.253-0.678,0.714-0.678,1.191c0,6.336,5.606,10.212,9.657,10.212c5.684,0,7.596-5.492,8.535-9.716
	c1.295-1.079,2.807-3.442,1.764-6.998C191.351,439.313,187.735,427.875,183.737,424.503"/>
<path fill="#009E4E" d="M190.395,441.025c0,0-3.782-12.236-7.571-15.444c0,0-16.019-9.917-16.609,0c0,0-0.278,6.702,2.616,8.744
	c2.876,1.999,20.667,5.979,19.877,12.48C188.709,446.805,191.63,445.153,190.395,441.025"/>
<path fill="#FFFFFF" d="M188.665,447.127c-1.46,6.719-3.99,8.797-7.205,8.797c-3.19,0-8.249-3.234-8.249-8.797
	c0,0.008,10.561,5.354,15.48-0.304L188.665,447.127"/>
<path fill="#009E4E" d="M188.431,447.336c0,0-3.547,6.944-12.785,2.276c0,0,0.678,3.537,7.222,3.537
	C182.868,453.15,187.544,452.881,188.431,447.336"/>
<path fill="#FDCC50" d="M169.927,423.643c0,0,1.66,2.677,4.875,4.111c3.233,1.425,3.407,1.642,4.615,3.085
	c1.191,1.427-1.625-4.885-2.989-6.084c0,0-2.825-1.799-4.398-4.58c0,0-1.425,2.459-2.338,3.103
	C168.753,423.93,169.927,423.643,169.927,423.643"/>
<path fill="#FFFFFF" d="M215.175,371.086l-0.443,0.146c-0.592,0.444-6.832,0.878-6.832,0.878c-1.104-0.008-2.121-0.062-3.121-0.147
	c-1.711-0.747-9.499-4.555-10.142-11.941c0,0-0.191-1.427,0.608-2.409c0.521-0.313,1.008-0.679,1.478-0.86
	c0.243-0.052,0.521-0.087,0.825-0.087c3.355,0,3.068,1.599,3.19,2.19c0,0-0.122-7.284-6.249-7.284c-6.119,0-7.588,4.224-7.588,8.589
	c0,0-0.26,2.668,2.199,5.519c-6.519-5.685-9.509-13.784-14.332-18.522l0,0c-0.174-0.183-0.356-0.356-0.539-0.53
	c-0.739-0.686-1.356-1.155-1.895-1.469c-0.034-0.025-0.104-0.043-0.147-0.078c-0.017-0.009-0.069-0.034-0.096-0.052
	c-1.799-1.104-3.894-1.764-6.449-1.764c-8.274,0-9.126,6.336-9.04,9.412c0,0.974,0.148,1.659,0.148,1.659s1.164-2.477,3.068-2.477
	c1.895,0,3.79,1.156,4.945,1.156c0.252,0,0.661-0.469,1.191-1.164c1.226,1.172,2.078,2.658,2.304,3.649
	c0.435,1.904,0,5.547,0,10.049c0,4.528,6.275,5.406,6.275,5.406c-16.906,4.354-15.455,19.512-15.455,24.317
	c0,4.815,3.868,13.837,3.781,16.175c-0.139,4.373-3.042,5.103-5.666,5.252c-2.616,0.13-4.242-3.355-4.242-3.355
	c-3.477,7.57,1.625,13.984,8.465,14.279c6.841,0.287,10.5-5.832,10.5-5.832c3.189,5.685,7.7,4.659,7.7,4.659
	c12.968-0.721,7.587-15.871,7.587-15.871c-0.729,3.207-6.127,2.903-6.127,2.903s0.453,0,0.583,0
	c-9.839-0.078-8.735-14.993-8.735-14.993c-0.295-17.201,12.524-22.589,19.521-22.729c6.997-0.147,17.044,3.199,23.893-2.485
	L215.175,371.086"/>
<path fill="#FDCC50" d="M210.368,373.136c0,0-17.331,5.824-34.531-18.505c0,0,4.077,8.597,5.536,9.622c0,0-5.536-1.755-7.579-2.051
	c0,0,5.658,2.355,6.709,3.503c1.591,1.746,2.616,2.764,4.815,3.789c0,0-27.995-0.435-16.053,39.338c0,0-9.448-34.384,18.956-35.696
	C195.941,372.998,205.11,377.648,210.368,373.136"/>
<path fill="#FDCC50" d="M169.04,419.054c-0.678,3.58-4.397,5.875-8.327,5.137c-3.902-0.74-6.518-4.241-5.832-7.814
	C154.882,416.376,161.521,425.06,169.04,419.054"/>
<path fill="#FDCC50" d="M172.846,419.689c1.208,3.434,5.232,5.153,8.987,3.806c3.763-1.311,5.832-5.179,4.615-8.612
	C186.449,414.882,181.182,424.468,172.846,419.689"/>
<path fill="#009E4E" d="M172.551,418.525c1.208,3.432,5.241,5.136,8.996,3.814c3.772-1.321,5.824-5.181,4.624-8.621
	C186.171,413.718,180.886,423.304,172.551,418.525"/>
<path fill="#009E4E" d="M194.637,360.022c0,0-0.148-1.079,0.347-2.01l-0.887,0.113c-1.329,0-0.678-2.625-4.189-2.625
	c-1.435,0-2.243,0.765-2.712,1.679c-0.201,0.955-0.296,1.963-0.296,2.981c0,0-0.113,1.398,0.73,3.25
	c0.174-1.026,1.661-2.363,3.442-2.363c1.26,0,3.077,1.303,4.494,2.547C195.089,362.516,194.74,361.325,194.637,360.022"/>
<path fill="#009E4E" d="M174.768,347.157c-0.539-0.451-1.086-0.773-1.6-0.99c-2.867-0.773-5.614,3.521-7.213,5.685
	c0.808,0.773,1.435,1.685,1.86,2.493c-0.443-1.451,2.338-3.059,3.945-3.059c1.843,0,6.188,2.085,8.613,3.328
	C178.557,351.816,176.836,349.182,174.768,347.157"/>
<path fill="#009E4E" d="M168.736,420.218c-0.669,3.582-4.398,5.875-8.31,5.137c-3.911-0.738-6.536-4.241-5.849-7.822
	C154.577,417.533,161.226,426.215,168.736,420.218"/>
<path fill="#FDCC50" d="M272.149,424.503c0.061-0.044,0.104-0.095,0.174-0.122c1.094-0.687,10.863-6.562,15.896-3.937
	c1.209,0.625,2.685,2.008,2.869,5.049c0.025,0.792,0.217,7.581-3.233,9.987c-0.93,0.644-2.772,1.32-5.319,2.26
	c-4.833,1.765-13.638,5.006-13.941,8.473c4.302,4.173,13.342-0.295,13.446-0.328c0.434-0.218,0.956-0.209,1.382,0.051
	c0.391,0.253,0.668,0.714,0.668,1.191c0,6.336-5.622,10.212-9.681,10.212c-5.667,0-7.579-5.492-8.527-9.716
	c-1.295-1.079-2.799-3.442-1.756-6.998C264.517,439.313,268.159,427.875,272.149,424.503"/>
<path fill="#009E4E" d="M265.49,441.025c0,0,3.782-12.236,7.563-15.444c0,0,16.044-9.917,16.609,0c0,0,0.295,6.702-2.616,8.744
	c-2.86,1.999-20.66,5.979-19.868,12.48C267.177,446.805,264.256,445.153,265.49,441.025"/>
<path fill="#FFFFFF" d="M267.229,447.127c1.46,6.719,3.98,8.797,7.18,8.797c3.215,0,8.265-3.234,8.265-8.797
	c0,0.008-10.56,5.354-15.479-0.304L267.229,447.127"/>
<path fill="#009E4E" d="M267.472,447.336c0,0,3.546,6.944,12.776,2.276c0,0-0.678,3.537-7.248,3.537
	C273,453.15,268.341,452.881,267.472,447.336"/>
<path fill="#FDCC50" d="M285.966,423.643c0,0-1.649,2.677-4.883,4.111c-3.243,1.425-3.406,1.642-4.607,3.085
	c-1.199,1.427,1.601-4.885,2.991-6.084c0,0,2.807-1.799,4.38-4.58c0,0,1.416,2.459,2.355,3.103
	C287.132,423.93,285.966,423.643,285.966,423.643"/>
<path fill="#FFFFFF" d="M240.719,371.086l0.426,0.146c0.583,0.444,6.849,0.878,6.849,0.878c1.086-0.008,2.103-0.062,3.12-0.147
	c1.704-0.747,9.492-4.555,10.152-11.941c0,0,0.174-1.427-0.617-2.409c-0.53-0.313-1.008-0.679-1.486-0.86
	c-0.252-0.052-0.521-0.087-0.834-0.087c-3.338,0-3.051,1.599-3.188,2.19c0,0,0.138-7.284,6.265-7.284c6.119,0,7.57,4.224,7.57,8.589
	c0,0,0.27,2.668-2.207,5.519c6.528-5.685,9.534-13.784,14.35-18.522l0,0c0.174-0.183,0.348-0.356,0.538-0.53
	c0.749-0.686,1.349-1.155,1.896-1.469c0.044-0.025,0.096-0.043,0.14-0.078c0.017-0.009,0.06-0.034,0.112-0.052
	c1.8-1.104,3.885-1.764,6.449-1.764c8.274,0,9.108,6.336,9.029,9.412c0,0.974-0.139,1.659-0.139,1.659s-1.182-2.477-3.076-2.477
	c-1.887,0-3.78,1.156-4.937,1.156c-0.261,0-0.67-0.469-1.182-1.164c-1.252,1.172-2.095,2.658-2.33,3.649
	c-0.435,1.904,0,5.547,0,10.049c0,4.528-6.249,5.406-6.249,5.406c16.887,4.354,15.427,19.512,15.427,24.317
	c0,4.815-3.858,13.837-3.78,16.175c0.148,4.373,3.051,5.103,5.685,5.252c2.616,0.13,4.224-3.355,4.224-3.355
	c3.504,7.57-1.607,13.984-8.438,14.279c-6.867,0.287-10.5-5.832-10.5-5.832c-3.208,5.685-7.727,4.659-7.727,4.659
	c-12.958-0.721-7.57-15.871-7.57-15.871c0.729,3.207,6.119,2.903,6.119,2.903s-0.453,0-0.592,0
	c9.839-0.078,8.736-14.993,8.736-14.993c0.304-17.201-12.518-22.589-19.513-22.729c-7.007-0.147-17.055,3.199-23.895-2.485
	L240.719,371.086"/>
<path fill="#FDCC50" d="M245.526,373.136c0,0,17.33,5.824,34.514-18.505c0,0-4.058,8.597-5.527,9.622c0,0,5.527-1.755,7.578-2.051
	c0,0-5.666,2.355-6.692,3.503c-1.616,1.746-2.642,2.764-4.832,3.789c0,0,27.979-0.435,16.035,39.338c0,0,9.466-34.384-18.919-35.696
	C259.946,372.998,250.775,377.648,245.526,373.136"/>
<path fill="#FDCC50" d="M286.853,419.054c0.662,3.58,4.39,5.875,8.31,5.137c3.911-0.74,6.536-4.241,5.857-7.814
	C301.02,416.376,294.364,425.06,286.853,419.054"/>
<path fill="#FDCC50" d="M283.039,419.689c-1.21,3.434-5.242,5.153-8.997,3.806c-3.762-1.311-5.823-5.179-4.605-8.612
	C269.437,414.882,274.703,424.468,283.039,419.689"/>
<path fill="#009E4E" d="M283.332,418.525c-1.215,3.432-5.24,5.136-8.986,3.814c-3.78-1.321-5.84-5.181-4.614-8.621
	C269.732,413.718,274.999,423.304,283.332,418.525"/>
<path fill="#009E4E" d="M261.266,360.022c0,0,0.131-1.079-0.365-2.01l0.888,0.113c1.339,0,0.66-2.625,4.18-2.625
	c1.442,0,2.251,0.765,2.721,1.679c0.208,0.955,0.286,1.963,0.286,2.981c0,0,0.131,1.398-0.729,3.25
	c-0.182-1.026-1.659-2.363-3.434-2.363c-1.251,0-3.067,1.303-4.502,2.547C260.797,362.516,261.136,361.325,261.266,360.022"/>
<path fill="#009E4E" d="M281.117,347.157c0.538-0.451,1.078-0.773,1.599-0.99c2.868-0.773,5.615,3.521,7.232,5.685
	c-0.809,0.773-1.452,1.685-1.878,2.493c0.435-1.451-2.346-3.059-3.946-3.059c-1.842,0-6.197,2.085-8.604,3.328
	C277.327,351.816,279.066,349.182,281.117,347.157"/>
<path fill="#009E4E" d="M287.141,420.218c0.678,3.582,4.406,5.875,8.316,5.137c3.922-0.738,6.528-4.241,5.859-7.822
	C301.317,417.533,294.641,426.215,287.141,420.218"/>
<path fill="#E12128" d="M220.946,382.717c-1.953-0.195-3.094-1.324-4.511-2.74c-0.585-0.581-1.429-0.798-2.124-0.869h-24.855v38.069
	h31.49V382.717z"/>
<path fill="#E12128" d="M234.948,417.177h31.473v-38.069h-23.615c-3.31-0.134-5.414,3.096-7.857,3.785V417.177z"/>
<path fill="#FDCC50" d="M267.993,423.278v-46.144h-26.401c-0.791-0.288-1.746-0.745-2.143-1.373
	c-0.722-1.182-1.407-2.755-3.303-2.607c2.6-2.146,4.242-5.345,4.242-8.908c0-6.494-5.154-11.456-11.855-11.456
	c-6.727,0-13.611,4.823-13.611,11.308c0,0.957-0.182,1.879,0.044,2.773l10.786,1.008c0,0,2.338,0.147,2.338-1.739
	c0-1.894-2.199-0.885-2.199,0c0,0-0.278-1.746,1.33-1.746c1.599,0,1.895,0.722,1.895,2.182c0,1.451-1.164,2.624-3.224,2.624
	c-2.034,0-8.726-0.868-8.726-0.868l0.417,0.287c-0.052,1.912,1.216,3.215,2.434,4.275c0,0-2.139,1.112-3.138,2.268
	c-0.743,0.857-1.485,1.617-2.504,1.974h-26.474v40.043v6.101c0,0-2.964,33.706,39.703,51.968l0.348,0.155l0.322-0.155
	C270.931,456.984,267.993,423.278,267.993,423.278z M242.805,379.108h23.615v38.069h-31.473v-34.284
	C237.391,382.204,239.495,378.974,242.805,379.108z M189.456,379.108h24.855c0.694,0.071,1.539,0.288,2.124,0.869
	c1.417,1.416,2.558,2.545,4.511,2.74v34.46h-31.49V379.108z M189.442,425.19h31.504v44.398
	C192.387,454.446,189.627,431.665,189.442,425.19z M234.948,469.588V425.19h31.487C266.252,431.664,263.499,454.445,234.948,469.588
	z"/>
<path fill="#009E4E" d="M232.948,382.795c-1.337-0.541-2.463-1.85-4.719-1.803c-2.647,0.067-3.436,1.221-5.293,1.621v36.562h-33.48
	v4.242c0,0-2.09,28.366,31.49,46.171V425.19h14.001v44.398c33.57-17.806,31.473-46.171,31.473-46.171v-4.242h-33.472V382.795z"/>
<path fill="#FDCC50" d="M201.59,394.343c0,0.653-0.53,1.191-1.182,1.191l-3.425-0.018v-2.826h-5.093v11.17h5.093v-2.234l3.346-0.009
	c0.66,0,1.19,0.531,1.19,1.183l-0.017,3.39h-2.233v5.093h11.16v-5.093h-2.807l-0.018-3.354c0-0.651,0.53-1.19,1.182-1.19
	l3.459-0.019v2.234h5.085v-11.17h-5.085v2.826l-3.39-0.027c-0.661,0-1.182-0.521-1.182-1.182l0.018-3.38h2.816v-5.103H199.33v5.103
	h2.243L201.59,394.343"/>
<path fill="#FDCC50" d="M252.017,384.323c0.365,0,0.661-0.113,0.661-0.271c0-0.131-0.296-0.252-0.661-0.252
	c-0.383,0-0.676,0.121-0.676,0.252C251.341,384.209,251.634,384.323,252.017,384.323 M254.226,392.544
	c0.035,0.521-0.713,1.459-0.635,3.285c0.061,1.816,1.73,3.634,2.252,4.807c0.495,1.165,2.172,1.931,3.485,1.895
	c2.555-0.078-0.286-4.232-0.286-6.563c0-0.869-0.809-1.086-0.809-1.086c-0.436-1.033-0.931,0.288-0.931,0.288
	c-0.165-1.384,0.931-1.321,0.931-1.321c-0.365-2.104-1.174-1.436-1.174-1.436c0.738-1.911,2.347,3.112,1.46,0.356
	c-1.173-3.719-0.131-4.075-0.356-5.701c-0.217-1.59,2.268-2.391,1.964-2.313c-0.295,0.061-0.442,1.018-0.442,1.452
	s-0.278,0.435,1.095,0.374c1.391-0.078,1.043,0.355,0.522,1.521c-0.522,1.164-0.809,1.312-1.175,2.26
	c-0.373,0.946,0.304,1.163,0.304,1.163c1.452-0.659,1.965,1.965,1.965,1.965c-1.094-1.234-1.902,0-1.902,1.017
	c0,1.026,1.329,5.103,1.329,6.562c0,1.461-0.461,2.921-2.068,3.122c-1.591,0.226-3.12-1.001-3.633-1.001
	c-0.504,0-0.8,0.574-0.8,0.574s0,1.017,0.452,1.747c0.426,0.729,1.573,0.582,2.39,1.018c0.801,0.442,0.443,1.017-0.365,1.389
	c-0.799,0.357-0.218,0.505-0.582,1.018c-0.356,0.505-0.356,0.583-2.172,2.625c-1.836,2.044-1.531,4.225-1.531,4.225
	c-0.965-0.816-0.668-2.624-0.668-2.624c-1.827,1.528-1.827,2.182-1.827,2.182c-0.286-1.825,1.112-3.938,1.112-3.938
	c-0.965,0.078-1.99,0.729-1.99,0.729c0.157-1.814,4.451-3.197,4.451-4.074c0-0.87,1.183-1.087-1.896-1.087
	c-3.05,0-0.217-5.102-0.938-5.102c-0.739,0-1.617,1.155-1.234,1.599c0.365,0.443,0,1.174,0,1.965c0,0.808-1.025,1.677-2.277,1.755
	c-1.226,0.07-1.809-0.364-2.242-0.442c-0.452-0.063,0.355-0.366-1.096-0.296c-1.468,0.079-2.702,2.051-2.702,2.051
	c-0.435-1.174,1.32-2.693,1.32-2.693c-1.755-0.296-2.267,0.208-2.267,0.208c0.512-1.965,2.91-1.738,2.91-1.738
	c0.079-1.32-1.738-1.974-1.738-1.974c1.47-1.381,4.798,2.617,5.745,2.617c0.957,0-0.139-2.617-0.853-3.556
	c-0.746-0.955,0.558-2.485,2.174-2.711c1.599-0.209,2.547,1.173,2.547,1.173c-0.287-0.73-0.147-2.043-1.382-2.182
	c-1.252-0.148-1.383-1.024-1.966-1.321c-0.581-0.286-1.373,0.661-2.042,0.739c-0.651,0.069-1.895-0.139-2.181,0.069
	c-0.305,0.226-0.644,0.651-1.373,0.729c-1.921,0.201-1.904,1.678-1.904,1.678c-0.738-0.886,0.87-2.182,0.87-2.182
	c-2.034-0.521-3.051,0.729-3.051,0.729c-0.296-1.824,2.894-2.259,2.894-2.259c-0.139-0.947-2.321-0.947-2.321-0.947
	c1.452-1.677,4.007,0.217,4.66,0.217c0.659,0,0.8-0.878,1.668-0.878c0.887,0,1.251-0.582,1.104-1.312
	c-0.146-0.722-0.295-0.14-1.164-0.436c-0.878-0.286-1.461-1.164-1.521-2.043c-0.086-0.868,0.687-1.868-0.635-2.007
	c-1.304-0.139-0.478-0.46-1.494-1.486c-1.009-1.017-2.173-0.068-2.173-0.068c0.06-1.687,2.764-1.391,2.764-1.391
	s0.218,0.868,0.218,0c0-0.879-1.451-2.694-1.451-2.694c1.451,0,2.771,1.746,2.771,1.746c0.861-0.869-0.373-2.399-0.373-2.399
	c1.746,0,1.59,4.451,1.59,5.382c0,0.955,1.772,3.076,2.564,3.076c0.79,0,0.722,0.06,1.747-0.817c1.025-0.87,0.435,0.659,1.66-0.574
	c1.244-1.233-0.427-0.66-0.427-0.66c-1.895,0.078-2.033-1.529-2.033-1.529c0,0.505,1.955,0.434,1.955-1.018
	c0-1.46-2.98-0.217-2.98-0.217c0-0.878,1.46-1.521,1.46-1.521c1.643-0.442,1.304-1.877,3.711-1.617l0.799-0.295l0.297-0.573
	c0,0,0.287-1.025,0.74,0.939c0.426,1.972,0.494,0.599,0.799,2.477c0.278,1.886,0.582,2.693,0.199,3.512c0,0-0.199-1.539-0.572-0.73
	c0,0,0.373,1.156,0,2.32c0,0-0.661-2.112-0.731-0.722c-0.068,1.382,0.522,1.817,0.365,2.398
	C254.957,392.544,254.087,389.416,254.226,392.544z"/>
<path fill="#FDCC50" d="M214.601,436.714c3.346-1.598,4.138-5.031,4.138-5.031c-2.399,1.392-9.317,2.406-10.196,2.268
	c0,0-0.104-0.052-0.503-0.226c-1.035-0.425,0.99-2.042,1.016-3.347c0.078-3.05-2.616-2.902-2.616-2.902
	c-3.354,0-1.755,1.816-4.598,2.321l1.817,0.868l-1.469,1.313l2.138-0.296c0,0,0.2,0.738,0.487,0.877
	c0.313,0.148,0.166,1.244-0.713,1.391c-0.869,0.139-7.788-0.876-10.204-2.268c0,0,0.799,3.434,4.155,5.031
	c0,0-2.33,0.139-3.355-0.434c0,0,2.13,3.128,4.746,3.789c0,0-0.6,0.651-2.842,0.07c0,0,2.764,3.215,5.762,3.648
	c0,0-2.703,0.357-3.521,0c0,0,2.503,1.931,4.694,2.635c-0.817,0.878-1.756,1.886-1.904,2.042c-0.321-0.156-2.433-1.085-2.433-1.085
	l-1.208-0.027v0.574h1.078c0,0.017,0.131,0.078,0.331,0.155l-0.748,0.818l0.417,0.391c0,0,0.322-0.321,0.6-0.643
	c0.061,0.503,0.14,1.077,0.14,1.077l0.582-0.079l-0.147-1.163c0.661,0.295,1.331,0.591,1.331,0.591l0.191,0.095l2.094-2.233
	c-0.156,0.938-0.625,3.625-1.791,6.675c0,0,5.084-1.303,8.361,0.07c-1.008-2.65-1.434-5.067-1.599-6.285l1.93,2.052l1.556-0.679
	l-0.166,1.166l0.565,0.087c0,0,0.087-0.592,0.157-1.069c0.295,0.313,0.6,0.635,0.6,0.635l0.426-0.392l-0.747-0.799l0.425-0.201
	l0.983,0.026v-0.573h-1.087c-0.13,0.026-2.095,0.895-2.547,1.087c-0.173-0.149-1.251-1.304-2.103-2.199
	c2.243-0.635,4.972-2.748,4.972-2.748c-0.817,0.357-3.494,0-3.494,0c2.981-0.434,5.754-3.648,5.754-3.648
	c-2.26,0.581-2.842-0.07-2.842-0.07c2.617-0.661,4.737-3.789,4.737-3.789C216.922,436.853,214.601,436.714,214.601,436.714"/>
<path fill="#FDCC50" d="M243.483,443.894l-2.104-9.813l4.73-0.243c0,0.842,0.643,1.504,1.494,1.504c0.825,0,1.504-0.678,1.504-1.513
	c0-0.044-0.027-0.087-0.027-0.131l5.025-0.252l-0.826,8.196L243.483,443.894 M255.487,442.503c-0.34,0-0.661,0.07-0.956,0.183
	l1.286-10.596H238.99l3.449,13.125c-0.372-0.148-0.772-0.235-1.199-0.235c-1.703,0-3.103,1.383-3.103,3.086s1.399,3.095,3.103,3.095
	c1.713,0,3.095-1.392,3.095-3.095c0-0.156-0.034-0.295-0.052-0.442h0.018l-0.026-0.122c-0.009-0.054-0.025-0.087-0.025-0.13
	l-0.314-1.443l9.198-2.895l-0.148,1.487c-0.045,0.182-0.07,0.355-0.07,0.564c0,1.416,1.156,2.581,2.573,2.581s2.59-1.165,2.59-2.581
	C258.076,443.659,256.904,442.503,255.487,442.503z"/>
<rect x="219.642" y="348.808" fill="#FDCC50" width="16.61" height="3.929"/>
<path fill="#FDCC50" d="M227.951,350.763"/>
<polyline fill="#FDCC50" points="232.932,342.307 229.447,342.307 229.447,338.23 226.448,338.23 226.448,342.307 222.945,342.307 
	222.945,344.863 226.448,344.863 226.448,349.696 229.447,349.696 229.447,344.863 232.932,344.863 232.932,342.307 "/>
<rect x="219.639" y="352.44" fill="#FFFFFF" width="16.606" height="2.626"/>
<rect x="219.642" y="352.44" fill="#009E4E" width="4.52" height="2.626"/>
<rect x="228.368" y="352.44" fill="#009E4E" width="4.094" height="2.626"/>
<path fill="#FDCC50" d="M194.133,457.617c0,0-16.228-0.295-16.566,6.634v12.308c0,0,6.389-3.485,16.566-3.485V457.617"/>
<path fill="#FDCC50" d="M261.744,457.617c0,0,16.252-0.295,16.592,6.634v12.308c0,0-6.406-3.485-16.592-3.485V457.617"/>
<path fill="#FFFFFF" d="M228.255,472.481c46.596,0,50.081-7.274,50.081-7.274v13.975c0,0-3.485,7.294-50.081,7.294h-0.608
	c-46.604,0-50.089-7.294-50.089-7.294l0.008-13.975c0,0,3.477,7.274,50.081,7.274H228.255"/>
<path fill="#FDCC50" d="M227.951,335.085"/>
<polyline fill="#FDCC50" points="189.3,481.476 190.717,472.403 195.671,473.167 195.454,474.567 192.403,474.089 192.055,476.331 
	194.863,476.765 194.654,478.157 191.829,477.721 191.421,480.373 194.576,480.86 194.358,482.259 189.3,481.476 "/>
<path fill="#FDCC50" d="M183.546,478.896l0.904,0.183c1.138,0.243,1.547-0.557,2.033-2.809c0.348-1.659,0.661-3.12-0.651-3.389
	l-0.965-0.21L183.546,478.896 M183.277,470.89l3.137,0.67c2.46,0.521,2.574,2.259,1.982,5.066c-0.296,1.373-0.756,4.572-3.972,3.895
	l-3.051-0.652L183.277,470.89z"/>
<path fill="#FDCC50" d="M203.05,474.02l-0.712,6.466c-0.157,1.373-1.078,2.721-3.416,2.469c-2.086-0.235-2.981-1.435-2.79-3.155
	l0.722-6.467l1.903,0.209l-0.704,6.345c-0.122,1.121,0.313,1.625,1.008,1.704c0.825,0.087,1.269-0.427,1.381-1.436l0.705-6.345
	L203.05,474.02"/>
<path fill="#FDCC50" d="M206.309,483.641c-2.364-0.183-2.704-1.608-2.495-3.182l1.921,0.13c-0.061,0.887-0.078,1.626,0.965,1.695
	c0.651,0.052,1-0.339,1.043-0.974c0.121-1.634-3.72-2.024-3.521-4.753c0.104-1.427,0.878-2.522,3.208-2.349
	c1.859,0.141,2.729,1.045,2.46,2.948l-1.861-0.14c0.044-0.679-0.017-1.391-0.782-1.444c-0.625-0.043-1.016,0.271-1.068,0.897
	c-0.122,1.737,3.737,1.867,3.52,4.753C209.534,483.588,207.769,483.747,206.309,483.641"/>
<path fill="#FDCC50" d="M216.156,478.877l1.069,0.035c0.565,0.017,0.982-0.591,0.999-1.198c0.036-0.749-0.156-1.392-1.016-1.427
	l-0.965-0.035L216.156,478.877 M214.374,474.776l3.452,0.121c1.755,0.061,2.408,1.147,2.355,2.824
	c-0.034,1.034-0.399,2.687-2.65,2.607l-1.417-0.052l-0.139,3.746l-1.913-0.078L214.374,474.776z"/>
<polyline fill="#FDCC50" points="221.389,484.18 221.485,474.993 226.491,475.044 226.483,476.461 223.388,476.428 223.363,478.687 
	226.213,478.721 226.196,480.13 223.345,480.103 223.319,482.781 226.517,482.816 226.499,484.224 221.389,484.18 "/>
<path fill="#FDCC50" d="M229.593,479l0.853-0.008c0.756,0,0.974-0.766,0.965-1.356c0-0.87-0.374-1.199-0.99-1.199l-0.844,0.009
	L229.593,479 M229.628,484.215l-1.911,0.009l-0.079-9.18l3.546-0.026c1.313-0.017,2.154,0.827,2.172,2.392
	c0.009,1.173-0.443,2.051-1.686,2.268v0.018c0.417,0.053,1.668,0.14,1.678,1.8c0.008,0.573,0.052,2.312,0.242,2.686l-1.885,0.017
	c-0.261-0.556-0.218-1.183-0.218-1.782c-0.008-1.095,0.079-2.016-1.392-2.007l-0.493,0.008L229.628,484.215z"/>
<path fill="#FDCC50" d="M241.945,479.338c-0.087-2.347-0.261-3.354-1.348-3.32c-1.077,0.044-1.182,1.069-1.095,3.416
	c0.086,2.356,0.278,3.354,1.347,3.319C241.927,482.71,242.031,481.693,241.945,479.338 M237.556,479.504
	c-0.089-2.426-0.176-4.729,2.989-4.859c3.163-0.112,3.241,2.199,3.345,4.623c0.089,2.4,0.176,4.747-2.98,4.858
	C237.739,484.249,237.652,481.911,237.556,479.504z"/>
<polyline fill="#FDCC50" points="245.742,483.79 245.081,474.636 248.159,474.419 250.044,480.53 250.062,480.53 251.14,474.194 
	254.122,473.984 254.782,483.137 252.923,483.276 252.409,476.209 252.382,476.209 251.131,483.397 249.306,483.528 
	247.115,476.591 247.09,476.601 247.612,483.658 245.742,483.79 "/>
<polyline fill="#FDCC50" points="256.607,482.946 255.503,473.837 258.085,473.524 261.266,479.547 261.283,479.547 260.536,473.22 
	262.3,473.011 263.405,482.12 260.901,482.423 257.607,476.062 257.58,476.071 258.389,482.738 256.607,482.946 "/>
<polyline fill="#FDCC50" points="265.221,481.824 263.743,472.758 265.639,472.446 267.115,481.511 265.221,481.824 "/>
<path fill="#FDCC50" d="M270.34,473.341h-0.017l-0.019,4.068l1.791-0.392L270.34,473.341 M268.306,481.365l0.53-9.501l2.478-0.548
	l4.381,8.44l-1.965,0.426l-0.938-1.878l-2.556,0.564l-0.07,2.095L268.306,481.365z"/>
</svg>
