<svg xmlns="http://www.w3.org/2000/svg" viewBox="0 0 45 45" enable-background="new 0 0 45 45"><defs><clipPath id="0"><path d="m0 36h36v-36h-36v36"/></clipPath><clipPath id="1"><path d="m18 36c-9.941 0-18-8.06-18-18 0-9.941 8.06-18 18-18 9.941 0 18 8.06 18 18 0 9.941-8.06 18-18 18"/></clipPath></defs><g transform="matrix(1.25 0 0-1.25 0 45)"><g clip-path="url(#0)"><path d="m0 0c0-9.941-8.06-18-18-18-9.941 0-18 8.06-18 18 0 9.941 8.06 18 18 18 9.941 0 18-8.06 18-18" fill="#f5f8fa" transform="translate(36 18)"/><g fill="#ccd6dd"><path d="m0 0c-.552 0-1 .448-1 1v7c0 .552.448 1 1 1 .552 0 1-.448 1-1v-7c0-.552-.448-1-1-1" transform="translate(18 25)"/><path d="m0 0c-.1 0-.202.015-.302.047l-8.04 2.541c-.527.167-.819.729-.653 1.255.166.527.731.819 1.255.653l8.04-2.542c.527-.166.819-.728.652-1.255-.135-.426-.529-.699-.953-.699" transform="translate(11.417 20.5)"/><path d="m0 0c-.434 0-.833.285-.96.722-.154.531.151 1.085.682 1.239l6.75 1.958c.531.154 1.085-.152 1.238-.681.154-.531-.151-1.086-.682-1.239l-6.75-1.959c-.092-.027-.186-.04-.278-.04" transform="translate(25.04 20.791)"/><path d="m0 0c-.306 0-.606.14-.803.403l-5.459 7.333c-.33.443-.238 1.07.205 1.399.443.331 1.07.238 1.399-.205l5.459-7.333c.33-.443.238-1.07-.205-1.399-.179-.134-.389-.198-.596-.198" transform="translate(27.04 5.833)"/><path d="m0 0c-.197 0-.396.058-.57.179-.453.315-.565.938-.25 1.391l5.125 7.375c.315.454.938.567 1.392.251.453-.315.565-.938.25-1.391l-5.125-7.375c-.194-.281-.506-.43-.822-.43" transform="translate(8.749 5.916)"/></g></g><g clip-path="url(#1)"><g fill="#ccd6dd"><path d="m0 0c-.44 0-.844.293-.965.738l-2.187 8.06c-.145.532.17 1.082.703 1.227.535.141 1.083-.171 1.227-.704l2.188-8.06c.144-.533-.171-1.082-.704-1.227-.087-.024-.176-.035-.262-.035" transform="translate(3.499 8.938)"/><path d="m0 0h-9c-.552 0-1 .447-1 1 0 .553.448 1 1 1h9c.553 0 1-.447 1-1 0-.553-.447-1-1-1" transform="translate(22 2)"/><path d="m0 0c-.079 0-.16.009-.24.029-.536.132-.865.674-.732 1.21l2.125 8.625c.133.536.679.862 1.21.732.536-.132.864-.674.732-1.21l-2.125-8.625c-.113-.456-.521-.761-.97-.761" transform="translate(32.13 8.875)"/><path d="m0 0c-.17 0-.342.043-.5.134l-7.563 4.375c-.477.277-.641.888-.364 1.367.276.478.886.643 1.366.365l7.563-4.375c.477-.277.642-.888.364-1.367-.184-.32-.52-.499-.866-.499" transform="translate(30.31 28.313)"/><path d="m0 0c-.312 0-.618.145-.813.417-.322.449-.22 1.074.229 1.395l6.188 4.438c.449.322 1.073.219 1.395-.229.322-.45.219-1.074-.229-1.396l-6.188-4.438c-.177-.126-.38-.187-.582-.187" transform="translate(5.501 28.313)"/></g><g fill="#292f33"><path d="m0 0l-7.208 5.083c-.348.245-.814.244-1.162-.006l-7.167-5.167c-.343-.247-.493-.684-.375-1.091l2.5-8.582c.124-.427.516-.721.96-.721h8.959c.43 0 .81.274.948.681l2.917 8.667c.141.419-.011.881-.372 1.136" transform="translate(25.493 22.484)"/><path d="m0 0c-.19.233-.474.368-.774.368h-3c-.217 0-.427-.071-.601-.201l-4-3c-.251-.188-.399-.484-.399-.799v-7.584c0-.292.128-.57.35-.76l2.291-1.958c.183-.156.414-.24.65-.24.058 0 .117.005.175.015.294.052.55.234.697.494l3.375 6c.05.091.087.189.108.291l1.334 6.542c.06.294-.016.6-.206.832" transform="translate(6.774 30.632)"/><path d="m0 0c-.077.378-.437.634-.811.598l-10.292-1.042c-.293-.03-.52-.174-.614-.453-.08-.174-.858-1.6-1.384-2.557-.117-.213-.124-.471-.017-.69.106-.219.313-.372.553-.412l6.375-1.041c.04-.007.081-.001.121-.001.041 0 .082.003.122.001l6.084 1c.2.033.38.146.495.314.116.168.158.375.118.575l-.75 3.708" transform="translate(23.735 37.15)"/><path d="m0 0l-4.083 10.333c-.106.271-.36.457-.65.475l-3.334.209c-.229.013-.455-.076-.61-.249-.152-.173-.218-.402-.175-.63l1.167-6.198c.017-.086.048-.148.093-.224 1.492-2.504 3.153-5.301 3.381-5.781.024-.084.063-.08.114-.151.141-.196.372-.143.613-.143h.006c.249 0 .375-.155 3.181 1.619.305.193.43.405.297.74" transform="translate(37.697 19.359)"/><path d="m0 0l-4.5 5c-.06.066-.131.122-.211.163-5.885 3.069-5.994 3.105-6.07 3.13-.077.025-.16.039-.241.039-.677 0-.75-.092-1.645-3.956-.012-.05-.019-.102-.02-.154l-.083-4.125c-.005-.273.138-.527.374-.663l7.333-4.25c.118-.069.247-.102.376-.102.18 0 .358.064.498.189l4.125 3.667c.15.132.24.319.251.518.011.199-.058.396-.191.544" transform="translate(14.349 3.168)"/><path d="m0 0l-1.209 3.209c-.073.192-.222.347-.411.427-.189.08-.405.078-.592-.005l-6.083-2.667c-.106-.046-.2-.116-.274-.205l-4.25-5.083c-.129-.155-.191-.353-.172-.552.019-.2.117-.384.272-.51 4.791-3.92 4.892-3.92 5.225-3.92.279 0 .384 0 6.484 3.867.183.116.307.304.34.518l.709 4.541c.02.128.006.259-.039.38" transform="translate(33.994 7.556)"/></g></g></g></svg>