<svg xmlns="http://www.w3.org/2000/svg" xmlns:xlink="http://www.w3.org/1999/xlink" viewBox="0 0 336 337" enable-background="new 0 0 336 337"><defs><path id="1" d="m0 0h336.01v337.2h-336.01z"/><clipPath id="0"><use xlink:href="#1"/></clipPath></defs><path clip-path="url(#0)" fill="#fff" d="m327.83 40.991c4.51 0 8.182 3.669 8.182 8.176 0 .733-.249 1.968-.477 2.792-.004.006-.248.238-63.56 238.51l-.046.13c-2.192 6.458-7.04 11.66-13.291 14.277l-.29.123c0 0-86.34 30.771-90.34 32.2-4.01-1.424-90.35-32.2-90.35-32.2l-.287-.123c-6.255-2.617-11.1-7.819-13.291-14.277l-.051-.13c-63.31-238.27-63.55-238.5-63.55-238.51-.231-.824-.48-2.059-.48-2.792 0-4.506 3.671-8.176 8.182-8.176h319.64"/><path clip-path="url(#0)" fill="#000043" d="m8.182 43.38c-3.191 0-5.792 2.586-5.792 5.79 0 .523.076 1.026.202 1.505l63.48 238.43c1.842 6.146 6.293 11.09 12.216 13.569l.219.089 89.5 31.9 89.5-31.9.219-.089c5.918-2.479 10.37-7.423 12.216-13.569l63.48-238.43c.131-.479.203-.982.203-1.505 0-3.204-2.602-5.79-5.788-5.79h-319.65"/><g fill="#fff"><path clip-path="url(#0)" d="m314.21 52.26c3.887 0 7.04 3.147 7.04 7.04 0 .622-.076 1.227-.231 1.795l-59.59 225.46c-1.075 3.583-3.722 6.5-7.136 7.925l-86.29 30.763-86.29-30.763c-3.415-1.425-6.06-4.342-7.137-7.925l-59.59-225.46c-.156-.569-.236-1.174-.236-1.795 0-3.889 3.153-7.04 7.04-7.04h292.42"/><path clip-path="url(#0)" d="m111.41.731c0 0-5.298 6.23-5.737 6.747-.464-.491-5.598-5.931-5.598-5.931-.514-.552-1.294-.775-2.027-.59-.729.186-1.298.755-1.492 1.488 0 .004-.569 2.207-.637 2.458-.531-.708-1.686-2.241-1.686-2.241-.662-.811-1.821-1.01-2.702-.474-.611.375-.991 1.056-.991 1.777l.168.834c.852 1.929 3.714 8.696 4.818 14.796 0-.025.038.078.08.168-.447.234-2.104 1.092-2.104 1.092-.4.264-.653.683-.789 1.148-.308-.061-.805-.16-.805-.16-2.517-.16-4.401.839-5.645 2.966-.641 1.083-1.058 2.62-1.058 3.912l.114 1.096c.207 1.018.679 1.57 1.13 1.887-2.061 2.55-3.128 6.63-4.055 10.268l-.54 2.093c-1.188 4.451-3.785 8.184-6.609 9.514-.81.384-1.315 1.157-1.315 2.03l.093.63c.493 1.623 3.094 2.689 5.514 3.223-2.639 3.714-4.01 8.393-4.01 13.948 0 1.868.151 3.845.438 5.878l.059.392c.224 2.438 1.804 2.746 2.285 2.78.253.017.936-.029 1.572-.578-.029.354-.147 1.748-.147 1.748 0 6.972 2.095 13.04 3.41 15.238.456.754 1.26 1.166 2.112 1.07.333-.04.624-.16.885-.329 0 .021.008.095.008.095 0 2.755-.67 6.268-2.542 7.809-.531.436-.843 1.066-.843 1.73l.084.574c.109.39.565 1.494 2.112 1.642 1.096.104 4.102-.474 6.867-2.677.025.461.055.984.055.984 0 6.932-3.284 12.793-5.357 14.857-.426.44-.662 1-.662 1.593l.089.617c.308.984 1.117 1.575 2.415 1.813 1.918.358 4.966.042 7.668-1.368 1.1 10.949 3.764 15.632 5.202 18.15l.535.963c.915 1.84 1 3.176 1.108 4.869l.021.324c.62 9.506 2.365 14.775 3.41 17.917l.607 1.96c.379 1.475.569 2.714.569 3.667l-.126 1.037c-.034.101-.055.173-1.01.261l-.304.03c.021-.004-1.863.029-1.863.029-1.366-.034-2.795-.084-4.675.704-4.831 2.032-6.703 8.232-6.437 10.433.232 1.872 1.518 3.043 3.364 3.043h27.21c.906 0 1.72-.615 1.985-1.484l.084-.556c0-.75-.354-1.399-.948-1.779-5.923-3.866-9.75-11.748-9.75-20.08 0-8.08 3.954-15.211 11.12-20.1.953.402 2.213.601 3.807.561.076.036.126.065.24.114.569.253 1.542.685 3.279.685l1.29.036 2.866.063c1.556 0 2.377-.396 3.056-.997.329.291.738.596 1.349.815 1.977.696 8.114-.017 8.173-.021 1.471-.232 2.698-1.244 3.49-2.826 1.555-.116 4.169-.346 5.476-.634 1.382-.308 2.02-.367 2.31-.367.135.331 1.079 2.686 1.079 2.686.004.013.13.253.13.253 1.429 2.634 4.717 7.438 7.174 9.604 4.662 4.093 9.708 8.093 11.1 8.938.189.118.447.341.447 1.01l-.097.812c-.202.988-1.509 5.452-3.09 7.514-1.235 1.602-1.863 2.095-3.372 2.036-2.104-.097-5.939.009-7.895 1.741-4 3.503-4.203 7.549-4.203 8.325l.021.417c.076 1.265 1.05 3.136 3.393 3.136h15.344c1.964 0 2.854-.733 3.524-1.521l.093-.118.573-.704 1.176-1.433c0 0-.038.021-.051.03.152-.118.443-.375 1.189-1.045.771-.645 1.736-1.45 2.365-2.302.662-.919 1.02-1.998 1.332-2.942 0 0-.042.025-.068.042.123-.203.291-.649.717-1.775.599-1.277 3.815-5.998 6.681-9.994 1-1.402 1.884-3.01 1.884-4.951 0-1.458-.501-3.102-1.825-4.984-.004-.008-.957-1.231-.957-1.231-1.72-2.122-5.277-6.529-5.771-9.992-.004-.017-.025-.186-.025-.186-.004-.004-.207-1.903-.207-1.903 0-.807.203-1.511.771-2.792 0 .008.253-.522.253-.522.358-.778.62-1.195.759-1.256.624-.021 3.047 3.172 4.219 4.704 1.682 2.224 3.777 4.982 6.471 7.758 2.394 2.477 4.468 4.778 6.913 7.687 1.745 2.055 5.695 10.347 6.437 12.483.569 1.602.616 3.136.485 3.541-.219.691-.573 1.273-.986 1.956l-.818 1.395c-1.227 2.297-1.197 5.349-.62 7.364.81 2.875 3.094 2.794 4.325 2.749l.683-.017 13.91.008c2.913 0 3.389-2.205 3.545-2.925l.029-.152c0-.013.16-1.483.16-1.483 0-2.1-.759-4.346-2.036-5.999-.012-.021-1.087-1.18-1.087-1.18-1.012-.991-2.255-2.209-3.09-4.818-1.391-4.337-1.745-7.954-2.086-11.444.004.025-.029-.325-.029-.325l-.717-5.617c-.409-2.24-1.121-3.448-1.876-4.725-.489-.833-.995-1.693-1.521-3.073-.354-1-.919-10.378-.919-14.323l.051-3.431c0-6.863-.848-12.469-2.483-16.739 9.09-3.146 15.183-9.828 15.183-16.726l-.017-.634c-.797-14.952-24.326-15.44-31.518-15.236l-.561.021c-12.857.428-16.14-1.425-16.958-2.245-.257-.259-.312-.449-.312-.655.021-.761 2.301-2.15 3.806-2.527 1.362 1.094 3.591 2.767 7.596 2.173 3.929-.592 7.322-3.657 9.48-6.125 1.294-1.481 3.33-3.505 6.091-3.985 1.943-.337 2.365-1.479 2.449-2.137.059-.525.009-1.833-1.838-2.637-3.692-1.606-9.345-2.763-14.311-1.355-.049-.155-.112-.305-.112-.305-.522-.717-1.298-1.033-2.112-.925-7.01.967-9.223 5.292-10.07 7.05-6.55 2.43-10.311 6.496-10.311 11.179l.013.337c.421 12.04 19.496 11.779 26.679 11.68l.236-.004c7.744-.107 19.576 1.41 20.444 6.04.004.013.046.501.046.501 0 .664-.295 1.394-.869 2.131-1.606 2.051-5.088 3.69-8.7 4.119-2.419-2.327-5.362-4.622-13.792-7.04 0 0-.215-.044-3.785-.757-5.577-.97-14.905-2.592-21.57-7.271-10.09-7.083-14.53-9.497-20.15-12.544l-1.185-.639c-3.355-1.821-6.226-4.053-8.637-6.569 1.143-.123 2.15-.363 2.921-.803.599-.346.986-.967 1.037-1.663v-.004c0-.771-.291-1.389-.822-1.788-2.984-2.261-4.228-4.47-5.602-8-.852-2.173-1.652-3.788-2.546-5.233.139-.055.287-.104.287-.104.556-.383.889-1.018.889-1.705-.017-5.46-3.174-9.392-5.063-11.739l-.716-.921c-.67-.845-1.214-2.27-1.214-3.168l.114-.582h-.004c.08-.152.168-.308.168-.308l.455-.915.207-.812v-.038c0-.337-.156-.618-.316-.902.535-.362.902-.86.94-1.446 0-.015.025-.683.025-.683l-.11-1.476c-.308-1.985-1.951-5.333-5.05-5.971-1.37-.285-2.234-.051-2.862.221-.211-.173-.67-.552-.94-.773.245-.276.502-.552.561-.89 1.083-6.081 3.954-12.854 4.805-14.787 0-.004.181-.839.181-.839 0-.717-.383-1.397-.995-1.772-.877-.535-2.04-.341-2.689.461-.008.008-1.092 1.446-1.703 2.257-.215-.824-.637-2.466-.637-2.466-.186-.729-.759-1.298-1.497-1.488-.733-.185-1.505.038-2.023.59.038-.042.038-.042-2.555 2.708 0 0-2.605 2.761-3.035 3.218-.442-.517-5.737-6.742-5.737-6.742-.396-.462-.97-.729-1.589-.729-.6.004-1.173.272-1.57.733"/></g><g fill="#000043"><path clip-path="url(#0)" d="m128.07 10.378l-.856-6.7-7.558 7.558-6.761-8.448-6.761 8.448-7.554-7.558-.86 6.7c0 0-3.903-4.01-5.071-5.457 1.875 4.255 4.063 10.441 4.949 14.84 4.616-1.467 10.378-1.886 15.297-1.886 4.919 0 10.682.419 15.302 1.886.889-4.399 3.073-10.584 4.944-14.84-1.16 1.442-5.071 5.457-5.071 5.457m-27.686 6.586l.135-4.787 4.67 3.967c-1.813.198-3.461.496-4.805.82m12.51-1.199c-1.425 0-2.815.038-4.139.112l4.139-4.778 4.144 4.778c-1.323-.074-2.71-.112-4.144-.112m7.714.38l4.671-3.967.13 4.787c-1.344-.325-2.988-.623-4.801-.82"/><path clip-path="url(#0)" d="m234.34 180.66c-.948-1.256-3.157-2.487-4.472-6.58-2.234-6.964-1.884-12.1-2.879-17.521-.59-3.22-1.926-3.842-3.267-7.364-.599-1.562-1.185-9.955-1.041-15.639.13-4.829.135-14.239-3.107-20.581 10.03-2.641 16.1-8.926 15.736-15.816-.569-10.69-14.64-13.596-29.15-13.198-4.35.116-20.263.862-19.812-5.03.194-2.556 4.236-4.377 5.927-4.468 1.416 1.075 3.617 2.801 7.25 2.167 7.693-1.33 8.33-9.501 16.296-10.152-3.208-2.646-12.07-3.708-16.907-.656 0-.932.345-1.804.729-2.417-6.449.89-7.781 4.749-8.658 6.496-6.951 2.327-9.906 6.03-9.771 9.794.35 10.08 18.298 9.638 24.613 9.613 6.593-.021 21.04.799 22.341 7.678.876 4.641-5.392 8.884-12.229 9.25-9.518-10.673-25.351-5.541-40.17-16.1-17.14-12.201-26.13-13.234-32.512-23.2 1.542.666 4.801 1.111 6.731 0-3.364-2.542-4.78-5.088-6.238-8.839-1.771-4.527-3.094-6.517-5.581-8.732 1.496-.061 3.081.626 4.08 1-.013-5.429-3.811-9.246-5.319-11.31-1.29-1.783-2.576-4.458-.688-7.06-1.977-2.175-3.823-.873-4.599-.198-.67.578-1.21.474-.81-.847.409-1.389 1.788-3.307 3.465-3.233 1.5.065 2.255 1.355 2.571 1.832.329-3.191-.864-5.51-2.984-5.918-1.252-.238-2.437.16-3.339.763-.746-1.237-1.378-2.15-3.612-2.913-.936-.324-4.245-1.066-6.803-1.347-1.8 1.399-3.739 3.479-5.341 5.996-.177-1.201.177-3.851.919-6.321-6.399-.219-16.09.39-20.625 3.364.915.858 1.45 2.02 1.526 2.74.093.988-.278.828-.67.423-.417-.407-1.653-1.907-3.621-2.051-4.148-.32-4.793 4.77-3.861 6.441.392-1.227 1.227-2.232 2.538-2.293 2.036-.09 3.478 2.47 3.722 3.807.181.967-.308 1.041-.944.447-.843-.795-1.699-1.063-2.778-.869-3.861.691-5.277 7.377-6.609 13.19-1.269 5.53-4.249 9.345-7.896 10.888.805 1.138 4.211 2.529 7.777 2.163-7.798 6.829-6.462 18.861-5.429 22.398.409-1.429 2.466-6.955 6.171-8.604-5.063 10.296-1.572 22.64.435 25.933.329-1.442 1.15-3.086 2.04-4.03 1.926 3.102 1.952 11.948-2.188 15.466 2.5.12 6.205-.757 8.393-5.229 2.458 9.484-2.104 18.777-5.21 21.873.89.478 6.483 1.406 9.716-2.738.868 15.07 4.62 19.592 5.788 21.932 1.172 2.348 1.256 3.99 1.349 5.975.67 14.455 5.585 20.252 4.346 25.08-.409 1.598-2.12 1.695-3.064 1.796-2.184.236-2.782-.126-5.101.59-4.388 1.357-5.345 6.685-5.168 8.161.11.936.582 1.214 1.311 1.214h20.28c1.475 0 1.96-.805 2.428-2.655-4.523-4.806-7.397-11.272-7.397-18.394 0-9.984 5.45-18.828 13.535-23.456 0 0 .501 1.326 3.452 1.227 1.21-.038 1.319-.773 2.049-.704 1.096.095.569 1.071 2.403 1.404 1.079.189 2.107.244 3.338.236 1.433-.017 1.931-.523 2.251-.919.48-.59 1.235-.5 1.593.013.282.407.637.773 1.345.984 1.108.329 5.32.35 6.968-.025 1.201-.28 1.581-1 1.998-1.882.228-.493.4-1.058 1.281-1.054 2.774.036 5.501-.527 7.099-.871 2.238-.489 2.837.445 3.237 1.644 3.136 9.415 13.67 16.41 18.282 19.856 1.357 1.014 1.665 2.217 1.294 3.958-.231 1.142-1.585 5.931-3.452 8.316-1.636 2.095-2.411 2.618-5.117 2.871-1.307.123-4.924.067-6.66 1.56-2.816 2.407-3.183 6.197-3.128 6.77 0 0 .055 1.159 1.307 1.159h14.673c1.37 0 2.053-.249 2.576-.898.367-.455 1.02-1.273 1.729-2.107.7-.826 2.398-1.737 3.393-3.195.746-1.1 1.075-2.841 1.75-4.405 1.176-2.715 4.181-6.574 6.829-10.265 1.732-2.426 1.935-4.339.05-7.478-1.361-2.266-10.77-11.06-5.859-19.1 1.01-1.64 2.723-2.702 4.152-1.33 1.513 1.46 2 4.731 16.16 18.893 1.787 1.783 2.331 2.677 2.946 3.847 1.914 3.638 4.258 8.81 4.945 10.462.957 2.289.796 3.887.497 4.822-.447 1.4-1.218 2.331-1.943 3.693-.932 1.737-.949 4.299-.443 5.834.396 1.188 1.328 1.222 2.984 1.222h13.81c1.328 0 1.37-.695 1.534-1.433.304-1.299-.012-3.909-1.487-5.818m-136.97-144.26c.4-.255 1.484-.902 2.968-1.417 1.952-.691 2.171-1.26 1.821-3.273-.152-.915.477-1.303 1.492-1.678.712-.255 2.976-.885 4.489-1.21.729.459 3.343 3.954 4.768 5.992 1.425-2.038 4.03-5.533 4.759-5.992 2.163.437 4.325 1.083 6.125 1.701 1.64.567 2.382 1.218 3.17 3.376.599 1.676.834 3.604.834 3.604s-1.092.229-2.698.048c-1.833-.217-2.866-.799-3.777-.605-1.564.314-3.511 2.287-3.688 3.09-.337 1.68.274 3.03.388 3.458.497-1.832 1.467-3.092 2.676-3.166.502-.034 1.164.316 2.095.428.544.065 1.092.044 1.581-.289 1.143-.77 1.876-1.688 2.626-2.076 0 0 1.066 1.937 1.581 3.638.354 1.214-.228 2.177-2.264 3.151-1.172.563-2.773 1.547-3.781 2.445-.995.894-.78 1.973-.278 2.787.931 1.511 1.728 3.614 1.842 5.324.051.784-.24 1.372-.834 1.709-.771.449-2.065.754-3.709.672-1.766-.083-4.03-2.249-5.821-2.827l.354-2.824c0 0 2.77-1.734 4.38-3.18.375-.333.207-1.026.16-1.484-1.442-.476-3.786-.831-5.691-.831-1.479.004-3.225.255-4.603.544.409-1.876.852-5.413.181-7.51-.24-.803-2.896-2.763-4.456-3.092-.915-.177-1.943.403-3.781.618-1.598.173-3.073-.228-3.073-.228s.055-.826.164-.903m14.694 29.321c.114.618.215 2.801-.607 4.03-.152.24-.333.276-.607 0-.586-.584-1.889-1.935-3.528-2.544-.733-.285-3.692-.643-2.765-5.05.093-.428.24-.75.944-.955.889-.245 2.07-.854 3.604-2.468.384-.411 1.18-.712 2.053-.432.683.217 1.159.337 1.754.337.59 0 1.07-.12 1.749-.337.873-.28 1.673.021 2.057.432 1.534 1.615 2.71 2.175 3.748 2.521.645.215.712.794.493 1.187-.24.432-.595 1.277-.755 1.981-.147.7-.383 1.96-1.699 2.9-.561.402-2.137 1.206-3.296 2.487-.236.251-.489.325-.518-.055-.03-.382-.114-3.134-1.931-4.498-.48-.358-.822-.173-.696.47m-9.518-8.287c-.59-.337-.885-.93-.83-1.713.151-2.26 1.496-5.206 2.761-6.567.194-.198 1.931-.717 2.795.057 1.631 1.463 4.447 3.242 4.447 3.242l.354 2.824c-1.788.582-4.047 2.744-5.813 2.826-1.648.081-2.938-.224-3.714-.669m-5.513-13.09c-.742-.5-1.264-2.196.574-6.186.75.386 2.259 1.515 3.406 2.276.493.331 1.033.35 1.572.289.936-.112 1.602-.47 2.104-.432 1.391.09 1.412 3.172 1.429 3.553.021.388-.156.401-.404.19-.632-.506-1.202-.498-1.644-.498-.611 0-2.065.584-2.677.75-.621.166-3.075.927-4.36.058m5.084 53.3c-5.265-10.378 6.116-12.776 10.02-17.512-.726 5.189-8.511 7.549-10.02 17.512m15.233 18.08c1.298-2.466 4.599-9.185 1.606-18.242-3.149 1.718-6.201 6.375-7.296 11.04-3.427-13.343 6.816-17.982 9.155-29.589 3.01 5.347-4.219 12.543 1.509 18.79 3.596-14.776 17.519-9.501 16.73-27.565 6.289 14.547-2.896 18.444-4.907 29.416-1.893-3.284-2.049-7.373-.236-11.936-9.154 4.447-4.172 23.689-16.561 28.08m100.48 14.329c-.409 1.874-2.065 2.361-2.946 1.119-1.619-2.272-2.297-14.01-15.01-19.991-1.922-.906-2.542.173-2.048 1.296 1.994 4.424 2.841 8.584 2.268 12.732-.186 1.351-1.066 2.03-1.854.576-.7-1.305-2.171-3.809-3.334-4.926-2.188-2.097-5.109-2.076-7.676-1.739-2.567.339-13.379 3.634-15.744.689-1.458-1.808-3.532-5.598-2.373-10.19.308-1.218-.776-1.627-2.041-.765-3.844 2.618-2.348 11.651-2.091 13.348.295 1.956.417 3.539-1.315 5.193-2.639 2.525-6.892 7.101-8.607 8.288-1.711 1.199-3.486.976-4.671 2.122-.906.89-.868 3.229-2.386 3.674-.75.221-2.419.324-3.625.152-1.189-.169-1.787-.329-1.939-2.241-.063-.712-.548-.959-1.176-.029-.485.708-.94 1.458-1.994 1.743-1.206.329-2.841.458-4.304.144-1.063-.23-1.518-.527-1.518-1.551 0-.449.021-.849-.008-1.13-.038-.362-.367-.398-.776-.116-.716.474-1.024 1.652-2.517 1.703-.851.032-3.246.027-2.533-2.654.4-1.499 1.378-5.84 6.635-6.871 2.07-.407 7.756.223 9.641-.135 2.078-.388 3.629-1.619 3.629-2.986s-4.27-1.049-4.527-2.331c-.489-2.421 7.128-4.259 6.736-6.726-.299-1.886-2.416-1.924-2.752-3.288-.354-1.375 2.331-5.094 2.331-8.216 0-4.148-2.331-6.504-2.98-9.741-.624-3.101.072-7.261 1.442-9.35.965-1.486 1.669-1.92 3.849-2.154 7.596-.824 17.211 6.944 19.773 8.534 8.401 5.21 13.1 6.268 23.555 8.152 6.264 1.148 13.291 1.753 18.572 9.164 2.747 3.883 5.529 13.04 4.315 18.501"/></g><g fill="#ed1a3b"><path clip-path="url(#0)" d="m148.35 152.53c-3.84-.205-8.772.742-11.575 2.401-.017 3.979-.426 8.03-1.181 11.524 2.605 1.916 8.03 4.203 11.1 4.864 2.403-1.758 5.484-5.387 7.137-8.159-.965-3.957-2.836-8.096-5.484-10.63m-1.943 4.321c-3.153-.824-8-.837-8-.837 2.71-.929 6.129-1.696 9.143-1.629 1.897 2.055 3.17 4.888 4.308 8.116-.0001.0001-2.778-3.591-5.451-5.65"/><path clip-path="url(#0)" d="m152.15 146.43c-.021-.019-.586.953-3.3 1.083.329.417.847 1.355.991 1.903 0 0 3.174.219 5.239.75 2.234 1.998 3.912 4.353 5.105 7.236-.004.017-1.383 2.904-3.03 5.745 1.378 2.822 2.938 6.431 3.204 9.721-1.547 3.971-4.274 7.355-7.752 9.72.472-1.134.995-2.677 1.323-4.287-1.964-.165-5.399-.877-7.183-1.458-2.104 2.613-4.675 4.392-7.925 6.01.472 1.058 1.467 2.571 2.137 3.296-5.311 0-10.163-1.99-13.843-5.269 0 0 2.651.354 5.02-.093-.548-2.942-.754-8.05-.506-10.667-3.714-1.058-7.07-2.495-9.75-4.168-.498.976-1.05 2.303-1.387 3.106-.839-4.782-.097-9.695 2.403-14.02.341.54.683 1.111.957 1.594 2.483-1.705 5.885-3.463 9.527-4.626.164-1.473.535-3.591.843-4.965 0 0-1.374-.129-1.964-.742-.295-.293-.645-.268-.902-.152-1.244.584-3.064.2-3.427.027-6.989 4.127-11.811 11.843-11.811 20.554 0 13.11 10.623 23.734 23.736 23.734 13.11 0 23.736-10.623 23.736-23.734 0-8.606-4.582-16.14-11.436-20.295m-1.947 38.07c-.135-1.239-.329-2.74-.4-3.545-1.104-.982-2.086-1.842-2.904-2.5 1.345.396 3.633.932 5.155 1.244-.241 1.058-1.345 3.942-1.851 4.801m9.404-21.826l1.256-2.797c0 0 1.813 6 .081 11.03 0 0 0-4.205-1.337-8.228"/></g><g fill="#000043"><path clip-path="url(#0)" d="m81.932 196.64h-10.816c1.311.767 1.964 3.422 1.964 5.273v26.468c0 2.369-1.083 4.658-1.901 5.345h9.02v-12.832c0 0 .767.042 1.425.042 8.958 0 14.42-5.699 14.42-12.848 0-7.221-5.05-11.297-14.11-11.448m-.636 18.327c-.658 0-1.096-.025-1.096-.025v-12.503c0 0 .662.017 1.534.017 4.806 0 6.935 2.352 6.935 6.07-.0001 3.984-3.01 6.387-7.373 6.445"/><path clip-path="url(#0)" d="m117.89 219.49c-.978-1.745-1.867-2.213-1.867-2.213 3.646-1.18 6.82-4.827 6.82-10.285 0-7.545-5.24-10.387-13.383-10.387l-11.677.009c1.315.771 1.973 3.427 1.973 5.277v26.468c0 2.373-1.088 4.662-1.905 5.345h9.03v-15.196l.953.008c1.762 0 2.087 1.248 2.411 1.851l6.26 13.337h8.797l-7.411-14.214m-9.362-6.15h-1.657v-10.96h1.876c4.565 0 6.66 1.771 6.66 5.328 0 3.44-2.614 5.632-6.879 5.632"/><path clip-path="url(#0)" d="m257.98 219.49c-.978-1.745-1.867-2.213-1.867-2.213 3.646-1.18 6.82-4.827 6.82-10.285 0-7.545-5.244-10.387-13.388-10.387l-11.672.009c1.311.771 1.964 3.427 1.964 5.277v26.468c0 2.373-1.087 4.662-1.897 5.345h9.03v-15.196l.953.008c1.767 0 2.091 1.248 2.42 1.851l6.259 13.337h8.789l-7.406-14.214m-9.358-6.15h-1.661v-10.96h1.872c4.565 0 6.673 1.771 6.673 5.328-.0001 3.44-2.627 5.632-6.884 5.632"/><path clip-path="url(#0)" d="m162.99 196.62l8.22 14.13c1.083 1.846 1.715 2.925 2.175 4.165h.051c.485-1.273 1.155-2.302 2.28-4.178l8.25-14.1h7.08v37.09h-7.157c0 0 .013-24.934 0-24.913h-.084c-.477 1.564-1.458 3.208-2.01 4.131l-6.677 10.913h-3.364l-6.686-10.913c-.456-.7-1.244-2.26-1.859-4.131l-.126.017v24.862h-8.958c.818-.688 1.905-2.972 1.905-5.345v-26.468c0-1.851-.662-4.485-1.973-5.265h8.937z"/><path clip-path="url(#0)" d="m205.79 233.69h-9.03c.813-.679 1.901-2.968 1.901-5.341v-26.472c0-1.851-.658-4.494-1.968-5.273l9.09-.008.004 37.09"/><path clip-path="url(#0)" d="m128.29 233.7c.818-.683 1.905-2.972 1.905-5.345v-26.468c0-1.851-.662-4.506-1.973-5.277l21.14.029v6.02h-12.03v8.945h10.605v5.939h-10.605v10.08h12.89l-2.529 6.1-19.407-.029"/><path clip-path="url(#0)" d="m212.21 233.7c.813-.683 1.905-2.972 1.905-5.345v-26.468c0-1.851-.662-4.506-1.973-5.277l21.14.029v6.02h-12.03v8.945h10.618v5.939h-10.618v10.08h12.895l-2.525 6.1-19.412-.029"/><path clip-path="url(#0)" d="m104.3 278.13c.818-.678 1.901-2.972 1.901-5.34v-26.472c0-1.851-.657-4.498-1.964-5.273l21.14.017v6.02h-12.04v8.958h10.614v5.939h-10.614v10.09h12.899l-2.538 6.095-19.403-.034"/><path clip-path="url(#0)" d="m233.94 278.13c.818-.678 1.905-2.972 1.905-5.34v-26.472c0-1.851-.658-4.498-1.969-5.273l21.15.017v6.02h-12.03v8.958h10.61v5.939h-10.61v10.09h12.89l-2.529 6.095-19.411-.034"/><path clip-path="url(#0)" d="m80.95 278.13c.822-.678 1.905-2.972 1.905-5.34v-26.472c0-1.851-.658-4.498-1.973-5.273l9.113-.008v31.03h12.334l-2.529 6.095-18.85-.035"/><path clip-path="url(#0)" d="m186.67 271.59v-6.424c0-2.369-1.066-4.679-1.888-5.371h8.902l.042 15.824c-3.094 1.72-8.19 3-12.616 3-11.689 0-18.484-7.52-18.484-18.767 0-11.583 7.432-19.2 20.499-19.2 3.444 0 6.736.801 8.86 1.703l.009 7.03c-2.167-1.281-5.855-2.394-9.299-2.394-7.268 0-12.372 4.215-12.372 12.839 0 7.807 4.123 12.397 11.601 12.397 1.753.003 3.57-.229 4.746-.634"/><path clip-path="url(#0)" d="m159.58 272.94c-.501-1.399-10.804-31.813-10.804-31.813h-7.246c0 0-10.311 30.43-10.812 31.825-.822 2.268-1.817 4.46-2.862 5.189h8.41l2.386-7.537h12.954l2.432 7.524h8.414c-1.051-.733-2.055-2.924-2.872-5.188m-19.251-7.963l3.098-9.392c.662-2.133 1.227-3.992 1.627-6.171h.042c.43 2.179.923 4.03 1.577 6.05l3.199 9.51h-9.543z"/><path clip-path="url(#0)" d="m199.94 246.47c0-2.373-1.066-4.679-1.88-5.362l8.827.017v23.652c0 4.86 1.732 7.925 7.507 7.925 5.37 0 7.625-3.048 7.625-7.878v-23.698h6.921v24.03c0 7.596-4.426 13.447-15.02 13.447-11.01 0-14-5.935-14-13.379l.026-18.751"/></g></svg>